{"glyphs":{"0":{"ha":781,"x_min":75,"x_max":707,"o":"m 392 -11 q 222 42 293 -11 q 113 196 151 95 q 75 441 75 298 l 75 555 q 113 802 75 700 q 222 957 151 903 q 392 1010 293 1010 q 560 957 490 1010 q 669 802 631 903 q 707 555 707 701 l 707 441 q 669 196 707 298 q 560 42 631 95 q 392 -11 490 -11 m 392 70 q 513 113 463 70 q 591 237 564 156 q 618 433 618 318 l 618 564 q 591 762 618 680 q 513 886 564 843 q 392 930 463 930 q 270 887 321 930 q 191 762 218 844 q 163 564 163 681 l 163 433 q 191 237 163 319 q 270 113 218 156 q 392 70 321 70 m 162 241 l 123 309 l 621 758 l 659 693 l 162 241 z "},"1":{"ha":781,"x_min":141,"x_max":658,"o":"m 376 0 l 376 918 l 395 897 l 167 784 l 167 874 l 428 1000 l 463 1000 l 463 0 l 376 0 m 141 0 l 141 80 l 658 80 l 658 0 l 141 0 z "},"2":{"ha":781,"x_min":83,"x_max":700,"o":"m 83 0 l 83 33 l 370 380 q 480 515 431 454 q 558 631 530 576 q 587 742 587 686 q 561 839 587 796 q 491 905 535 881 q 390 930 446 930 q 283 903 331 930 q 208 828 235 876 q 180 721 180 781 l 92 721 q 131 870 92 804 q 238 973 170 935 q 389 1010 305 1010 q 534 976 470 1010 q 636 880 598 941 q 673 741 673 819 q 645 614 673 673 q 566 490 616 554 q 448 345 515 425 l 230 83 l 230 79 l 383 81 l 700 81 l 700 0 l 83 0 z "},"3":{"ha":781,"x_min":75,"x_max":706,"o":"m 390 -11 q 234 26 305 -11 q 119 127 162 62 q 75 279 76 193 l 164 281 q 195 170 164 218 q 277 96 226 123 q 389 70 328 70 q 504 98 452 70 q 586 175 555 127 q 617 283 617 223 q 585 389 617 342 q 493 462 553 435 q 349 489 433 489 l 318 489 l 319 567 l 366 567 q 471 594 425 567 q 545 666 518 621 q 572 762 572 710 q 548 850 572 813 q 484 909 525 888 q 392 930 443 930 q 294 907 337 930 q 226 844 251 884 q 201 755 201 805 l 115 755 q 150 884 115 826 q 248 976 185 942 q 391 1010 310 1010 q 528 980 467 1010 q 625 895 589 949 q 661 768 661 840 q 625 637 661 695 q 530 546 589 578 q 399 516 470 513 l 399 541 q 557 512 488 545 q 666 417 626 478 q 706 277 706 356 q 664 132 706 197 q 550 28 621 66 q 390 -11 478 -11 z "},"4":{"ha":781,"x_min":45,"x_max":741,"o":"m 523 0 l 523 675 l 526 842 l 521 842 l 444 723 l 163 311 l 163 306 l 741 306 l 741 228 l 45 228 l 45 277 l 536 1000 l 611 1000 l 611 0 l 523 0 z "},"5":{"ha":781,"x_min":81,"x_max":701,"o":"m 387 -11 q 262 13 323 -11 q 154 82 201 37 q 81 191 106 127 l 160 227 q 213 146 178 181 q 294 90 248 111 q 392 70 340 70 q 506 101 456 70 q 585 187 556 133 q 614 310 614 241 q 585 432 614 378 q 505 517 556 486 q 387 549 454 549 q 309 537 346 549 q 245 506 272 525 q 204 466 218 487 l 136 477 l 136 1000 l 633 1000 l 633 919 l 224 919 l 224 521 l 200 553 q 274 605 220 581 q 397 630 328 630 q 551 588 481 630 q 661 475 620 547 q 701 311 701 403 q 659 144 701 216 q 545 30 616 71 q 387 -11 473 -11 z "},"6":{"ha":781,"x_min":64,"x_max":718,"o":"m 391 -11 q 223 32 297 -11 q 106 146 149 75 q 64 304 64 218 q 75 391 64 347 q 109 477 87 435 q 160 562 130 520 l 479 1000 l 581 1000 l 269 578 l 243 576 q 321 617 277 605 q 404 629 366 629 q 561 588 490 629 q 675 475 632 547 q 718 311 718 404 q 674 146 718 219 q 557 31 631 73 q 391 -11 483 -11 m 393 70 q 514 102 460 70 q 599 189 568 134 q 631 311 631 243 q 600 434 631 380 q 515 517 569 487 q 393 548 462 548 q 271 518 326 548 q 183 434 216 488 q 151 311 151 380 q 183 188 151 242 q 270 101 215 133 q 393 70 324 70 z "},"7":{"ha":781,"x_min":56,"x_max":726,"o":"m 206 0 l 612 913 l 612 919 l 56 919 l 56 1000 l 726 1000 l 726 971 l 300 0 l 206 0 z "},"8":{"ha":781,"x_min":60,"x_max":721,"o":"m 390 -11 q 223 27 298 -11 q 104 132 149 66 q 60 279 60 197 q 104 427 60 361 q 223 530 149 492 q 390 568 298 568 q 558 530 483 568 q 677 427 633 492 q 721 279 721 361 q 677 132 721 197 q 558 27 633 66 q 390 -11 484 -11 m 390 70 q 513 98 457 70 q 601 173 568 125 q 633 281 633 221 q 601 389 633 340 q 514 466 569 437 q 390 494 459 494 q 267 466 322 494 q 180 389 212 437 q 147 280 147 340 q 180 173 147 220 q 268 97 213 125 q 390 70 323 70 m 389 505 q 252 539 314 505 q 154 630 191 572 q 117 759 117 688 q 153 886 117 829 q 251 977 189 943 q 390 1010 312 1010 q 530 978 469 1011 q 627 887 591 945 q 662 758 662 829 q 625 627 662 684 q 526 537 588 570 q 389 505 464 505 m 390 575 q 486 600 443 575 q 554 665 529 624 q 578 755 578 706 q 553 846 578 806 q 484 908 527 886 q 390 931 441 931 q 296 908 339 931 q 228 846 254 886 q 202 755 202 806 q 227 667 202 707 q 295 601 252 626 q 390 575 338 575 z "},"9":{"ha":781,"x_min":64,"x_max":718,"o":"m 391 1010 q 558 968 484 1010 q 675 853 632 925 q 718 696 718 781 q 706 609 718 652 q 673 522 694 565 q 621 437 651 479 l 302 0 l 201 0 l 512 421 l 538 424 q 460 383 505 395 q 377 371 416 371 q 220 412 291 371 q 106 524 149 452 q 64 688 64 596 q 107 853 64 781 q 224 968 151 926 q 391 1010 298 1010 m 389 930 q 268 898 321 930 q 182 811 214 866 q 151 688 151 757 q 181 566 151 619 q 266 482 212 513 q 388 452 319 452 q 511 482 456 452 q 598 566 566 512 q 630 688 630 619 q 598 812 630 758 q 512 898 566 867 q 389 930 457 930 z "},"A":{"ha":781,"x_min":14,"x_max":767,"o":"m 14 0 l 345 1000 l 436 1000 l 767 0 l 675 0 l 573 315 l 563 346 l 393 879 l 388 879 l 218 346 l 208 315 l 106 0 l 14 0 m 168 288 l 168 369 l 613 369 l 613 288 l 168 288 z "},"Á":{"ha":781,"x_min":14,"x_max":767,"o":"m 14 0 l 345 1000 l 436 1000 l 767 0 l 675 0 l 573 315 l 563 346 l 393 879 l 388 879 l 218 346 l 208 315 l 106 0 l 14 0 m 168 288 l 168 369 l 613 369 l 613 288 l 168 288 m 391 1054 l 347 1101 l 540 1293 l 587 1236 l 391 1054 z "},"Ă":{"ha":781,"x_min":14,"x_max":767,"o":"m 14 0 l 345 1000 l 436 1000 l 767 0 l 675 0 l 573 315 l 563 346 l 393 879 l 388 879 l 218 346 l 208 315 l 106 0 l 14 0 m 168 288 l 168 369 l 613 369 l 613 288 l 168 288 m 391 1057 q 289 1079 335 1057 q 216 1141 243 1101 q 189 1232 189 1180 l 250 1232 q 291 1148 250 1179 q 391 1118 332 1118 q 493 1148 452 1118 q 534 1232 534 1179 l 594 1232 q 569 1141 596 1180 q 495 1079 542 1101 q 391 1057 448 1057 z "},"Ắ":{"ha":781,"x_min":14,"x_max":767,"o":"m 14 0 l 345 1000 l 436 1000 l 767 0 l 675 0 l 573 315 l 563 346 l 393 879 l 388 879 l 218 346 l 208 315 l 106 0 l 14 0 m 168 288 l 168 369 l 613 369 l 613 288 l 168 288 m 372 1181 l 333 1228 l 526 1418 l 570 1362 l 372 1181 m 391 1057 q 287 1080 333 1057 q 214 1144 240 1103 q 188 1237 188 1185 l 248 1237 q 288 1148 248 1183 q 391 1114 329 1114 q 493 1148 453 1114 q 533 1237 533 1183 l 593 1237 q 567 1144 593 1185 q 496 1080 541 1103 q 391 1057 450 1057 z "},"Ặ":{"ha":781,"x_min":14,"x_max":767,"o":"m 14 0 l 345 1000 l 436 1000 l 767 0 l 675 0 l 573 315 l 563 346 l 393 879 l 388 879 l 218 346 l 208 315 l 106 0 l 14 0 m 168 288 l 168 369 l 613 369 l 613 288 l 168 288 m 389 -241 q 336 -220 357 -241 q 314 -166 314 -198 q 336 -113 314 -134 q 389 -91 357 -91 q 443 -113 421 -91 q 465 -166 465 -134 q 443 -220 465 -198 q 389 -241 421 -241 m 391 1057 q 289 1079 335 1057 q 216 1141 243 1101 q 189 1232 189 1180 l 250 1232 q 291 1148 250 1179 q 391 1118 332 1118 q 493 1148 452 1118 q 534 1232 534 1179 l 594 1232 q 569 1141 596 1180 q 495 1079 542 1101 q 391 1057 448 1057 z "},"Ằ":{"ha":781,"x_min":14,"x_max":767,"o":"m 14 0 l 345 1000 l 436 1000 l 767 0 l 675 0 l 573 315 l 563 346 l 393 879 l 388 879 l 218 346 l 208 315 l 106 0 l 14 0 m 168 288 l 168 369 l 613 369 l 613 288 l 168 288 m 410 1180 l 212 1362 l 255 1418 l 448 1228 l 410 1180 m 390 1057 q 286 1080 332 1057 q 214 1144 240 1103 q 188 1237 188 1185 l 248 1237 q 289 1148 248 1183 q 390 1114 329 1114 q 493 1148 453 1114 q 534 1237 534 1183 l 593 1237 q 567 1144 593 1185 q 495 1080 541 1103 q 390 1057 449 1057 z "},"Ẳ":{"ha":781,"x_min":14,"x_max":767,"o":"m 14 0 l 345 1000 l 436 1000 l 767 0 l 675 0 l 573 315 l 563 346 l 393 879 l 388 879 l 218 346 l 208 315 l 106 0 l 14 0 m 168 288 l 168 369 l 613 369 l 613 288 l 168 288 m 390 1055 q 286 1079 332 1055 q 214 1143 240 1102 q 188 1236 188 1184 l 248 1236 q 289 1147 248 1182 q 390 1112 329 1112 q 493 1147 453 1112 q 534 1236 534 1182 l 593 1236 q 567 1143 593 1184 q 495 1079 541 1102 q 390 1055 449 1055 m 408 1181 l 370 1222 q 413 1257 395 1236 q 431 1303 431 1279 q 413 1343 431 1329 q 363 1357 395 1357 q 327 1353 347 1357 q 291 1343 307 1350 l 291 1405 q 330 1415 307 1412 q 368 1418 353 1418 q 458 1390 426 1418 q 490 1312 490 1362 q 467 1234 490 1271 q 408 1181 443 1198 z "},"Ẵ":{"ha":781,"x_min":14,"x_max":767,"o":"m 14 0 l 345 1000 l 436 1000 l 767 0 l 675 0 l 573 315 l 563 346 l 393 879 l 388 879 l 218 346 l 208 315 l 106 0 l 14 0 m 168 288 l 168 369 l 613 369 l 613 288 l 168 288 m 314 1282 q 347 1385 314 1348 q 433 1423 380 1423 q 488 1411 466 1423 q 528 1384 511 1400 q 562 1357 545 1369 q 600 1345 579 1345 q 644 1366 629 1345 q 659 1423 659 1386 l 722 1423 q 709 1350 724 1381 q 666 1300 694 1318 q 602 1282 639 1282 q 551 1294 572 1282 q 511 1322 529 1306 q 475 1350 492 1338 q 435 1362 457 1362 q 393 1343 409 1362 q 377 1282 377 1323 l 314 1282 m 517 1057 q 413 1080 459 1057 q 341 1144 368 1103 q 315 1237 315 1185 l 376 1237 q 416 1148 376 1183 q 517 1114 456 1114 q 621 1148 581 1114 q 661 1237 661 1183 l 721 1237 q 695 1144 721 1185 q 623 1080 669 1103 q 517 1057 576 1057 z "},"Ǎ":{"ha":781,"x_min":14,"x_max":767,"o":"m 14 0 l 345 1000 l 436 1000 l 767 0 l 675 0 l 573 315 l 563 346 l 393 879 l 388 879 l 218 346 l 208 315 l 106 0 l 14 0 m 168 288 l 168 369 l 613 369 l 613 288 l 168 288 m 226 1246 l 388 1114 l 395 1114 l 555 1246 l 600 1194 l 406 1046 l 378 1046 l 181 1194 l 226 1246 z "},"Â":{"ha":781,"x_min":14,"x_max":767,"o":"m 14 0 l 345 1000 l 436 1000 l 767 0 l 675 0 l 573 315 l 563 346 l 393 879 l 388 879 l 218 346 l 208 315 l 106 0 l 14 0 m 168 288 l 168 369 l 613 369 l 613 288 l 168 288 m 229 1054 l 184 1105 l 380 1253 l 409 1253 l 603 1105 l 558 1054 l 398 1185 l 391 1185 l 229 1054 z "},"Ấ":{"ha":781,"x_min":14,"x_max":767,"o":"m 14 0 l 345 1000 l 436 1000 l 767 0 l 675 0 l 573 315 l 563 346 l 393 879 l 388 879 l 218 346 l 208 315 l 106 0 l 14 0 m 168 288 l 168 369 l 613 369 l 613 288 l 168 288 m 568 1191 l 523 1229 l 702 1417 l 751 1358 l 568 1191 m 225 1046 l 180 1094 l 377 1246 l 406 1246 l 600 1094 l 555 1046 l 395 1174 l 387 1174 l 225 1046 z "},"Ậ":{"ha":781,"x_min":14,"x_max":767,"o":"m 14 0 l 345 1000 l 436 1000 l 767 0 l 675 0 l 573 315 l 563 346 l 393 879 l 388 879 l 218 346 l 208 315 l 106 0 l 14 0 m 168 288 l 168 369 l 613 369 l 613 288 l 168 288 m 389 -241 q 336 -220 357 -241 q 314 -166 314 -198 q 336 -113 314 -134 q 389 -91 357 -91 q 443 -113 421 -91 q 465 -166 465 -134 q 443 -220 465 -198 q 389 -241 421 -241 m 229 1054 l 184 1105 l 380 1253 l 409 1253 l 603 1105 l 558 1054 l 398 1185 l 391 1185 l 229 1054 z "},"Ầ":{"ha":781,"x_min":14,"x_max":767,"o":"m 14 0 l 345 1000 l 436 1000 l 767 0 l 675 0 l 573 315 l 563 346 l 393 879 l 388 879 l 218 346 l 208 315 l 106 0 l 14 0 m 168 288 l 168 369 l 613 369 l 613 288 l 168 288 m 214 1191 l 29 1358 l 79 1417 l 258 1229 l 214 1191 m 556 1046 l 394 1174 l 387 1174 l 227 1046 l 181 1094 l 376 1246 l 404 1246 l 601 1094 l 556 1046 z "},"Ẩ":{"ha":781,"x_min":14,"x_max":767,"o":"m 14 0 l 345 1000 l 436 1000 l 767 0 l 675 0 l 573 315 l 563 346 l 393 879 l 388 879 l 218 346 l 208 315 l 106 0 l 14 0 m 168 288 l 168 369 l 613 369 l 613 288 l 168 288 m 553 1187 l 511 1219 q 547 1260 532 1238 q 562 1303 562 1283 q 545 1344 562 1329 q 495 1359 527 1359 q 459 1355 479 1359 q 423 1344 439 1352 l 423 1406 q 460 1416 437 1412 q 503 1419 484 1419 q 591 1392 557 1419 q 625 1314 625 1365 q 613 1264 625 1289 q 585 1220 602 1240 q 553 1187 569 1200 m 224 1046 l 179 1094 l 376 1246 l 405 1246 l 599 1094 l 554 1046 l 393 1174 l 386 1174 l 224 1046 z "},"Ẫ":{"ha":781,"x_min":14,"x_max":767,"o":"m 14 0 l 345 1000 l 436 1000 l 767 0 l 675 0 l 573 315 l 563 346 l 393 879 l 388 879 l 218 346 l 208 315 l 106 0 l 14 0 m 168 288 l 168 369 l 613 369 l 613 288 l 168 288 m 184 1282 q 217 1385 184 1348 q 304 1423 250 1423 q 359 1411 336 1423 q 398 1384 381 1400 q 432 1357 415 1369 q 470 1345 449 1345 q 513 1366 498 1345 q 529 1423 529 1386 l 593 1423 q 580 1349 594 1381 q 539 1299 566 1317 q 477 1282 513 1282 q 425 1294 447 1282 q 385 1322 403 1306 q 349 1350 367 1338 q 309 1362 331 1362 q 266 1343 283 1362 q 248 1282 248 1324 l 184 1282 m 224 1046 l 179 1094 l 376 1246 l 404 1246 l 598 1094 l 553 1046 l 393 1174 l 386 1174 l 224 1046 z "},"Ȁ":{"ha":781,"x_min":14,"x_max":767,"o":"m 14 0 l 345 1000 l 436 1000 l 767 0 l 675 0 l 573 315 l 563 346 l 393 879 l 388 879 l 218 346 l 208 315 l 106 0 l 14 0 m 168 288 l 168 369 l 613 369 l 613 288 l 168 288 m 261 1080 l 119 1295 l 186 1332 l 309 1103 l 261 1080 m 465 1080 l 330 1295 l 397 1332 l 517 1103 l 465 1080 z "},"Ä":{"ha":781,"x_min":14,"x_max":767,"o":"m 14 0 l 345 1000 l 436 1000 l 767 0 l 675 0 l 573 315 l 563 346 l 393 879 l 388 879 l 218 346 l 208 315 l 106 0 l 14 0 m 168 288 l 168 369 l 613 369 l 613 288 l 168 288 m 531 1078 q 479 1099 500 1078 q 458 1149 458 1120 q 479 1201 458 1181 q 531 1222 500 1222 q 583 1201 562 1222 q 604 1149 604 1181 q 583 1099 604 1120 q 531 1078 562 1078 m 255 1078 q 204 1099 225 1078 q 182 1149 182 1120 q 204 1201 182 1181 q 255 1222 225 1222 q 307 1201 286 1222 q 327 1149 327 1181 q 307 1099 327 1120 q 255 1078 286 1078 z "},"Ȧ":{"ha":781,"x_min":14,"x_max":767,"o":"m 14 0 l 345 1000 l 436 1000 l 767 0 l 675 0 l 573 315 l 563 346 l 393 879 l 388 879 l 218 346 l 208 315 l 106 0 l 14 0 m 168 288 l 168 369 l 613 369 l 613 288 l 168 288 m 391 1075 q 337 1097 359 1075 q 315 1150 315 1118 q 337 1204 315 1182 q 391 1225 359 1225 q 444 1204 422 1225 q 466 1150 466 1182 q 444 1097 466 1118 q 391 1075 422 1075 z "},"Ạ":{"ha":781,"x_min":14,"x_max":767,"o":"m 14 0 l 345 1000 l 436 1000 l 767 0 l 675 0 l 573 315 l 563 346 l 393 879 l 388 879 l 218 346 l 208 315 l 106 0 l 14 0 m 168 288 l 168 369 l 613 369 l 613 288 l 168 288 m 389 -241 q 336 -220 357 -241 q 314 -166 314 -198 q 336 -113 314 -134 q 389 -91 357 -91 q 443 -113 421 -91 q 465 -166 465 -134 q 443 -220 465 -198 q 389 -241 421 -241 z "},"À":{"ha":781,"x_min":14,"x_max":767,"o":"m 14 0 l 345 1000 l 436 1000 l 767 0 l 675 0 l 573 315 l 563 346 l 393 879 l 388 879 l 218 346 l 208 315 l 106 0 l 14 0 m 168 288 l 168 369 l 613 369 l 613 288 l 168 288 m 391 1054 l 195 1236 l 241 1293 l 434 1101 l 391 1054 z "},"Ả":{"ha":781,"x_min":14,"x_max":767,"o":"m 14 0 l 345 1000 l 436 1000 l 767 0 l 675 0 l 573 315 l 563 346 l 393 879 l 388 879 l 218 346 l 208 315 l 106 0 l 14 0 m 168 288 l 168 369 l 613 369 l 613 288 l 168 288 m 408 1086 l 370 1128 q 413 1163 395 1141 q 431 1209 431 1185 q 413 1249 431 1235 q 363 1263 395 1263 q 327 1259 347 1263 q 291 1249 307 1255 l 291 1311 q 330 1321 307 1318 q 368 1324 353 1324 q 458 1296 426 1324 q 490 1218 490 1267 q 467 1140 490 1177 q 408 1086 443 1103 z "},"Ȃ":{"ha":781,"x_min":14,"x_max":767,"o":"m 14 0 l 345 1000 l 436 1000 l 767 0 l 675 0 l 573 315 l 563 346 l 393 879 l 388 879 l 218 346 l 208 315 l 106 0 l 14 0 m 168 288 l 168 369 l 613 369 l 613 288 l 168 288 m 389 1238 q 494 1216 447 1238 q 568 1154 541 1194 q 593 1063 595 1115 l 532 1063 q 491 1147 532 1117 q 389 1177 450 1177 q 289 1147 330 1177 q 248 1063 248 1117 l 188 1063 q 215 1154 188 1115 q 288 1216 242 1194 q 389 1238 334 1238 z "},"Ā":{"ha":781,"x_min":14,"x_max":767,"o":"m 14 0 l 345 1000 l 436 1000 l 767 0 l 675 0 l 573 315 l 563 346 l 393 879 l 388 879 l 218 346 l 208 315 l 106 0 l 14 0 m 168 288 l 168 369 l 613 369 l 613 288 l 168 288 m 157 1116 l 157 1183 l 624 1183 l 624 1116 l 157 1116 z "},"Ą":{"ha":781,"x_min":14,"x_max":789,"o":"m 14 0 l 345 1000 l 436 1000 l 767 0 l 675 0 l 573 315 l 563 346 l 393 879 l 388 879 l 218 346 l 208 315 l 106 0 l 14 0 m 168 288 l 168 369 l 613 369 l 613 288 l 168 288 m 698 -272 q 622 -241 652 -272 q 593 -163 593 -211 q 629 -66 593 -109 q 717 21 666 -24 l 767 0 q 715 -53 741 -28 q 671 -102 689 -77 q 654 -157 654 -127 q 671 -198 654 -183 q 712 -213 688 -213 q 756 -203 734 -213 q 789 -184 777 -194 l 789 -245 q 748 -264 775 -257 q 698 -272 721 -272 z "},"Å":{"ha":781,"x_min":14,"x_max":767,"o":"m 14 0 l 345 1000 l 436 1000 l 767 0 l 675 0 l 573 315 l 563 346 l 393 879 l 388 879 l 218 346 l 208 315 l 106 0 l 14 0 m 168 288 l 168 369 l 613 369 l 613 288 l 168 288 m 391 1044 q 319 1063 351 1044 q 269 1114 288 1082 q 250 1187 250 1146 q 269 1260 250 1227 q 319 1312 288 1293 q 391 1331 351 1331 q 461 1312 430 1331 q 511 1260 493 1293 q 530 1187 530 1227 q 511 1114 530 1146 q 461 1063 493 1082 q 391 1044 430 1044 m 391 1105 q 448 1129 427 1105 q 470 1187 470 1153 q 448 1247 470 1224 q 391 1271 426 1271 q 333 1247 357 1271 q 309 1187 309 1224 q 333 1129 309 1153 q 391 1105 357 1105 z "},"Ǻ":{"ha":781,"x_min":14,"x_max":767,"o":"m 14 0 l 345 1000 l 436 1000 l 767 0 l 675 0 l 573 315 l 563 346 l 393 879 l 388 879 l 218 346 l 208 315 l 106 0 l 14 0 m 168 288 l 168 369 l 613 369 l 613 288 l 168 288 m 399 1034 q 304 1073 342 1034 q 266 1166 266 1112 q 304 1261 266 1223 q 399 1299 342 1299 q 494 1261 456 1299 q 533 1166 533 1223 q 494 1073 533 1112 q 399 1034 456 1034 m 399 1088 q 456 1111 434 1088 q 478 1166 478 1134 q 456 1223 478 1201 q 399 1245 433 1245 q 344 1223 367 1245 q 321 1166 321 1201 q 344 1111 321 1134 q 399 1088 367 1088 m 450 1327 l 407 1375 l 600 1567 l 646 1510 l 450 1327 z "},"Ã":{"ha":781,"x_min":14,"x_max":767,"o":"m 14 0 l 345 1000 l 436 1000 l 767 0 l 675 0 l 573 315 l 563 346 l 393 879 l 388 879 l 218 346 l 208 315 l 106 0 l 14 0 m 168 288 l 168 369 l 613 369 l 613 288 l 168 288 m 185 1080 q 219 1187 186 1146 q 303 1228 252 1228 q 359 1215 336 1228 q 399 1184 382 1202 q 433 1154 416 1167 q 471 1141 450 1141 q 515 1167 500 1141 q 531 1228 531 1193 l 593 1228 q 562 1122 595 1164 q 475 1080 530 1080 q 422 1093 444 1080 q 381 1123 399 1106 q 346 1153 363 1140 q 306 1166 328 1166 q 264 1142 279 1166 q 249 1080 249 1119 l 185 1080 z "},"Æ":{"ha":781,"x_min":6,"x_max":763,"o":"m 6 0 l 324 1000 l 413 1000 l 413 909 l 378 909 l 203 349 l 195 319 l 94 0 l 6 0 m 163 288 l 163 369 l 457 369 l 457 288 l 163 288 m 424 0 l 410 333 l 410 353 l 382 1000 l 763 1000 l 763 919 l 467 919 l 503 81 l 763 81 l 763 0 l 424 0 m 475 470 l 469 551 l 728 551 l 728 470 l 475 470 z "},"Ǽ":{"ha":781,"x_min":6,"x_max":763,"o":"m 6 0 l 324 1000 l 413 1000 l 413 909 l 378 909 l 203 349 l 195 319 l 94 0 l 6 0 m 163 288 l 163 369 l 457 369 l 457 288 l 163 288 m 424 0 l 410 333 l 410 353 l 382 1000 l 763 1000 l 763 919 l 467 919 l 503 81 l 763 81 l 763 0 l 424 0 m 475 470 l 469 551 l 728 551 l 728 470 l 475 470 m 507 1054 l 464 1101 l 656 1293 l 703 1236 l 507 1054 z "},"B":{"ha":781,"x_min":100,"x_max":701,"o":"m 176 0 l 176 81 l 408 81 q 557 133 501 81 q 612 277 612 185 q 555 419 612 368 q 402 471 498 471 l 158 471 l 158 550 l 370 550 q 459 574 420 550 q 522 640 499 598 q 545 737 545 682 q 495 871 545 823 q 366 919 444 919 l 158 919 l 158 1000 l 364 1000 q 504 967 444 1000 q 598 878 564 935 q 631 746 631 821 q 613 647 631 694 q 563 565 595 600 q 490 512 532 530 l 492 532 q 602 482 555 518 q 675 393 649 446 q 701 272 701 340 q 664 130 701 191 q 561 34 627 68 q 408 0 496 0 l 176 0 m 100 0 l 100 1000 l 186 1000 l 186 0 l 100 0 z "},"C":{"ha":781,"x_min":67,"x_max":729,"o":"m 475 -11 q 261 54 353 -11 q 118 233 170 118 q 67 500 67 349 q 119 767 67 652 q 262 946 170 882 q 477 1010 355 1010 q 610 983 541 1010 q 726 912 680 956 l 693 831 q 600 902 659 874 q 478 930 541 930 q 309 876 382 930 q 196 725 236 821 q 155 501 155 629 q 196 276 155 374 q 308 124 236 179 q 477 70 380 70 q 601 100 540 70 q 696 178 662 130 l 729 98 q 612 20 682 50 q 475 -11 541 -11 z "},"Ć":{"ha":781,"x_min":67,"x_max":729,"o":"m 475 -11 q 261 54 353 -11 q 118 233 170 118 q 67 500 67 349 q 119 767 67 652 q 262 946 170 882 q 477 1010 355 1010 q 610 983 541 1010 q 726 912 680 956 l 693 831 q 600 902 659 874 q 478 930 541 930 q 309 876 382 930 q 196 725 236 821 q 155 501 155 629 q 196 276 155 374 q 308 124 236 179 q 477 70 380 70 q 601 100 540 70 q 696 178 662 130 l 729 98 q 612 20 682 50 q 475 -11 541 -11 m 469 1054 l 425 1101 l 618 1293 l 665 1236 l 469 1054 z "},"Č":{"ha":781,"x_min":67,"x_max":729,"o":"m 475 -11 q 261 54 353 -11 q 118 233 170 118 q 67 500 67 349 q 119 767 67 652 q 262 946 170 882 q 477 1010 355 1010 q 610 983 541 1010 q 726 912 680 956 l 693 831 q 600 902 659 874 q 478 930 541 930 q 309 876 382 930 q 196 725 236 821 q 155 501 155 629 q 196 276 155 374 q 308 124 236 179 q 477 70 380 70 q 601 100 540 70 q 696 178 662 130 l 729 98 q 612 20 682 50 q 475 -11 541 -11 m 303 1246 l 466 1114 l 473 1114 l 633 1246 l 678 1194 l 484 1046 l 455 1046 l 258 1194 l 303 1246 z "},"Ç":{"ha":781,"x_min":67,"x_max":729,"o":"m 475 -11 q 261 54 353 -11 q 118 233 170 118 q 67 500 67 349 q 119 767 67 652 q 262 946 170 882 q 477 1010 355 1010 q 610 983 541 1010 q 726 912 680 956 l 693 831 q 600 902 659 874 q 478 930 541 930 q 309 876 382 930 q 196 725 236 821 q 155 501 155 629 q 196 276 155 374 q 308 124 236 179 q 477 70 380 70 q 601 100 540 70 q 696 178 662 130 l 729 98 q 612 20 682 50 q 475 -11 541 -11 m 374 -306 l 374 -248 q 477 -235 439 -251 q 514 -182 514 -220 q 486 -138 514 -156 q 412 -120 458 -120 l 448 0 l 501 0 l 468 -110 l 457 -77 q 544 -116 514 -87 q 573 -188 573 -146 q 523 -275 573 -245 q 374 -306 472 -306 z "},"Ḉ":{"ha":781,"x_min":67,"x_max":729,"o":"m 475 -11 q 261 54 353 -11 q 118 233 170 118 q 67 500 67 349 q 119 767 67 652 q 262 946 170 882 q 477 1010 355 1010 q 610 983 541 1010 q 726 912 680 956 l 693 831 q 600 902 659 874 q 478 930 541 930 q 309 876 382 930 q 196 725 236 821 q 155 501 155 629 q 196 276 155 374 q 308 124 236 179 q 477 70 380 70 q 601 100 540 70 q 696 178 662 130 l 729 98 q 612 20 682 50 q 475 -11 541 -11 m 374 -306 l 374 -248 q 477 -235 439 -251 q 514 -182 514 -220 q 486 -138 514 -156 q 412 -120 458 -120 l 448 0 l 501 0 l 468 -110 l 457 -77 q 544 -116 514 -87 q 573 -188 573 -146 q 523 -275 573 -245 q 374 -306 472 -306 m 469 1054 l 425 1101 l 618 1293 l 665 1236 l 469 1054 z "},"Ĉ":{"ha":781,"x_min":67,"x_max":729,"o":"m 475 -11 q 261 54 353 -11 q 118 233 170 118 q 67 500 67 349 q 119 767 67 652 q 262 946 170 882 q 477 1010 355 1010 q 610 983 541 1010 q 726 912 680 956 l 693 831 q 600 902 659 874 q 478 930 541 930 q 309 876 382 930 q 196 725 236 821 q 155 501 155 629 q 196 276 155 374 q 308 124 236 179 q 477 70 380 70 q 601 100 540 70 q 696 178 662 130 l 729 98 q 612 20 682 50 q 475 -11 541 -11 m 307 1054 l 262 1105 l 458 1253 l 487 1253 l 681 1105 l 636 1054 l 476 1185 l 469 1185 l 307 1054 z "},"Ċ":{"ha":781,"x_min":67,"x_max":729,"o":"m 475 -11 q 261 54 353 -11 q 118 233 170 118 q 67 500 67 349 q 119 767 67 652 q 262 946 170 882 q 477 1010 355 1010 q 610 983 541 1010 q 726 912 680 956 l 693 831 q 600 902 659 874 q 478 930 541 930 q 309 876 382 930 q 196 725 236 821 q 155 501 155 629 q 196 276 155 374 q 308 124 236 179 q 477 70 380 70 q 601 100 540 70 q 696 178 662 130 l 729 98 q 612 20 682 50 q 475 -11 541 -11 m 469 1075 q 415 1097 437 1075 q 393 1150 393 1118 q 415 1204 393 1182 q 469 1225 437 1225 q 522 1204 500 1225 q 544 1150 544 1182 q 522 1097 544 1118 q 469 1075 500 1075 z "},"D":{"ha":781,"x_min":94,"x_max":733,"o":"m 94 0 l 94 1000 l 342 1000 q 543 938 454 1000 q 682 765 631 876 q 733 509 733 654 q 683 243 733 358 q 545 64 632 129 q 346 0 457 0 l 94 0 m 183 81 l 346 81 q 499 135 431 81 q 605 286 566 189 q 644 509 644 382 q 605 723 644 631 q 499 867 566 815 q 346 919 431 919 l 183 919 l 183 81 z "},"Ǆ":{"ha":781,"x_min":54,"x_max":743,"o":"m 54 0 l 54 1000 l 176 1000 q 343 871 282 1000 q 405 509 405 743 q 345 134 405 268 q 183 0 286 0 l 54 0 m 130 75 l 175 75 q 287 189 244 75 q 329 509 329 303 q 287 814 329 705 q 175 924 244 924 l 130 924 l 130 75 m 421 0 l 421 26 l 653 922 l 653 924 l 439 924 l 439 1000 l 741 1000 l 741 970 l 512 78 l 512 75 l 739 75 l 739 0 l 421 0 m 584 1045 l 449 1194 l 494 1236 l 593 1117 l 597 1117 l 696 1236 l 743 1194 l 608 1045 l 584 1045 z "},"Ď":{"ha":781,"x_min":94,"x_max":733,"o":"m 94 0 l 94 1000 l 342 1000 q 543 938 454 1000 q 682 765 631 876 q 733 509 733 654 q 683 243 733 358 q 545 64 632 129 q 346 0 457 0 l 94 0 m 183 81 l 346 81 q 499 135 431 81 q 605 286 566 189 q 644 509 644 382 q 605 723 644 631 q 499 867 566 815 q 346 919 431 919 l 183 919 l 183 81 m 216 1246 l 378 1114 l 385 1114 l 546 1246 l 591 1194 l 397 1046 l 368 1046 l 171 1194 l 216 1246 z "},"Đ":{"ha":781,"x_min":14,"x_max":762,"o":"m 123 0 l 123 1000 l 371 1000 q 571 938 483 1000 q 711 765 660 876 q 762 509 762 654 q 711 243 762 358 q 573 64 661 129 q 375 0 486 0 l 123 0 m 212 81 l 375 81 q 528 135 460 81 q 634 286 595 189 q 673 509 673 382 q 634 723 673 631 q 528 867 595 815 q 375 919 460 919 l 212 919 l 212 81 m 14 479 l 14 549 l 342 549 l 342 479 l 14 479 z "},"Ḍ":{"ha":781,"x_min":94,"x_max":733,"o":"m 94 0 l 94 1000 l 342 1000 q 543 938 454 1000 q 682 765 631 876 q 733 509 733 654 q 683 243 733 358 q 545 64 632 129 q 346 0 457 0 l 94 0 m 183 81 l 346 81 q 499 135 431 81 q 605 286 566 189 q 644 509 644 382 q 605 723 644 631 q 499 867 566 815 q 346 919 431 919 l 183 919 l 183 81 m 382 -241 q 328 -220 350 -241 q 307 -166 307 -198 q 328 -113 307 -134 q 382 -91 350 -91 q 435 -113 414 -91 q 457 -166 457 -134 q 435 -220 457 -198 q 382 -241 414 -241 z "},"Ḏ":{"ha":781,"x_min":94,"x_max":733,"o":"m 94 0 l 94 1000 l 342 1000 q 543 938 454 1000 q 682 765 631 876 q 733 509 733 654 q 683 243 733 358 q 545 64 632 129 q 346 0 457 0 l 94 0 m 183 81 l 346 81 q 499 135 431 81 q 605 286 566 189 q 644 509 644 382 q 605 723 644 631 q 499 867 566 815 q 346 919 431 919 l 183 919 l 183 81 m 160 -264 l 160 -203 l 604 -203 l 604 -264 l 160 -264 z "},"ǅ":{"ha":781,"x_min":54,"x_max":747,"o":"m 54 0 l 54 1000 l 176 1000 q 343 871 282 1000 q 405 509 405 743 q 345 134 405 268 q 183 0 286 0 l 54 0 m 130 75 l 175 75 q 287 188 244 75 q 329 506 329 301 q 287 813 329 702 q 175 924 244 924 l 130 924 l 130 75 m 423 0 l 423 25 l 653 641 l 653 644 l 446 644 l 446 715 l 741 715 l 741 686 l 512 74 l 512 71 l 739 71 l 739 0 l 423 0 m 576 850 l 432 999 l 469 1040 l 587 916 l 591 916 l 707 1040 l 747 999 l 601 850 l 576 850 z "},"Ð":{"ha":781,"x_min":14,"x_max":762,"o":"m 123 0 l 123 1000 l 371 1000 q 571 938 483 1000 q 711 765 660 876 q 762 509 762 654 q 711 243 762 358 q 573 64 661 129 q 375 0 486 0 l 123 0 m 212 81 l 375 81 q 528 135 460 81 q 634 286 595 189 q 673 509 673 382 q 634 723 673 631 q 528 867 595 815 q 375 919 460 919 l 212 919 l 212 81 m 14 479 l 14 549 l 342 549 l 342 479 l 14 479 z "},"E":{"ha":781,"x_min":143,"x_max":677,"o":"m 143 0 l 143 1000 l 677 1000 l 677 919 l 231 919 l 231 551 l 611 551 l 611 470 l 231 470 l 231 81 l 677 81 l 677 0 l 143 0 z "},"É":{"ha":781,"x_min":143,"x_max":677,"o":"m 143 0 l 143 1000 l 677 1000 l 677 919 l 231 919 l 231 551 l 611 551 l 611 470 l 231 470 l 231 81 l 677 81 l 677 0 l 143 0 m 413 1054 l 370 1101 l 562 1293 l 609 1236 l 413 1054 z "},"Ĕ":{"ha":781,"x_min":143,"x_max":677,"o":"m 143 0 l 143 1000 l 677 1000 l 677 919 l 231 919 l 231 551 l 611 551 l 611 470 l 231 470 l 231 81 l 677 81 l 677 0 l 143 0 m 413 1057 q 312 1079 357 1057 q 239 1141 266 1101 q 212 1232 212 1180 l 272 1232 q 313 1148 272 1179 q 413 1118 354 1118 q 515 1148 474 1118 q 556 1232 556 1179 l 616 1232 q 591 1141 618 1180 q 517 1079 564 1101 q 413 1057 471 1057 z "},"Ě":{"ha":781,"x_min":143,"x_max":677,"o":"m 143 0 l 143 1000 l 677 1000 l 677 919 l 231 919 l 231 551 l 611 551 l 611 470 l 231 470 l 231 81 l 677 81 l 677 0 l 143 0 m 248 1246 l 410 1114 l 417 1114 l 578 1246 l 623 1194 l 429 1046 l 399 1046 l 203 1194 l 248 1246 z "},"Ḝ":{"ha":781,"x_min":143,"x_max":677,"o":"m 143 0 l 143 1000 l 677 1000 l 677 919 l 231 919 l 231 551 l 611 551 l 611 470 l 231 470 l 231 81 l 677 81 l 677 0 l 143 0 m 312 -306 l 312 -248 q 415 -235 378 -251 q 452 -182 452 -220 q 424 -138 452 -156 q 351 -120 396 -120 l 386 0 l 439 0 l 406 -110 l 395 -77 q 482 -116 452 -87 q 511 -188 511 -146 q 461 -275 511 -245 q 312 -306 410 -306 m 413 1057 q 312 1079 357 1057 q 239 1141 266 1101 q 212 1232 212 1180 l 272 1232 q 313 1148 272 1179 q 413 1118 354 1118 q 515 1148 474 1118 q 556 1232 556 1179 l 616 1232 q 591 1141 618 1180 q 517 1079 564 1101 q 413 1057 471 1057 z "},"Ê":{"ha":781,"x_min":143,"x_max":677,"o":"m 143 0 l 143 1000 l 677 1000 l 677 919 l 231 919 l 231 551 l 611 551 l 611 470 l 231 470 l 231 81 l 677 81 l 677 0 l 143 0 m 251 1054 l 206 1105 l 403 1253 l 431 1253 l 625 1105 l 581 1054 l 420 1185 l 413 1185 l 251 1054 z "},"Ế":{"ha":781,"x_min":143,"x_max":774,"o":"m 143 0 l 143 1000 l 677 1000 l 677 919 l 231 919 l 231 551 l 611 551 l 611 470 l 231 470 l 231 81 l 677 81 l 677 0 l 143 0 m 590 1191 l 545 1229 l 724 1417 l 774 1358 l 590 1191 m 248 1046 l 203 1094 l 399 1246 l 428 1246 l 622 1094 l 577 1046 l 417 1174 l 410 1174 l 248 1046 z "},"Ệ":{"ha":781,"x_min":143,"x_max":677,"o":"m 143 0 l 143 1000 l 677 1000 l 677 919 l 231 919 l 231 551 l 611 551 l 611 470 l 231 470 l 231 81 l 677 81 l 677 0 l 143 0 m 418 -241 q 365 -220 387 -241 q 343 -166 343 -198 q 365 -113 343 -134 q 418 -91 387 -91 q 472 -113 450 -91 q 494 -166 494 -134 q 472 -220 494 -198 q 418 -241 450 -241 m 258 1054 l 213 1105 l 410 1253 l 438 1253 l 632 1105 l 587 1054 l 427 1185 l 420 1185 l 258 1054 z "},"Ề":{"ha":781,"x_min":52,"x_max":677,"o":"m 143 0 l 143 1000 l 677 1000 l 677 919 l 231 919 l 231 551 l 611 551 l 611 470 l 231 470 l 231 81 l 677 81 l 677 0 l 143 0 m 236 1191 l 52 1358 l 101 1417 l 281 1229 l 236 1191 m 578 1046 l 416 1174 l 409 1174 l 249 1046 l 203 1094 l 398 1246 l 427 1246 l 623 1094 l 578 1046 z "},"Ể":{"ha":781,"x_min":143,"x_max":677,"o":"m 143 0 l 143 1000 l 677 1000 l 677 919 l 231 919 l 231 551 l 611 551 l 611 470 l 231 470 l 231 81 l 677 81 l 677 0 l 143 0 m 576 1187 l 534 1219 q 569 1260 554 1238 q 585 1303 585 1283 q 567 1344 585 1329 q 517 1359 549 1359 q 481 1355 501 1359 q 446 1344 461 1352 l 446 1406 q 483 1416 460 1412 q 526 1419 506 1419 q 613 1392 580 1419 q 647 1314 647 1365 q 635 1264 647 1289 q 608 1220 624 1240 q 576 1187 591 1200 m 246 1046 l 201 1094 l 398 1246 l 427 1246 l 621 1094 l 576 1046 l 416 1174 l 408 1174 l 246 1046 z "},"Ễ":{"ha":781,"x_min":143,"x_max":677,"o":"m 143 0 l 143 1000 l 677 1000 l 677 919 l 231 919 l 231 551 l 611 551 l 611 470 l 231 470 l 231 81 l 677 81 l 677 0 l 143 0 m 207 1282 q 240 1385 207 1348 q 326 1423 273 1423 q 381 1411 359 1423 q 420 1384 404 1400 q 454 1357 437 1369 q 492 1345 471 1345 q 536 1366 520 1345 q 551 1423 551 1386 l 615 1423 q 602 1349 616 1381 q 562 1299 588 1317 q 500 1282 535 1282 q 447 1294 469 1282 q 407 1322 425 1306 q 371 1350 389 1338 q 332 1362 353 1362 q 288 1343 306 1362 q 270 1282 271 1324 l 207 1282 m 246 1046 l 201 1094 l 398 1246 l 427 1246 l 621 1094 l 576 1046 l 416 1174 l 408 1174 l 246 1046 z "},"Ȅ":{"ha":781,"x_min":141,"x_max":677,"o":"m 143 0 l 143 1000 l 677 1000 l 677 919 l 231 919 l 231 551 l 611 551 l 611 470 l 231 470 l 231 81 l 677 81 l 677 0 l 143 0 m 283 1080 l 142 1295 l 208 1332 l 331 1103 l 283 1080 m 488 1080 l 353 1295 l 419 1332 l 540 1103 l 488 1080 z "},"Ë":{"ha":781,"x_min":143,"x_max":677,"o":"m 143 0 l 143 1000 l 677 1000 l 677 919 l 231 919 l 231 551 l 611 551 l 611 470 l 231 470 l 231 81 l 677 81 l 677 0 l 143 0 m 553 1078 q 502 1099 523 1078 q 481 1149 481 1120 q 502 1201 481 1181 q 553 1222 523 1222 q 605 1201 584 1222 q 626 1149 626 1181 q 605 1099 626 1120 q 553 1078 584 1078 m 277 1078 q 226 1099 248 1078 q 205 1149 205 1120 q 226 1201 205 1181 q 277 1222 248 1222 q 329 1201 309 1222 q 349 1149 349 1181 q 329 1099 349 1120 q 277 1078 309 1078 z "},"Ė":{"ha":781,"x_min":143,"x_max":677,"o":"m 143 0 l 143 1000 l 677 1000 l 677 919 l 231 919 l 231 551 l 611 551 l 611 470 l 231 470 l 231 81 l 677 81 l 677 0 l 143 0 m 413 1075 q 359 1097 381 1075 q 338 1150 338 1118 q 359 1204 338 1182 q 413 1225 381 1225 q 467 1204 445 1225 q 488 1150 488 1182 q 467 1097 488 1118 q 413 1075 445 1075 z "},"Ẹ":{"ha":781,"x_min":143,"x_max":677,"o":"m 143 0 l 143 1000 l 677 1000 l 677 919 l 231 919 l 231 551 l 611 551 l 611 470 l 231 470 l 231 81 l 677 81 l 677 0 l 143 0 m 420 -241 q 366 -220 388 -241 q 345 -166 345 -198 q 366 -113 345 -134 q 420 -91 388 -91 q 473 -113 452 -91 q 495 -166 495 -134 q 473 -220 495 -198 q 420 -241 452 -241 z "},"È":{"ha":781,"x_min":143,"x_max":677,"o":"m 143 0 l 143 1000 l 677 1000 l 677 919 l 231 919 l 231 551 l 611 551 l 611 470 l 231 470 l 231 81 l 677 81 l 677 0 l 143 0 m 413 1054 l 217 1236 l 264 1293 l 456 1101 l 413 1054 z "},"Ẻ":{"ha":781,"x_min":143,"x_max":677,"o":"m 143 0 l 143 1000 l 677 1000 l 677 919 l 231 919 l 231 551 l 611 551 l 611 470 l 231 470 l 231 81 l 677 81 l 677 0 l 143 0 m 431 1086 l 393 1128 q 436 1163 418 1141 q 454 1209 454 1185 q 436 1249 454 1235 q 386 1263 418 1263 q 349 1259 370 1263 q 313 1249 329 1255 l 313 1311 q 353 1321 330 1318 q 391 1324 376 1324 q 480 1296 448 1324 q 513 1218 513 1267 q 489 1140 513 1177 q 431 1086 465 1103 z "},"Ȇ":{"ha":781,"x_min":143,"x_max":677,"o":"m 143 0 l 143 1000 l 677 1000 l 677 919 l 231 919 l 231 551 l 611 551 l 611 470 l 231 470 l 231 81 l 677 81 l 677 0 l 143 0 m 412 1238 q 516 1216 469 1238 q 590 1154 563 1194 q 615 1063 617 1115 l 555 1063 q 514 1147 555 1117 q 412 1177 473 1177 q 312 1147 353 1177 q 271 1063 271 1117 l 210 1063 q 237 1154 210 1115 q 310 1216 264 1194 q 412 1238 356 1238 z "},"Ē":{"ha":781,"x_min":143,"x_max":677,"o":"m 143 0 l 143 1000 l 677 1000 l 677 919 l 231 919 l 231 551 l 611 551 l 611 470 l 231 470 l 231 81 l 677 81 l 677 0 l 143 0 m 179 1116 l 179 1183 l 646 1183 l 646 1116 l 179 1116 z "},"Ḗ":{"ha":781,"x_min":143,"x_max":677,"o":"m 143 0 l 143 1000 l 677 1000 l 677 919 l 231 919 l 231 551 l 611 551 l 611 470 l 231 470 l 231 81 l 677 81 l 677 0 l 143 0 m 179 1116 l 179 1183 l 646 1183 l 646 1116 l 179 1116 m 413 1238 l 370 1285 l 562 1476 l 609 1420 l 413 1238 z "},"Ḕ":{"ha":781,"x_min":143,"x_max":677,"o":"m 143 0 l 143 1000 l 677 1000 l 677 919 l 231 919 l 231 551 l 611 551 l 611 470 l 231 470 l 231 81 l 677 81 l 677 0 l 143 0 m 179 1116 l 179 1183 l 646 1183 l 646 1116 l 179 1116 m 413 1238 l 217 1420 l 264 1476 l 456 1285 l 413 1238 z "},"Ę":{"ha":781,"x_min":143,"x_max":699,"o":"m 143 0 l 143 1000 l 677 1000 l 677 919 l 231 919 l 231 551 l 611 551 l 611 470 l 231 470 l 231 81 l 677 81 l 677 0 l 143 0 m 608 -272 q 532 -241 562 -272 q 503 -163 503 -211 q 539 -66 503 -109 q 627 21 576 -24 l 677 0 q 625 -53 651 -28 q 581 -102 599 -77 q 564 -157 564 -127 q 581 -198 564 -183 q 622 -213 598 -213 q 666 -203 644 -213 q 699 -184 687 -194 l 699 -245 q 658 -264 685 -257 q 608 -272 631 -272 z "},"Ẽ":{"ha":781,"x_min":143,"x_max":677,"o":"m 143 0 l 143 1000 l 677 1000 l 677 919 l 231 919 l 231 551 l 611 551 l 611 470 l 231 470 l 231 81 l 677 81 l 677 0 l 143 0 m 208 1080 q 241 1187 208 1146 q 326 1228 274 1228 q 381 1215 359 1228 q 421 1184 404 1202 q 455 1154 439 1167 q 493 1141 472 1141 q 538 1167 522 1141 q 553 1228 553 1193 l 616 1228 q 585 1122 617 1164 q 497 1080 552 1080 q 444 1093 467 1080 q 404 1123 422 1106 q 368 1153 386 1140 q 328 1166 350 1166 q 287 1142 302 1166 q 271 1080 271 1119 l 208 1080 z "},"Ə":{"ha":781,"x_min":57,"x_max":730,"o":"m 378 -11 q 207 51 279 -11 q 96 221 134 113 q 57 465 57 328 l 57 531 l 679 531 l 679 450 l 142 450 q 169 261 142 348 q 249 122 197 175 q 378 70 302 70 q 485 102 437 70 q 569 191 534 134 q 624 327 604 248 q 643 500 643 406 q 609 719 643 622 q 512 873 575 817 q 361 930 450 930 q 239 901 298 930 q 148 831 180 873 l 114 912 q 231 984 163 958 q 366 1010 298 1010 q 517 971 450 1010 q 632 861 585 931 q 705 697 680 790 q 730 496 730 604 q 705 295 730 387 q 632 134 680 203 q 520 27 585 65 q 378 -11 456 -11 z "},"F":{"ha":781,"x_min":159,"x_max":711,"o":"m 159 0 l 159 1000 l 711 1000 l 711 919 l 248 919 l 248 543 l 652 543 l 652 461 l 248 461 l 248 0 l 159 0 z "},"G":{"ha":781,"x_min":50,"x_max":713,"o":"m 443 -11 q 238 54 327 -11 q 100 233 150 118 q 50 497 50 347 q 102 767 50 651 q 245 946 154 882 q 454 1010 336 1010 q 592 984 524 1010 q 710 912 661 957 l 676 831 q 585 902 643 873 q 460 930 526 930 q 292 876 365 930 q 179 724 220 821 q 139 498 139 627 q 178 275 139 372 q 288 124 218 179 q 450 70 357 70 q 565 100 516 70 q 637 174 613 130 l 625 143 l 625 450 l 389 450 l 389 531 l 713 531 l 713 125 q 600 27 673 64 q 443 -11 526 -11 z "},"Ğ":{"ha":781,"x_min":50,"x_max":713,"o":"m 443 -11 q 238 54 327 -11 q 100 233 150 118 q 50 497 50 347 q 102 767 50 651 q 245 946 154 882 q 454 1010 336 1010 q 592 984 524 1010 q 710 912 661 957 l 676 831 q 585 902 643 873 q 460 930 526 930 q 292 876 365 930 q 179 724 220 821 q 139 498 139 627 q 178 275 139 372 q 288 124 218 179 q 450 70 357 70 q 565 100 516 70 q 637 174 613 130 l 625 143 l 625 450 l 389 450 l 389 531 l 713 531 l 713 125 q 600 27 673 64 q 443 -11 526 -11 m 427 1057 q 325 1079 371 1057 q 252 1141 279 1101 q 225 1232 225 1180 l 286 1232 q 327 1148 286 1179 q 427 1118 368 1118 q 529 1148 488 1118 q 570 1232 570 1179 l 630 1232 q 605 1141 632 1180 q 531 1079 578 1101 q 427 1057 484 1057 z "},"Ǧ":{"ha":781,"x_min":50,"x_max":713,"o":"m 443 -11 q 238 54 327 -11 q 100 233 150 118 q 50 497 50 347 q 102 767 50 651 q 245 946 154 882 q 454 1010 336 1010 q 592 984 524 1010 q 710 912 661 957 l 676 831 q 585 902 643 873 q 460 930 526 930 q 292 876 365 930 q 179 724 220 821 q 139 498 139 627 q 178 275 139 372 q 288 124 218 179 q 450 70 357 70 q 565 100 516 70 q 637 174 613 130 l 625 143 l 625 450 l 389 450 l 389 531 l 713 531 l 713 125 q 600 27 673 64 q 443 -11 526 -11 m 261 1246 l 424 1114 l 431 1114 l 591 1246 l 636 1194 l 442 1046 l 413 1046 l 216 1194 l 261 1246 z "},"Ĝ":{"ha":781,"x_min":50,"x_max":713,"o":"m 443 -11 q 238 54 327 -11 q 100 233 150 118 q 50 497 50 347 q 102 767 50 651 q 245 946 154 882 q 454 1010 336 1010 q 592 984 524 1010 q 710 912 661 957 l 676 831 q 585 902 643 873 q 460 930 526 930 q 292 876 365 930 q 179 724 220 821 q 139 498 139 627 q 178 275 139 372 q 288 124 218 179 q 450 70 357 70 q 565 100 516 70 q 637 174 613 130 l 625 143 l 625 450 l 389 450 l 389 531 l 713 531 l 713 125 q 600 27 673 64 q 443 -11 526 -11 m 264 1054 l 220 1105 l 416 1253 l 445 1253 l 639 1105 l 594 1054 l 434 1185 l 427 1185 l 264 1054 z "},"Ģ":{"ha":781,"x_min":50,"x_max":713,"o":"m 443 -11 q 238 54 327 -11 q 100 233 150 118 q 50 497 50 347 q 102 767 50 651 q 245 946 154 882 q 454 1010 336 1010 q 592 984 524 1010 q 710 912 661 957 l 676 831 q 585 902 643 873 q 460 930 526 930 q 292 876 365 930 q 179 724 220 821 q 139 498 139 627 q 178 275 139 372 q 288 124 218 179 q 450 70 357 70 q 565 100 516 70 q 637 174 613 130 l 625 143 l 625 450 l 389 450 l 389 531 l 713 531 l 713 125 q 600 27 673 64 q 443 -11 526 -11 m 390 -355 l 361 -324 l 410 -270 q 436 -239 427 -252 q 451 -214 446 -225 q 454 -191 455 -202 l 473 -188 q 461 -210 469 -201 q 438 -220 454 -220 q 399 -202 418 -220 q 380 -158 380 -185 q 398 -114 380 -130 q 438 -97 416 -97 q 482 -116 465 -97 q 498 -169 498 -136 q 488 -220 498 -195 q 465 -263 478 -244 q 442 -292 451 -282 l 390 -355 z "},"Ġ":{"ha":781,"x_min":50,"x_max":713,"o":"m 443 -11 q 238 54 327 -11 q 100 233 150 118 q 50 497 50 347 q 102 767 50 651 q 245 946 154 882 q 454 1010 336 1010 q 592 984 524 1010 q 710 912 661 957 l 676 831 q 585 902 643 873 q 460 930 526 930 q 292 876 365 930 q 179 724 220 821 q 139 498 139 627 q 178 275 139 372 q 288 124 218 179 q 450 70 357 70 q 565 100 516 70 q 637 174 613 130 l 625 143 l 625 450 l 389 450 l 389 531 l 713 531 l 713 125 q 600 27 673 64 q 443 -11 526 -11 m 427 1075 q 373 1097 395 1075 q 351 1150 351 1118 q 373 1204 351 1182 q 427 1225 395 1225 q 480 1204 458 1225 q 502 1150 502 1182 q 480 1097 502 1118 q 427 1075 458 1075 z "},"Ḡ":{"ha":781,"x_min":50,"x_max":713,"o":"m 443 -11 q 238 54 327 -11 q 100 233 150 118 q 50 497 50 347 q 102 767 50 651 q 245 946 154 882 q 454 1010 336 1010 q 592 984 524 1010 q 710 912 661 957 l 676 831 q 585 902 643 873 q 460 930 526 930 q 292 876 365 930 q 179 724 220 821 q 139 498 139 627 q 178 275 139 372 q 288 124 218 179 q 450 70 357 70 q 565 100 516 70 q 637 174 613 130 l 625 143 l 625 450 l 389 450 l 389 531 l 713 531 l 713 125 q 600 27 673 64 q 443 -11 526 -11 m 193 1116 l 193 1183 l 660 1183 l 660 1116 l 193 1116 z "},"H":{"ha":781,"x_min":94,"x_max":687,"o":"m 94 0 l 94 1000 l 183 1000 l 183 553 l 598 553 l 598 1000 l 687 1000 l 687 0 l 598 0 l 598 471 l 183 471 l 183 0 l 94 0 z "},"Ħ":{"ha":781,"x_min":26,"x_max":743,"o":"m 26 717 l 26 783 l 743 783 l 743 717 l 26 717 m 94 0 l 94 1000 l 183 1000 l 183 553 l 598 553 l 598 1000 l 687 1000 l 687 0 l 598 0 l 598 471 l 183 471 l 183 0 l 94 0 z "},"Ḫ":{"ha":781,"x_min":94,"x_max":687,"o":"m 94 0 l 94 1000 l 183 1000 l 183 553 l 598 553 l 598 1000 l 687 1000 l 687 0 l 598 0 l 598 471 l 183 471 l 183 0 l 94 0 m 389 -281 q 287 -254 333 -281 q 213 -182 240 -228 q 186 -80 186 -137 l 248 -80 q 289 -181 248 -140 q 389 -222 330 -222 q 490 -181 450 -222 q 531 -80 530 -140 l 593 -80 q 567 -182 594 -137 q 494 -254 540 -228 q 389 -281 448 -281 z "},"Ĥ":{"ha":781,"x_min":94,"x_max":687,"o":"m 94 0 l 94 1000 l 183 1000 l 183 553 l 598 553 l 598 1000 l 687 1000 l 687 0 l 598 0 l 598 471 l 183 471 l 183 0 l 94 0 m 228 1054 l 183 1105 l 380 1253 l 408 1253 l 602 1105 l 557 1054 l 397 1185 l 390 1185 l 228 1054 z "},"Ḥ":{"ha":781,"x_min":94,"x_max":687,"o":"m 94 0 l 94 1000 l 183 1000 l 183 553 l 598 553 l 598 1000 l 687 1000 l 687 0 l 598 0 l 598 471 l 183 471 l 183 0 l 94 0 m 390 -241 q 336 -220 358 -241 q 315 -166 315 -198 q 336 -113 315 -134 q 390 -91 358 -91 q 444 -113 422 -91 q 465 -166 465 -134 q 444 -220 465 -198 q 390 -241 422 -241 z "},"I":{"ha":781,"x_min":123,"x_max":658,"o":"m 347 0 l 347 1000 l 435 1000 l 435 0 l 347 0 m 123 0 l 123 79 l 658 79 l 658 0 l 123 0 m 123 921 l 123 1000 l 658 1000 l 658 921 l 123 921 z "},"Í":{"ha":781,"x_min":123,"x_max":658,"o":"m 347 0 l 347 1000 l 435 1000 l 435 0 l 347 0 m 123 0 l 123 79 l 658 79 l 658 0 l 123 0 m 123 921 l 123 1000 l 658 1000 l 658 921 l 123 921 m 388 1054 l 345 1101 l 537 1293 l 584 1236 l 388 1054 z "},"Ĭ":{"ha":781,"x_min":123,"x_max":658,"o":"m 347 0 l 347 1000 l 435 1000 l 435 0 l 347 0 m 123 0 l 123 79 l 658 79 l 658 0 l 123 0 m 123 921 l 123 1000 l 658 1000 l 658 921 l 123 921 m 388 1057 q 287 1079 332 1057 q 214 1141 241 1101 q 186 1232 186 1180 l 247 1232 q 288 1148 247 1179 q 388 1118 329 1118 q 490 1148 449 1118 q 531 1232 531 1179 l 591 1232 q 566 1141 593 1180 q 492 1079 539 1101 q 388 1057 446 1057 z "},"Ǐ":{"ha":781,"x_min":123,"x_max":658,"o":"m 347 0 l 347 1000 l 435 1000 l 435 0 l 347 0 m 123 0 l 123 79 l 658 79 l 658 0 l 123 0 m 123 921 l 123 1000 l 658 1000 l 658 921 l 123 921 m 223 1246 l 385 1114 l 393 1114 l 553 1246 l 598 1194 l 404 1046 l 375 1046 l 178 1194 l 223 1246 z "},"Î":{"ha":781,"x_min":123,"x_max":658,"o":"m 347 0 l 347 1000 l 435 1000 l 435 0 l 347 0 m 123 0 l 123 79 l 658 79 l 658 0 l 123 0 m 123 921 l 123 1000 l 658 1000 l 658 921 l 123 921 m 226 1054 l 181 1105 l 378 1253 l 406 1253 l 600 1105 l 555 1054 l 395 1185 l 388 1185 l 226 1054 z "},"Ȉ":{"ha":781,"x_min":117,"x_max":658,"o":"m 347 0 l 347 1000 l 435 1000 l 435 0 l 347 0 m 123 0 l 123 79 l 658 79 l 658 0 l 123 0 m 123 921 l 123 1000 l 658 1000 l 658 921 l 123 921 m 258 1080 l 117 1295 l 183 1332 l 306 1103 l 258 1080 m 463 1080 l 328 1295 l 394 1332 l 515 1103 l 463 1080 z "},"Ï":{"ha":781,"x_min":123,"x_max":658,"o":"m 347 0 l 347 1000 l 435 1000 l 435 0 l 347 0 m 123 0 l 123 79 l 658 79 l 658 0 l 123 0 m 123 921 l 123 1000 l 658 1000 l 658 921 l 123 921 m 528 1078 q 477 1099 498 1078 q 456 1149 456 1120 q 477 1201 456 1181 q 528 1222 498 1222 q 580 1201 559 1222 q 601 1149 601 1181 q 580 1099 601 1120 q 528 1078 559 1078 m 252 1078 q 201 1099 222 1078 q 180 1149 180 1120 q 201 1201 180 1181 q 252 1222 222 1222 q 304 1201 283 1222 q 324 1149 324 1181 q 304 1099 324 1120 q 252 1078 283 1078 z "},"Ḯ":{"ha":781,"x_min":123,"x_max":658,"o":"m 347 0 l 347 1000 l 435 1000 l 435 0 l 347 0 m 123 0 l 123 79 l 658 79 l 658 0 l 123 0 m 123 921 l 123 1000 l 658 1000 l 658 921 l 123 921 m 528 1078 q 477 1099 498 1078 q 456 1149 456 1120 q 477 1201 456 1181 q 528 1222 498 1222 q 580 1201 559 1222 q 601 1149 601 1181 q 580 1099 601 1120 q 528 1078 559 1078 m 252 1078 q 201 1099 222 1078 q 180 1149 180 1120 q 201 1201 180 1181 q 252 1222 222 1222 q 304 1201 283 1222 q 324 1149 324 1181 q 304 1099 324 1120 q 252 1078 283 1078 m 388 1227 l 345 1274 l 537 1466 l 584 1409 l 388 1227 z "},"İ":{"ha":781,"x_min":123,"x_max":658,"o":"m 347 0 l 347 1000 l 435 1000 l 435 0 l 347 0 m 123 0 l 123 79 l 658 79 l 658 0 l 123 0 m 123 921 l 123 1000 l 658 1000 l 658 921 l 123 921 m 388 1075 q 334 1097 356 1075 q 313 1150 313 1118 q 334 1204 313 1182 q 388 1225 356 1225 q 441 1204 420 1225 q 463 1150 463 1182 q 441 1097 463 1118 q 388 1075 420 1075 z "},"Ị":{"ha":781,"x_min":123,"x_max":658,"o":"m 347 0 l 347 1000 l 435 1000 l 435 0 l 347 0 m 123 0 l 123 79 l 658 79 l 658 0 l 123 0 m 123 921 l 123 1000 l 658 1000 l 658 921 l 123 921 m 388 -241 q 334 -220 356 -241 q 313 -166 313 -198 q 334 -113 313 -134 q 388 -91 356 -91 q 441 -113 420 -91 q 463 -166 463 -134 q 441 -220 463 -198 q 388 -241 420 -241 z "},"Ì":{"ha":781,"x_min":123,"x_max":658,"o":"m 347 0 l 347 1000 l 435 1000 l 435 0 l 347 0 m 123 0 l 123 79 l 658 79 l 658 0 l 123 0 m 123 921 l 123 1000 l 658 1000 l 658 921 l 123 921 m 388 1054 l 192 1236 l 239 1293 l 431 1101 l 388 1054 z "},"Ỉ":{"ha":781,"x_min":123,"x_max":658,"o":"m 347 0 l 347 1000 l 435 1000 l 435 0 l 347 0 m 123 0 l 123 79 l 658 79 l 658 0 l 123 0 m 123 921 l 123 1000 l 658 1000 l 658 921 l 123 921 m 406 1086 l 368 1128 q 411 1163 393 1141 q 429 1209 429 1185 q 411 1249 429 1235 q 361 1263 393 1263 q 324 1259 345 1263 q 288 1249 304 1255 l 288 1311 q 328 1321 304 1318 q 366 1324 351 1324 q 455 1296 423 1324 q 488 1218 488 1267 q 464 1140 488 1177 q 406 1086 440 1103 z "},"Ȋ":{"ha":781,"x_min":123,"x_max":658,"o":"m 347 0 l 347 1000 l 435 1000 l 435 0 l 347 0 m 123 0 l 123 79 l 658 79 l 658 0 l 123 0 m 123 921 l 123 1000 l 658 1000 l 658 921 l 123 921 m 387 1238 q 491 1216 444 1238 q 565 1154 538 1194 q 591 1063 592 1115 l 530 1063 q 489 1147 530 1117 q 387 1177 448 1177 q 287 1147 328 1177 q 245 1063 245 1117 l 185 1063 q 212 1154 185 1115 q 286 1216 239 1194 q 387 1238 332 1238 z "},"Ī":{"ha":781,"x_min":123,"x_max":658,"o":"m 347 0 l 347 1000 l 435 1000 l 435 0 l 347 0 m 123 0 l 123 79 l 658 79 l 658 0 l 123 0 m 123 921 l 123 1000 l 658 1000 l 658 921 l 123 921 m 181 1116 l 181 1183 l 595 1183 l 595 1116 l 181 1116 z "},"Į":{"ha":781,"x_min":123,"x_max":680,"o":"m 347 0 l 347 1000 l 435 1000 l 435 0 l 347 0 m 123 0 l 123 79 l 658 79 l 658 0 l 123 0 m 123 921 l 123 1000 l 658 1000 l 658 921 l 123 921 m 589 -272 q 513 -241 543 -272 q 484 -163 484 -211 q 520 -66 484 -109 q 608 21 557 -24 l 658 0 q 606 -53 632 -28 q 562 -102 580 -77 q 545 -157 545 -127 q 562 -198 545 -183 q 603 -213 579 -213 q 647 -203 625 -213 q 680 -184 668 -194 l 680 -245 q 639 -264 666 -257 q 589 -272 612 -272 z "},"Ĩ":{"ha":781,"x_min":123,"x_max":658,"o":"m 347 0 l 347 1000 l 435 1000 l 435 0 l 347 0 m 123 0 l 123 79 l 658 79 l 658 0 l 123 0 m 123 921 l 123 1000 l 658 1000 l 658 921 l 123 921 m 182 1080 q 216 1187 183 1146 q 300 1228 249 1228 q 356 1215 334 1228 q 396 1184 379 1202 q 430 1154 414 1167 q 468 1141 447 1141 q 513 1167 497 1141 q 528 1228 528 1193 l 591 1228 q 559 1122 592 1164 q 472 1080 527 1080 q 419 1093 441 1080 q 379 1123 397 1106 q 343 1153 361 1140 q 303 1166 325 1166 q 261 1142 277 1166 q 246 1080 246 1119 l 182 1080 z "},"J":{"ha":781,"x_min":48,"x_max":608,"o":"m 324 -11 q 179 24 241 -11 q 84 119 118 58 q 48 258 50 180 l 134 258 q 187 122 136 174 q 323 70 238 70 q 421 93 376 70 q 492 167 466 117 q 519 296 519 217 l 519 1000 l 608 1000 l 608 299 q 570 125 608 194 q 468 23 532 57 q 324 -11 404 -11 z "},"Ĵ":{"ha":781,"x_min":48,"x_max":767,"o":"m 324 -11 q 179 24 241 -11 q 84 119 118 58 q 48 258 50 180 l 134 258 q 187 122 136 174 q 323 70 238 70 q 421 93 376 70 q 492 167 466 117 q 519 296 519 217 l 519 1000 l 608 1000 l 608 299 q 570 125 608 194 q 468 23 532 57 q 324 -11 404 -11 m 392 1054 l 347 1105 l 544 1253 l 572 1253 l 766 1105 l 722 1054 l 562 1185 l 554 1185 l 392 1054 z "},"K":{"ha":781,"x_min":120,"x_max":747,"o":"m 120 0 l 120 1000 l 208 1000 l 208 529 l 238 529 l 198 508 l 607 1000 l 720 1000 l 281 476 l 281 524 l 747 0 l 632 0 l 198 491 l 238 471 l 208 471 l 208 0 l 120 0 z "},"Ķ":{"ha":781,"x_min":120,"x_max":747,"o":"m 120 0 l 120 1000 l 208 1000 l 208 529 l 238 529 l 198 508 l 607 1000 l 720 1000 l 281 476 l 281 524 l 747 0 l 632 0 l 198 491 l 238 471 l 208 471 l 208 0 l 120 0 m 368 -355 l 339 -324 l 388 -270 q 414 -239 404 -252 q 428 -214 424 -225 q 431 -191 433 -202 l 451 -188 q 439 -210 447 -201 q 416 -220 431 -220 q 376 -202 395 -220 q 357 -158 357 -185 q 376 -114 357 -130 q 416 -97 394 -97 q 459 -116 443 -97 q 476 -169 476 -136 q 466 -220 476 -195 q 442 -263 456 -244 q 420 -292 429 -282 l 368 -355 z "},"L":{"ha":781,"x_min":161,"x_max":707,"o":"m 161 0 l 161 1000 l 249 1000 l 249 81 l 707 81 l 707 0 l 161 0 z "},"Ǉ":{"ha":781,"x_min":73,"x_max":722,"o":"m 554 -11 q 430 57 473 -11 q 387 255 387 125 l 463 255 q 486 113 463 162 q 553 64 509 64 q 623 116 599 64 q 646 267 646 168 l 646 1000 l 722 1000 l 722 269 q 679 61 722 133 q 554 -11 636 -11 m 73 0 l 73 1000 l 149 1000 l 149 75 l 343 75 l 343 0 l 73 0 z "},"Ĺ":{"ha":781,"x_min":161,"x_max":707,"o":"m 161 0 l 161 1000 l 249 1000 l 249 81 l 707 81 l 707 0 l 161 0 m 206 1054 l 163 1101 l 355 1293 l 402 1236 l 206 1054 z "},"Ľ":{"ha":781,"x_min":161,"x_max":707,"o":"m 161 0 l 161 1000 l 249 1000 l 249 81 l 707 81 l 707 0 l 161 0 m 616 707 l 618 1000 l 688 1000 l 677 707 l 616 707 z "},"Ļ":{"ha":781,"x_min":161,"x_max":707,"o":"m 161 0 l 161 1000 l 249 1000 l 249 81 l 707 81 l 707 0 l 161 0 m 410 -355 l 382 -324 l 431 -270 q 457 -239 447 -252 q 471 -214 467 -225 q 474 -191 475 -202 l 494 -188 q 482 -210 490 -201 q 458 -220 474 -220 q 419 -202 438 -220 q 400 -158 400 -185 q 418 -114 400 -130 q 458 -97 437 -97 q 502 -116 486 -97 q 519 -169 519 -136 q 509 -220 519 -195 q 485 -263 498 -244 q 463 -292 471 -282 l 410 -355 z "},"Ŀ":{"ha":781,"x_min":161,"x_max":707,"o":"m 161 0 l 161 1000 l 249 1000 l 249 81 l 707 81 l 707 0 l 161 0 m 595 437 q 535 461 560 437 q 509 524 509 486 q 534 584 509 559 q 595 608 559 608 q 657 584 632 608 q 682 524 682 559 q 657 461 682 486 q 595 437 632 437 z "},"Ḷ":{"ha":781,"x_min":161,"x_max":707,"o":"m 161 0 l 161 1000 l 249 1000 l 249 81 l 707 81 l 707 0 l 161 0 m 450 -241 q 396 -220 418 -241 q 374 -166 374 -198 q 396 -113 374 -134 q 450 -91 418 -91 q 503 -113 481 -91 q 525 -166 525 -134 q 503 -220 525 -198 q 450 -241 481 -241 z "},"ǈ":{"ha":781,"x_min":100,"x_max":691,"o":"m 477 -296 q 386 -279 433 -296 q 309 -239 338 -263 l 337 -172 q 403 -209 365 -195 q 474 -223 441 -223 q 554 -190 522 -223 q 586 -96 586 -157 l 586 715 l 658 715 l 658 -100 q 634 -205 658 -161 q 569 -272 610 -249 q 477 -296 528 -296 m 100 0 l 100 1000 l 176 1000 l 176 75 l 404 75 l 404 0 l 100 0 m 409 646 l 409 715 l 658 715 l 658 646 l 409 646 m 618 844 q 567 865 587 844 q 546 917 546 886 q 567 969 546 949 q 618 990 588 990 q 671 969 650 990 q 691 917 691 949 q 671 865 691 886 q 618 844 650 844 z "},"Ḻ":{"ha":781,"x_min":161,"x_max":707,"o":"m 161 0 l 161 1000 l 249 1000 l 249 81 l 707 81 l 707 0 l 161 0 m 228 -264 l 228 -203 l 671 -203 l 671 -264 l 228 -264 z "},"Ł":{"ha":781,"x_min":39,"x_max":707,"o":"m 66 390 l 39 454 l 177 532 l 235 555 l 348 619 l 375 556 l 235 477 l 177 455 l 66 390 m 161 0 l 161 1000 l 249 1000 l 249 81 l 707 81 l 707 0 l 161 0 z "},"M":{"ha":781,"x_min":75,"x_max":705,"o":"m 75 0 l 75 1000 l 146 1000 l 387 475 l 393 475 l 633 1000 l 705 1000 l 705 0 l 618 0 l 618 616 l 621 791 l 615 791 l 406 332 l 374 332 l 165 791 l 160 791 l 161 616 l 161 0 l 75 0 z "},"Ṃ":{"ha":781,"x_min":75,"x_max":705,"o":"m 75 0 l 75 1000 l 146 1000 l 387 475 l 393 475 l 633 1000 l 705 1000 l 705 0 l 618 0 l 618 616 l 621 791 l 615 791 l 406 332 l 374 332 l 165 791 l 160 791 l 161 616 l 161 0 l 75 0 m 389 -241 q 335 -220 357 -241 q 313 -166 313 -198 q 335 -113 313 -134 q 389 -91 357 -91 q 442 -113 420 -91 q 464 -166 464 -134 q 442 -220 464 -198 q 389 -241 420 -241 z "},"N":{"ha":781,"x_min":94,"x_max":687,"o":"m 94 0 l 94 1000 l 163 1000 l 519 347 l 597 205 l 602 205 l 600 425 l 600 1000 l 687 1000 l 687 0 l 619 0 l 262 656 l 184 798 l 180 798 l 181 584 l 181 0 l 94 0 z "},"Ǌ":{"ha":781,"x_min":34,"x_max":747,"o":"m 34 0 l 34 1000 l 91 1000 l 264 412 l 300 283 l 302 283 l 298 439 l 298 1000 l 374 1000 l 374 0 l 319 0 l 143 593 l 109 721 l 106 721 l 110 568 l 110 0 l 34 0 m 589 -11 q 471 56 513 -11 q 428 255 429 123 l 504 255 q 527 114 505 163 q 589 66 549 66 q 652 117 632 66 q 671 267 671 169 l 671 1000 l 747 1000 l 747 269 q 709 61 747 133 q 589 -11 670 -11 z "},"Ń":{"ha":781,"x_min":94,"x_max":687,"o":"m 94 0 l 94 1000 l 163 1000 l 519 347 l 597 205 l 602 205 l 600 425 l 600 1000 l 687 1000 l 687 0 l 619 0 l 262 656 l 184 798 l 180 798 l 181 584 l 181 0 l 94 0 m 391 1054 l 347 1101 l 540 1293 l 587 1236 l 391 1054 z "},"Ň":{"ha":781,"x_min":94,"x_max":687,"o":"m 94 0 l 94 1000 l 163 1000 l 519 347 l 597 205 l 602 205 l 600 425 l 600 1000 l 687 1000 l 687 0 l 619 0 l 262 656 l 184 798 l 180 798 l 181 584 l 181 0 l 94 0 m 226 1246 l 388 1114 l 395 1114 l 555 1246 l 600 1194 l 406 1046 l 378 1046 l 181 1194 l 226 1246 z "},"Ņ":{"ha":781,"x_min":94,"x_max":687,"o":"m 94 0 l 94 1000 l 163 1000 l 519 347 l 597 205 l 602 205 l 600 425 l 600 1000 l 687 1000 l 687 0 l 619 0 l 262 656 l 184 798 l 180 798 l 181 584 l 181 0 l 94 0 m 347 -355 l 318 -324 l 367 -270 q 393 -239 383 -252 q 407 -214 403 -225 q 410 -191 412 -202 l 430 -188 q 418 -210 426 -201 q 395 -220 410 -220 q 355 -202 374 -220 q 336 -158 336 -185 q 355 -114 336 -130 q 395 -97 373 -97 q 438 -116 422 -97 q 455 -169 455 -136 q 445 -220 455 -195 q 421 -263 435 -244 q 399 -292 408 -282 l 347 -355 z "},"Ṅ":{"ha":781,"x_min":94,"x_max":687,"o":"m 94 0 l 94 1000 l 163 1000 l 519 347 l 597 205 l 602 205 l 600 425 l 600 1000 l 687 1000 l 687 0 l 619 0 l 262 656 l 184 798 l 180 798 l 181 584 l 181 0 l 94 0 m 391 1075 q 337 1097 359 1075 q 315 1150 315 1118 q 337 1204 315 1182 q 391 1225 359 1225 q 444 1204 422 1225 q 466 1150 466 1182 q 444 1097 466 1118 q 391 1075 422 1075 z "},"Ṇ":{"ha":781,"x_min":94,"x_max":687,"o":"m 94 0 l 94 1000 l 163 1000 l 519 347 l 597 205 l 602 205 l 600 425 l 600 1000 l 687 1000 l 687 0 l 619 0 l 262 656 l 184 798 l 180 798 l 181 584 l 181 0 l 94 0 m 386 -241 q 332 -220 354 -241 q 311 -166 311 -198 q 332 -113 311 -134 q 386 -91 354 -91 q 439 -113 418 -91 q 461 -166 461 -134 q 439 -220 461 -198 q 386 -241 418 -241 z "},"ǋ":{"ha":781,"x_min":85,"x_max":718,"o":"m 85 0 l 85 1000 l 151 1000 l 349 399 l 398 241 l 401 241 l 398 428 l 398 1000 l 473 1000 l 473 0 l 410 0 l 210 604 l 160 762 l 157 762 l 159 580 l 159 0 l 85 0 m 505 -296 q 417 -279 463 -296 q 342 -239 370 -263 l 369 -172 q 434 -209 396 -195 q 502 -224 471 -224 q 579 -190 549 -224 q 610 -96 610 -157 l 610 715 l 682 715 l 682 -100 q 658 -205 682 -161 q 595 -272 635 -249 q 505 -296 555 -296 m 648 847 q 596 868 617 847 q 576 920 576 889 q 596 972 576 952 q 648 993 617 993 q 698 972 677 993 q 718 920 718 952 q 699 868 718 889 q 648 847 679 847 z "},"Ṉ":{"ha":781,"x_min":94,"x_max":687,"o":"m 94 0 l 94 1000 l 163 1000 l 519 347 l 597 205 l 602 205 l 600 425 l 600 1000 l 687 1000 l 687 0 l 619 0 l 262 656 l 184 798 l 180 798 l 181 584 l 181 0 l 94 0 m 164 -264 l 164 -203 l 608 -203 l 608 -264 l 164 -264 z "},"Ñ":{"ha":781,"x_min":94,"x_max":687,"o":"m 94 0 l 94 1000 l 163 1000 l 519 347 l 597 205 l 602 205 l 600 425 l 600 1000 l 687 1000 l 687 0 l 619 0 l 262 656 l 184 798 l 180 798 l 181 584 l 181 0 l 94 0 m 185 1080 q 219 1187 186 1146 q 303 1228 252 1228 q 359 1215 336 1228 q 399 1184 382 1202 q 433 1154 416 1167 q 471 1141 450 1141 q 515 1167 500 1141 q 531 1228 531 1193 l 593 1228 q 562 1122 595 1164 q 475 1080 530 1080 q 422 1093 444 1080 q 381 1123 399 1106 q 346 1153 363 1140 q 306 1166 328 1166 q 264 1142 279 1166 q 249 1080 249 1119 l 185 1080 z "},"Ŋ":{"ha":781,"x_min":94,"x_max":687,"o":"m 94 0 l 94 1000 l 163 1000 l 519 347 l 597 205 l 602 205 l 600 425 l 600 1000 l 687 1000 l 687 0 l 619 0 l 262 656 l 184 798 l 180 798 l 181 584 l 181 0 l 94 0 m 521 -298 q 474 -293 500 -298 q 428 -276 447 -287 l 428 -197 q 471 -216 451 -211 q 510 -222 491 -220 q 563 -203 543 -223 q 592 -151 583 -182 q 601 -85 601 -119 l 601 64 l 686 64 l 686 -77 q 667 -194 686 -144 q 611 -271 648 -243 q 521 -298 574 -298 z "},"O":{"ha":781,"x_min":48,"x_max":733,"o":"m 389 -11 q 208 52 284 -11 q 90 230 131 115 q 48 500 48 345 q 90 770 48 656 q 208 948 131 885 q 389 1010 284 1010 q 572 948 494 1010 q 691 770 649 885 q 733 500 733 656 q 691 230 733 345 q 572 52 649 115 q 389 -11 494 -11 m 389 70 q 526 123 469 70 q 614 272 584 176 q 644 500 645 369 q 613 729 644 633 q 525 877 582 825 q 389 930 467 930 q 254 877 311 930 q 167 727 197 823 q 137 500 137 630 q 167 274 137 370 q 254 123 197 177 q 389 70 311 70 z "},"Ó":{"ha":781,"x_min":48,"x_max":733,"o":"m 389 -11 q 208 52 284 -11 q 90 230 131 115 q 48 500 48 345 q 90 770 48 656 q 208 948 131 885 q 389 1010 284 1010 q 572 948 494 1010 q 691 770 649 885 q 733 500 733 656 q 691 230 733 345 q 572 52 649 115 q 389 -11 494 -11 m 389 70 q 526 123 469 70 q 614 272 584 176 q 644 500 645 369 q 613 729 644 633 q 525 877 582 825 q 389 930 467 930 q 254 877 311 930 q 167 727 197 823 q 137 500 137 630 q 167 274 137 370 q 254 123 197 177 q 389 70 311 70 m 389 1054 l 345 1101 l 538 1293 l 585 1236 l 389 1054 z "},"Ŏ":{"ha":781,"x_min":48,"x_max":733,"o":"m 389 -11 q 208 52 284 -11 q 90 230 131 115 q 48 500 48 345 q 90 770 48 656 q 208 948 131 885 q 389 1010 284 1010 q 572 948 494 1010 q 691 770 649 885 q 733 500 733 656 q 691 230 733 345 q 572 52 649 115 q 389 -11 494 -11 m 389 70 q 526 123 469 70 q 614 272 584 176 q 644 500 645 369 q 613 729 644 633 q 525 877 582 825 q 389 930 467 930 q 254 877 311 930 q 167 727 197 823 q 137 500 137 630 q 167 274 137 370 q 254 123 197 177 q 389 70 311 70 m 389 1057 q 287 1079 333 1057 q 214 1141 241 1101 q 187 1232 187 1180 l 248 1232 q 289 1148 248 1179 q 389 1118 330 1118 q 491 1148 450 1118 q 532 1232 532 1179 l 592 1232 q 567 1141 594 1180 q 493 1079 540 1101 q 389 1057 446 1057 z "},"Ô":{"ha":781,"x_min":48,"x_max":733,"o":"m 389 -11 q 208 52 284 -11 q 90 230 131 115 q 48 500 48 345 q 90 770 48 656 q 208 948 131 885 q 389 1010 284 1010 q 572 948 494 1010 q 691 770 649 885 q 733 500 733 656 q 691 230 733 345 q 572 52 649 115 q 389 -11 494 -11 m 389 70 q 526 123 469 70 q 614 272 584 176 q 644 500 645 369 q 613 729 644 633 q 525 877 582 825 q 389 930 467 930 q 254 877 311 930 q 167 727 197 823 q 137 500 137 630 q 167 274 137 370 q 254 123 197 177 q 389 70 311 70 m 227 1054 l 182 1105 l 378 1253 l 407 1253 l 601 1105 l 556 1054 l 396 1185 l 389 1185 l 227 1054 z "},"Ố":{"ha":781,"x_min":48,"x_max":750,"o":"m 389 -11 q 208 52 284 -11 q 90 230 131 115 q 48 500 48 345 q 90 770 48 656 q 208 948 131 885 q 389 1010 284 1010 q 572 948 494 1010 q 691 770 649 885 q 733 500 733 656 q 691 230 733 345 q 572 52 649 115 q 389 -11 494 -11 m 389 70 q 526 123 469 70 q 614 272 584 176 q 644 500 645 369 q 613 729 644 633 q 525 877 582 825 q 389 930 467 930 q 254 877 311 930 q 167 727 197 823 q 137 500 137 630 q 167 274 137 370 q 254 123 197 177 q 389 70 311 70 m 566 1191 l 521 1229 l 700 1417 l 749 1358 l 566 1191 m 223 1046 l 178 1094 l 375 1246 l 404 1246 l 597 1094 l 553 1046 l 393 1174 l 385 1174 l 223 1046 z "},"Ộ":{"ha":781,"x_min":48,"x_max":733,"o":"m 389 -11 q 208 52 284 -11 q 90 230 131 115 q 48 500 48 345 q 90 770 48 656 q 208 948 131 885 q 389 1010 284 1010 q 572 948 494 1010 q 691 770 649 885 q 733 500 733 656 q 691 230 733 345 q 572 52 649 115 q 389 -11 494 -11 m 389 70 q 526 123 469 70 q 614 272 584 176 q 644 500 645 369 q 613 729 644 633 q 525 877 582 825 q 389 930 467 930 q 254 877 311 930 q 167 727 197 823 q 137 500 137 630 q 167 274 137 370 q 254 123 197 177 q 389 70 311 70 m 387 -241 q 334 -220 355 -241 q 312 -166 312 -198 q 334 -113 312 -134 q 387 -91 355 -91 q 441 -113 419 -91 q 463 -166 463 -134 q 441 -220 463 -198 q 387 -241 419 -241 m 227 1054 l 182 1105 l 378 1253 l 407 1253 l 601 1105 l 556 1054 l 396 1185 l 389 1185 l 227 1054 z "},"Ồ":{"ha":781,"x_min":28,"x_max":733,"o":"m 389 -11 q 208 52 284 -11 q 90 230 131 115 q 48 500 48 345 q 90 770 48 656 q 208 948 131 885 q 389 1010 284 1010 q 572 948 494 1010 q 691 770 649 885 q 733 500 733 656 q 691 230 733 345 q 572 52 649 115 q 389 -11 494 -11 m 389 70 q 526 123 469 70 q 614 272 584 176 q 644 500 645 369 q 613 729 644 633 q 525 877 582 825 q 389 930 467 930 q 254 877 311 930 q 167 727 197 823 q 137 500 137 630 q 167 274 137 370 q 254 123 197 177 q 389 70 311 70 m 212 1191 l 28 1358 l 77 1417 l 256 1229 l 212 1191 m 554 1046 l 392 1174 l 385 1174 l 224 1046 l 180 1094 l 374 1246 l 402 1246 l 599 1094 l 554 1046 z "},"Ổ":{"ha":781,"x_min":48,"x_max":733,"o":"m 389 -11 q 208 52 284 -11 q 90 230 131 115 q 48 500 48 345 q 90 770 48 656 q 208 948 131 885 q 389 1010 284 1010 q 572 948 494 1010 q 691 770 649 885 q 733 500 733 656 q 691 230 733 345 q 572 52 649 115 q 389 -11 494 -11 m 389 70 q 526 123 469 70 q 614 272 584 176 q 644 500 645 369 q 613 729 644 633 q 525 877 582 825 q 389 930 467 930 q 254 877 311 930 q 167 727 197 823 q 137 500 137 630 q 167 274 137 370 q 254 123 197 177 q 389 70 311 70 m 551 1187 l 509 1219 q 545 1260 530 1238 q 560 1303 560 1283 q 543 1344 560 1329 q 493 1359 525 1359 q 457 1355 477 1359 q 421 1344 437 1352 l 421 1406 q 458 1416 435 1412 q 501 1419 481 1419 q 589 1392 555 1419 q 623 1314 623 1365 q 611 1264 623 1289 q 583 1220 600 1240 q 551 1187 567 1200 m 222 1046 l 177 1094 l 374 1246 l 403 1246 l 597 1094 l 552 1046 l 391 1174 l 384 1174 l 222 1046 z "},"Ỗ":{"ha":781,"x_min":48,"x_max":733,"o":"m 389 -11 q 208 52 284 -11 q 90 230 131 115 q 48 500 48 345 q 90 770 48 656 q 208 948 131 885 q 389 1010 284 1010 q 572 948 494 1010 q 691 770 649 885 q 733 500 733 656 q 691 230 733 345 q 572 52 649 115 q 389 -11 494 -11 m 389 70 q 526 123 469 70 q 614 272 584 176 q 644 500 645 369 q 613 729 644 633 q 525 877 582 825 q 389 930 467 930 q 254 877 311 930 q 167 727 197 823 q 137 500 137 630 q 167 274 137 370 q 254 123 197 177 q 389 70 311 70 m 182 1282 q 215 1385 182 1348 q 302 1423 248 1423 q 357 1411 334 1423 q 396 1384 379 1400 q 430 1357 413 1369 q 468 1345 447 1345 q 511 1366 496 1345 q 527 1423 527 1386 l 591 1423 q 578 1349 592 1381 q 537 1299 564 1317 q 475 1282 511 1282 q 423 1294 445 1282 q 383 1322 401 1306 q 347 1350 365 1338 q 307 1362 329 1362 q 264 1343 281 1362 q 245 1282 246 1324 l 182 1282 m 222 1046 l 177 1094 l 374 1246 l 402 1246 l 596 1094 l 551 1046 l 391 1174 l 384 1174 l 222 1046 z "},"Ȍ":{"ha":781,"x_min":48,"x_max":733,"o":"m 389 -11 q 208 52 284 -11 q 90 230 131 115 q 48 500 48 345 q 90 770 48 656 q 208 948 131 885 q 389 1010 284 1010 q 572 948 494 1010 q 691 770 649 885 q 733 500 733 656 q 691 230 733 345 q 572 52 649 115 q 389 -11 494 -11 m 389 70 q 526 123 469 70 q 614 272 584 176 q 644 500 645 369 q 613 729 644 633 q 525 877 582 825 q 389 930 467 930 q 254 877 311 930 q 167 727 197 823 q 137 500 137 630 q 167 274 137 370 q 254 123 197 177 q 389 70 311 70 m 259 1080 l 117 1295 l 184 1332 l 307 1103 l 259 1080 m 463 1080 l 328 1295 l 395 1332 l 515 1103 l 463 1080 z "},"Ö":{"ha":781,"x_min":48,"x_max":733,"o":"m 389 -11 q 208 52 284 -11 q 90 230 131 115 q 48 500 48 345 q 90 770 48 656 q 208 948 131 885 q 389 1010 284 1010 q 572 948 494 1010 q 691 770 649 885 q 733 500 733 656 q 691 230 733 345 q 572 52 649 115 q 389 -11 494 -11 m 389 70 q 526 123 469 70 q 614 272 584 176 q 644 500 645 369 q 613 729 644 633 q 525 877 582 825 q 389 930 467 930 q 254 877 311 930 q 167 727 197 823 q 137 500 137 630 q 167 274 137 370 q 254 123 197 177 q 389 70 311 70 m 529 1078 q 477 1099 498 1078 q 456 1149 456 1120 q 477 1201 456 1181 q 529 1222 498 1222 q 581 1201 559 1222 q 602 1149 602 1181 q 581 1099 602 1120 q 529 1078 559 1078 m 253 1078 q 202 1099 223 1078 q 180 1149 180 1120 q 202 1201 180 1181 q 253 1222 223 1222 q 304 1201 284 1222 q 325 1149 325 1181 q 304 1099 325 1120 q 253 1078 284 1078 z "},"Ȫ":{"ha":781,"x_min":48,"x_max":733,"o":"m 389 -11 q 208 52 284 -11 q 90 230 131 115 q 48 500 48 345 q 90 770 48 656 q 208 948 131 885 q 389 1010 284 1010 q 572 948 494 1010 q 691 770 649 885 q 733 500 733 656 q 691 230 733 345 q 572 52 649 115 q 389 -11 494 -11 m 389 70 q 526 123 469 70 q 614 272 584 176 q 644 500 645 369 q 613 729 644 633 q 525 877 582 825 q 389 930 467 930 q 254 877 311 930 q 167 727 197 823 q 137 500 137 630 q 167 274 137 370 q 254 123 197 177 q 389 70 311 70 m 529 1078 q 477 1099 498 1078 q 456 1149 456 1120 q 477 1201 456 1181 q 529 1222 498 1222 q 581 1201 559 1222 q 602 1149 602 1181 q 581 1099 602 1120 q 529 1078 559 1078 m 253 1078 q 202 1099 223 1078 q 180 1149 180 1120 q 202 1201 180 1181 q 253 1222 223 1222 q 304 1201 284 1222 q 325 1149 325 1181 q 304 1099 325 1120 q 253 1078 284 1078 m 155 1289 l 155 1356 l 622 1356 l 622 1289 l 155 1289 z "},"Ȱ":{"ha":781,"x_min":48,"x_max":733,"o":"m 389 -11 q 208 52 284 -11 q 90 230 131 115 q 48 500 48 345 q 90 770 48 656 q 208 948 131 885 q 389 1010 284 1010 q 572 948 494 1010 q 691 770 649 885 q 733 500 733 656 q 691 230 733 345 q 572 52 649 115 q 389 -11 494 -11 m 389 70 q 526 123 469 70 q 614 272 584 176 q 644 500 645 369 q 613 729 644 633 q 525 877 582 825 q 389 930 467 930 q 254 877 311 930 q 167 727 197 823 q 137 500 137 630 q 167 274 137 370 q 254 123 197 177 q 389 70 311 70 m 389 1075 q 335 1097 357 1075 q 313 1150 313 1118 q 335 1204 313 1182 q 389 1225 357 1225 q 442 1204 420 1225 q 464 1150 464 1182 q 442 1097 464 1118 q 389 1075 420 1075 m 155 1289 l 155 1357 l 622 1357 l 622 1289 l 155 1289 z "},"Ọ":{"ha":781,"x_min":48,"x_max":733,"o":"m 389 -11 q 208 52 284 -11 q 90 230 131 115 q 48 500 48 345 q 90 770 48 656 q 208 948 131 885 q 389 1010 284 1010 q 572 948 494 1010 q 691 770 649 885 q 733 500 733 656 q 691 230 733 345 q 572 52 649 115 q 389 -11 494 -11 m 389 70 q 526 123 469 70 q 614 272 584 176 q 644 500 645 369 q 613 729 644 633 q 525 877 582 825 q 389 930 467 930 q 254 877 311 930 q 167 727 197 823 q 137 500 137 630 q 167 274 137 370 q 254 123 197 177 q 389 70 311 70 m 389 -241 q 335 -220 357 -241 q 313 -166 313 -198 q 335 -113 313 -134 q 389 -91 357 -91 q 442 -113 420 -91 q 464 -166 464 -134 q 442 -220 464 -198 q 389 -241 420 -241 z "},"Ò":{"ha":781,"x_min":48,"x_max":733,"o":"m 389 -11 q 208 52 284 -11 q 90 230 131 115 q 48 500 48 345 q 90 770 48 656 q 208 948 131 885 q 389 1010 284 1010 q 572 948 494 1010 q 691 770 649 885 q 733 500 733 656 q 691 230 733 345 q 572 52 649 115 q 389 -11 494 -11 m 389 70 q 526 123 469 70 q 614 272 584 176 q 644 500 645 369 q 613 729 644 633 q 525 877 582 825 q 389 930 467 930 q 254 877 311 930 q 167 727 197 823 q 137 500 137 630 q 167 274 137 370 q 254 123 197 177 q 389 70 311 70 m 389 1054 l 193 1236 l 239 1293 l 432 1101 l 389 1054 z "},"Ỏ":{"ha":781,"x_min":48,"x_max":733,"o":"m 389 -11 q 208 52 284 -11 q 90 230 131 115 q 48 500 48 345 q 90 770 48 656 q 208 948 131 885 q 389 1010 284 1010 q 572 948 494 1010 q 691 770 649 885 q 733 500 733 656 q 691 230 733 345 q 572 52 649 115 q 389 -11 494 -11 m 389 70 q 526 123 469 70 q 614 272 584 176 q 644 500 645 369 q 613 729 644 633 q 525 877 582 825 q 389 930 467 930 q 254 877 311 930 q 167 727 197 823 q 137 500 137 630 q 167 274 137 370 q 254 123 197 177 q 389 70 311 70 m 406 1086 l 368 1128 q 411 1163 393 1141 q 429 1209 429 1185 q 411 1249 429 1235 q 361 1263 393 1263 q 325 1259 345 1263 q 289 1249 304 1255 l 289 1311 q 328 1321 305 1318 q 366 1324 351 1324 q 456 1296 424 1324 q 488 1218 488 1267 q 465 1140 488 1177 q 406 1086 441 1103 z "},"Ơ":{"ha":781,"x_min":48,"x_max":760,"o":"m 389 -11 q 208 52 284 -11 q 90 230 131 115 q 48 500 48 345 q 90 770 48 656 q 208 948 131 885 q 389 1010 284 1010 q 572 948 494 1010 q 691 770 649 885 q 733 500 733 656 q 691 230 733 345 q 572 52 649 115 q 389 -11 494 -11 m 389 70 q 526 123 469 70 q 614 272 584 176 q 644 500 645 369 q 613 729 644 633 q 525 877 582 825 q 389 930 467 930 q 254 877 311 930 q 167 727 197 823 q 137 500 137 630 q 167 274 137 370 q 254 123 197 177 q 389 70 311 70 m 538 901 l 537 961 q 646 1000 606 962 q 686 1108 686 1038 q 685 1142 686 1122 q 681 1173 683 1161 l 751 1185 q 758 1145 756 1170 q 760 1103 760 1121 q 729 990 760 1036 q 648 922 699 945 q 538 901 597 899 z "},"Ớ":{"ha":781,"x_min":48,"x_max":760,"o":"m 389 -11 q 208 52 284 -11 q 90 230 131 115 q 48 500 48 345 q 90 770 48 656 q 208 948 131 885 q 389 1010 284 1010 q 572 948 494 1010 q 691 770 649 885 q 733 500 733 656 q 691 230 733 345 q 572 52 649 115 q 389 -11 494 -11 m 389 70 q 526 123 469 70 q 614 272 584 176 q 644 500 645 369 q 613 729 644 633 q 525 877 582 825 q 389 930 467 930 q 254 877 311 930 q 167 727 197 823 q 137 500 137 630 q 167 274 137 370 q 254 123 197 177 q 389 70 311 70 m 538 901 l 537 961 q 646 1000 606 962 q 686 1108 686 1038 q 685 1142 686 1122 q 681 1173 683 1161 l 751 1185 q 758 1145 756 1170 q 760 1103 760 1121 q 729 990 760 1036 q 648 922 699 945 q 538 901 597 899 m 389 1054 l 345 1101 l 538 1293 l 585 1236 l 389 1054 z "},"Ợ":{"ha":781,"x_min":48,"x_max":760,"o":"m 389 -11 q 208 52 284 -11 q 90 230 131 115 q 48 500 48 345 q 90 770 48 656 q 208 948 131 885 q 389 1010 284 1010 q 572 948 494 1010 q 691 770 649 885 q 733 500 733 656 q 691 230 733 345 q 572 52 649 115 q 389 -11 494 -11 m 389 70 q 526 123 469 70 q 614 272 584 176 q 644 500 645 369 q 613 729 644 633 q 525 877 582 825 q 389 930 467 930 q 254 877 311 930 q 167 727 197 823 q 137 500 137 630 q 167 274 137 370 q 254 123 197 177 q 389 70 311 70 m 538 901 l 537 961 q 646 1000 606 962 q 686 1108 686 1038 q 685 1142 686 1122 q 681 1173 683 1161 l 751 1185 q 758 1145 756 1170 q 760 1103 760 1121 q 729 990 760 1036 q 648 922 699 945 q 538 901 597 899 m 387 -241 q 334 -220 355 -241 q 312 -166 312 -198 q 334 -113 312 -134 q 387 -91 355 -91 q 441 -113 419 -91 q 463 -166 463 -134 q 441 -220 463 -198 q 387 -241 419 -241 z "},"Ờ":{"ha":781,"x_min":48,"x_max":760,"o":"m 389 -11 q 208 52 284 -11 q 90 230 131 115 q 48 500 48 345 q 90 770 48 656 q 208 948 131 885 q 389 1010 284 1010 q 572 948 494 1010 q 691 770 649 885 q 733 500 733 656 q 691 230 733 345 q 572 52 649 115 q 389 -11 494 -11 m 389 70 q 526 123 469 70 q 614 272 584 176 q 644 500 645 369 q 613 729 644 633 q 525 877 582 825 q 389 930 467 930 q 254 877 311 930 q 167 727 197 823 q 137 500 137 630 q 167 274 137 370 q 254 123 197 177 q 389 70 311 70 m 538 901 l 537 961 q 646 1000 606 962 q 686 1108 686 1038 q 685 1142 686 1122 q 681 1173 683 1161 l 751 1185 q 758 1145 756 1170 q 760 1103 760 1121 q 729 990 760 1036 q 648 922 699 945 q 538 901 597 899 m 389 1054 l 193 1236 l 239 1293 l 432 1101 l 389 1054 z "},"Ở":{"ha":781,"x_min":48,"x_max":760,"o":"m 389 -11 q 208 52 284 -11 q 90 230 131 115 q 48 500 48 345 q 90 770 48 656 q 208 948 131 885 q 389 1010 284 1010 q 572 948 494 1010 q 691 770 649 885 q 733 500 733 656 q 691 230 733 345 q 572 52 649 115 q 389 -11 494 -11 m 389 70 q 526 123 469 70 q 614 272 584 176 q 644 500 645 369 q 613 729 644 633 q 525 877 582 825 q 389 930 467 930 q 254 877 311 930 q 167 727 197 823 q 137 500 137 630 q 167 274 137 370 q 254 123 197 177 q 389 70 311 70 m 538 901 l 537 961 q 646 1000 606 962 q 686 1108 686 1038 q 685 1142 686 1122 q 681 1173 683 1161 l 751 1185 q 758 1145 756 1170 q 760 1103 760 1121 q 729 990 760 1036 q 648 922 699 945 q 538 901 597 899 m 406 1086 l 368 1128 q 411 1163 393 1141 q 429 1209 429 1185 q 411 1249 429 1235 q 361 1263 393 1263 q 325 1259 345 1263 q 289 1249 304 1255 l 289 1311 q 328 1321 305 1318 q 366 1324 351 1324 q 456 1296 424 1324 q 488 1218 488 1267 q 465 1140 488 1177 q 406 1086 441 1103 z "},"Ỡ":{"ha":781,"x_min":48,"x_max":760,"o":"m 389 -11 q 208 52 284 -11 q 90 230 131 115 q 48 500 48 345 q 90 770 48 656 q 208 948 131 885 q 389 1010 284 1010 q 572 948 494 1010 q 691 770 649 885 q 733 500 733 656 q 691 230 733 345 q 572 52 649 115 q 389 -11 494 -11 m 389 70 q 526 123 469 70 q 614 272 584 176 q 644 500 645 369 q 613 729 644 633 q 525 877 582 825 q 389 930 467 930 q 254 877 311 930 q 167 727 197 823 q 137 500 137 630 q 167 274 137 370 q 254 123 197 177 q 389 70 311 70 m 538 901 l 537 961 q 646 1000 606 962 q 686 1108 686 1038 q 685 1142 686 1122 q 681 1173 683 1161 l 751 1185 q 758 1145 756 1170 q 760 1103 760 1121 q 729 990 760 1036 q 648 922 699 945 q 538 901 597 899 m 183 1080 q 217 1187 184 1146 q 301 1228 250 1228 q 357 1215 334 1228 q 397 1184 380 1202 q 431 1154 414 1167 q 469 1141 448 1141 q 513 1167 498 1141 q 529 1228 529 1193 l 591 1228 q 560 1122 593 1164 q 473 1080 528 1080 q 420 1093 442 1080 q 379 1123 397 1106 q 343 1153 361 1140 q 304 1166 326 1166 q 262 1142 277 1166 q 247 1080 247 1119 l 183 1080 z "},"Ő":{"ha":781,"x_min":48,"x_max":733,"o":"m 389 -11 q 208 52 284 -11 q 90 230 131 115 q 48 500 48 345 q 90 770 48 656 q 208 948 131 885 q 389 1010 284 1010 q 572 948 494 1010 q 691 770 649 885 q 733 500 733 656 q 691 230 733 345 q 572 52 649 115 q 389 -11 494 -11 m 389 70 q 526 123 469 70 q 614 272 584 176 q 644 500 645 369 q 613 729 644 633 q 525 877 582 825 q 389 930 467 930 q 254 877 311 930 q 167 727 197 823 q 137 500 137 630 q 167 274 137 370 q 254 123 197 177 q 389 70 311 70 m 312 1080 l 261 1103 l 387 1332 l 450 1295 l 312 1080 m 519 1080 l 472 1103 l 593 1332 l 658 1295 l 519 1080 z "},"Ȏ":{"ha":781,"x_min":48,"x_max":733,"o":"m 389 -11 q 208 52 284 -11 q 90 230 131 115 q 48 500 48 345 q 90 770 48 656 q 208 948 131 885 q 389 1010 284 1010 q 572 948 494 1010 q 691 770 649 885 q 733 500 733 656 q 691 230 733 345 q 572 52 649 115 q 389 -11 494 -11 m 389 70 q 526 123 469 70 q 614 272 584 176 q 644 500 645 369 q 613 729 644 633 q 525 877 582 825 q 389 930 467 930 q 254 877 311 930 q 167 727 197 823 q 137 500 137 630 q 167 274 137 370 q 254 123 197 177 q 389 70 311 70 m 387 1238 q 492 1216 445 1238 q 566 1154 539 1194 q 591 1063 593 1115 l 530 1063 q 489 1147 530 1117 q 387 1177 448 1177 q 287 1147 328 1177 q 246 1063 246 1117 l 186 1063 q 213 1154 186 1115 q 286 1216 240 1194 q 387 1238 332 1238 z "},"Ō":{"ha":781,"x_min":48,"x_max":733,"o":"m 389 -11 q 208 52 284 -11 q 90 230 131 115 q 48 500 48 345 q 90 770 48 656 q 208 948 131 885 q 389 1010 284 1010 q 572 948 494 1010 q 691 770 649 885 q 733 500 733 656 q 691 230 733 345 q 572 52 649 115 q 389 -11 494 -11 m 389 70 q 526 123 469 70 q 614 272 584 176 q 644 500 645 369 q 613 729 644 633 q 525 877 582 825 q 389 930 467 930 q 254 877 311 930 q 167 727 197 823 q 137 500 137 630 q 167 274 137 370 q 254 123 197 177 q 389 70 311 70 m 155 1116 l 155 1183 l 622 1183 l 622 1116 l 155 1116 z "},"Ṓ":{"ha":781,"x_min":48,"x_max":733,"o":"m 155 1116 l 155 1183 l 622 1183 l 622 1116 l 155 1116 m 389 1237 l 345 1285 l 538 1476 l 585 1420 l 389 1237 m 389 -11 q 208 52 284 -11 q 90 230 131 115 q 48 500 48 345 q 90 770 48 656 q 208 948 131 885 q 389 1010 284 1010 q 572 948 494 1010 q 691 770 649 885 q 733 500 733 656 q 691 230 733 345 q 572 52 649 115 q 389 -11 494 -11 m 389 70 q 526 123 469 70 q 614 272 584 176 q 644 500 645 369 q 613 729 644 633 q 525 877 582 825 q 389 930 467 930 q 254 877 311 930 q 167 727 197 823 q 137 500 137 630 q 167 274 137 370 q 254 123 197 177 q 389 70 311 70 z "},"Ṑ":{"ha":781,"x_min":48,"x_max":733,"o":"m 389 -11 q 208 52 284 -11 q 90 230 131 115 q 48 500 48 345 q 90 770 48 656 q 208 948 131 885 q 389 1010 284 1010 q 572 948 494 1010 q 691 770 649 885 q 733 500 733 656 q 691 230 733 345 q 572 52 649 115 q 389 -11 494 -11 m 389 70 q 526 123 469 70 q 614 272 584 176 q 644 500 645 369 q 613 729 644 633 q 525 877 582 825 q 389 930 467 930 q 254 877 311 930 q 167 727 197 823 q 137 500 137 630 q 167 274 137 370 q 254 123 197 177 q 389 70 311 70 m 155 1116 l 155 1183 l 622 1183 l 622 1116 l 155 1116 m 389 1238 l 193 1420 l 239 1476 l 432 1285 l 389 1238 z "},"Ǫ":{"ha":781,"x_min":48,"x_max":733,"o":"m 389 -11 q 208 52 284 -11 q 90 230 131 115 q 48 500 48 345 q 90 770 48 656 q 208 948 131 885 q 389 1010 284 1010 q 572 948 494 1010 q 691 770 649 885 q 733 500 733 656 q 691 230 733 345 q 572 52 649 115 q 389 -11 494 -11 m 389 70 q 526 123 469 70 q 614 272 584 176 q 644 500 645 369 q 613 729 644 633 q 525 877 582 825 q 389 930 467 930 q 254 877 311 930 q 167 727 197 823 q 137 500 137 630 q 167 274 137 370 q 254 123 197 177 q 389 70 311 70 m 386 -272 q 310 -241 340 -272 q 281 -163 281 -211 q 317 -66 281 -109 q 405 21 354 -24 l 455 0 q 403 -53 429 -28 q 359 -102 377 -77 q 342 -157 342 -127 q 359 -198 342 -183 q 400 -213 376 -213 q 444 -203 422 -213 q 477 -184 465 -194 l 477 -245 q 436 -264 463 -257 q 386 -272 409 -272 z "},"Ø":{"ha":781,"x_min":26,"x_max":755,"o":"m 389 -11 q 208 52 284 -11 q 90 230 131 115 q 48 500 48 345 q 90 770 48 656 q 208 948 131 885 q 389 1010 284 1010 q 572 948 494 1010 q 691 770 649 885 q 733 500 733 656 q 691 230 733 345 q 572 52 649 115 q 389 -11 494 -11 m 389 70 q 526 123 469 70 q 614 272 584 176 q 644 500 645 369 q 613 729 644 633 q 525 877 582 825 q 389 930 467 930 q 254 877 311 930 q 167 727 197 823 q 137 500 137 630 q 167 274 137 370 q 254 123 197 177 q 389 70 311 70 m 26 0 l 671 1000 l 755 1000 l 110 0 l 26 0 z "},"Ǿ":{"ha":781,"x_min":26,"x_max":755,"o":"m 389 -11 q 208 52 284 -11 q 90 230 131 115 q 48 500 48 345 q 90 770 48 656 q 208 948 131 885 q 389 1010 284 1010 q 572 948 494 1010 q 691 770 649 885 q 733 500 733 656 q 691 230 733 345 q 572 52 649 115 q 389 -11 494 -11 m 389 70 q 526 123 469 70 q 614 272 584 176 q 644 500 645 369 q 613 729 644 633 q 525 877 582 825 q 389 930 467 930 q 254 877 311 930 q 167 727 197 823 q 137 500 137 630 q 167 274 137 370 q 254 123 197 177 q 389 70 311 70 m 26 0 l 671 1000 l 755 1000 l 110 0 l 26 0 m 389 1054 l 345 1101 l 538 1293 l 585 1236 l 389 1054 z "},"Õ":{"ha":781,"x_min":48,"x_max":733,"o":"m 389 -11 q 208 52 284 -11 q 90 230 131 115 q 48 500 48 345 q 90 770 48 656 q 208 948 131 885 q 389 1010 284 1010 q 572 948 494 1010 q 691 770 649 885 q 733 500 733 656 q 691 230 733 345 q 572 52 649 115 q 389 -11 494 -11 m 389 70 q 526 123 469 70 q 614 272 584 176 q 644 500 645 369 q 613 729 644 633 q 525 877 582 825 q 389 930 467 930 q 254 877 311 930 q 167 727 197 823 q 137 500 137 630 q 167 274 137 370 q 254 123 197 177 q 389 70 311 70 m 183 1080 q 217 1187 184 1146 q 301 1228 250 1228 q 357 1215 334 1228 q 397 1184 380 1202 q 431 1154 414 1167 q 469 1141 448 1141 q 513 1167 498 1141 q 529 1228 529 1193 l 591 1228 q 560 1122 593 1164 q 473 1080 528 1080 q 420 1093 442 1080 q 379 1123 397 1106 q 343 1153 361 1140 q 304 1166 326 1166 q 262 1142 277 1166 q 247 1080 247 1119 l 183 1080 z "},"Ṍ":{"ha":781,"x_min":48,"x_max":733,"o":"m 389 -11 q 208 52 284 -11 q 90 230 131 115 q 48 500 48 345 q 90 770 48 656 q 208 948 131 885 q 389 1010 284 1010 q 572 948 494 1010 q 691 770 649 885 q 733 500 733 656 q 691 230 733 345 q 572 52 649 115 q 389 -11 494 -11 m 389 70 q 526 123 469 70 q 614 272 584 176 q 644 500 645 369 q 613 729 644 633 q 525 877 582 825 q 389 930 467 930 q 254 877 311 930 q 167 727 197 823 q 137 500 137 630 q 167 274 137 370 q 254 123 197 177 q 389 70 311 70 m 183 1080 q 217 1187 184 1146 q 301 1228 250 1228 q 357 1215 334 1228 q 397 1184 380 1202 q 431 1154 414 1167 q 469 1141 448 1141 q 513 1167 498 1141 q 529 1228 529 1193 l 591 1228 q 560 1122 593 1164 q 473 1080 528 1080 q 420 1093 442 1080 q 379 1123 397 1106 q 343 1153 361 1140 q 304 1166 326 1166 q 262 1142 277 1166 q 247 1080 247 1119 l 183 1080 m 389 1262 l 345 1310 l 538 1501 l 585 1444 l 389 1262 z "},"Ṏ":{"ha":781,"x_min":48,"x_max":733,"o":"m 389 -11 q 208 52 284 -11 q 90 230 131 115 q 48 500 48 345 q 90 770 48 656 q 208 948 131 885 q 389 1010 284 1010 q 572 948 494 1010 q 691 770 649 885 q 733 500 733 656 q 691 230 733 345 q 572 52 649 115 q 389 -11 494 -11 m 389 70 q 526 123 469 70 q 614 272 584 176 q 644 500 645 369 q 613 729 644 633 q 525 877 582 825 q 389 930 467 930 q 254 877 311 930 q 167 727 197 823 q 137 500 137 630 q 167 274 137 370 q 254 123 197 177 q 389 70 311 70 m 183 1080 q 217 1187 184 1146 q 301 1228 250 1228 q 357 1215 334 1228 q 397 1184 380 1202 q 431 1154 414 1167 q 469 1141 448 1141 q 513 1167 498 1141 q 529 1228 529 1193 l 591 1228 q 560 1122 593 1164 q 473 1080 528 1080 q 420 1093 442 1080 q 379 1123 397 1106 q 343 1153 361 1140 q 304 1166 326 1166 q 262 1142 277 1166 q 247 1080 247 1119 l 183 1080 m 529 1286 q 477 1307 498 1286 q 456 1358 456 1328 q 477 1410 456 1389 q 529 1430 498 1430 q 581 1410 559 1430 q 602 1358 602 1389 q 581 1307 602 1328 q 529 1286 559 1286 m 253 1286 q 202 1307 223 1286 q 180 1358 180 1328 q 202 1410 180 1389 q 253 1430 223 1430 q 304 1410 284 1430 q 325 1358 325 1389 q 304 1307 325 1328 q 253 1286 284 1286 z "},"Ȭ":{"ha":781,"x_min":48,"x_max":733,"o":"m 389 -11 q 208 52 284 -11 q 90 230 131 115 q 48 500 48 345 q 90 770 48 656 q 208 948 131 885 q 389 1010 284 1010 q 572 948 494 1010 q 691 770 649 885 q 733 500 733 656 q 691 230 733 345 q 572 52 649 115 q 389 -11 494 -11 m 389 70 q 526 123 469 70 q 614 272 584 176 q 644 500 645 369 q 613 729 644 633 q 525 877 582 825 q 389 930 467 930 q 254 877 311 930 q 167 727 197 823 q 137 500 137 630 q 167 274 137 370 q 254 123 197 177 q 389 70 311 70 m 183 1080 q 217 1187 184 1146 q 301 1228 250 1228 q 357 1215 334 1228 q 397 1184 380 1202 q 431 1154 414 1167 q 469 1141 448 1141 q 513 1167 498 1141 q 529 1228 529 1193 l 591 1228 q 560 1122 593 1164 q 473 1080 528 1080 q 420 1093 442 1080 q 379 1123 397 1106 q 343 1153 361 1140 q 304 1166 326 1166 q 262 1142 277 1166 q 247 1080 247 1119 l 183 1080 m 155 1324 l 155 1392 l 622 1392 l 622 1324 l 155 1324 z "},"Œ":{"ha":781,"x_min":40,"x_max":760,"o":"m 273 -11 q 148 50 200 -11 q 68 225 96 111 q 40 500 40 340 q 68 775 40 661 q 148 950 96 889 q 273 1010 199 1010 q 374 974 332 1010 q 439 877 416 937 q 468 743 463 816 l 447 743 l 447 1000 l 760 1000 l 760 919 l 524 919 l 524 551 l 733 551 l 733 470 l 524 470 l 524 81 l 760 81 l 760 0 l 447 0 l 447 259 l 468 259 q 439 124 463 185 q 374 26 416 63 q 273 -11 332 -11 m 277 68 q 401 183 356 68 q 446 502 446 297 q 401 818 446 704 q 278 931 357 931 q 163 818 201 931 q 125 501 125 704 q 163 183 125 298 q 277 68 200 68 z "},"P":{"ha":781,"x_min":139,"x_max":704,"o":"m 200 420 l 200 502 l 401 502 q 513 528 465 502 q 589 603 562 555 q 616 715 616 651 q 554 865 616 810 q 394 919 493 919 l 200 919 l 200 1000 l 403 1000 q 559 965 491 1000 q 665 866 627 930 q 704 716 704 803 q 667 566 704 633 q 565 460 631 499 q 410 420 498 420 l 200 420 m 139 0 l 139 1000 l 227 1000 l 227 0 l 139 0 z "},"Þ":{"ha":781,"x_min":136,"x_max":709,"o":"m 199 208 l 199 289 l 425 289 q 526 316 482 289 q 595 391 570 342 q 620 503 620 439 q 565 653 620 600 q 423 707 511 707 l 199 707 l 199 788 l 422 788 q 570 754 505 788 q 672 656 635 720 q 709 505 709 592 q 672 351 709 418 q 571 246 635 284 q 423 208 507 208 l 199 208 m 136 0 l 136 1000 l 224 1000 l 224 0 l 136 0 z "},"Q":{"ha":781,"x_min":48,"x_max":732,"o":"m 390 -11 q 208 52 285 -11 q 90 229 132 114 q 48 500 48 344 q 90 771 48 657 q 208 948 132 886 q 390 1010 285 1010 q 572 948 496 1010 q 690 771 649 886 q 732 500 732 656 q 704 271 732 372 q 623 103 675 170 l 606 83 q 510 14 564 38 q 390 -11 455 -11 m 631 0 l 567 94 l 537 117 l 377 360 l 474 360 l 601 154 l 636 126 l 725 0 l 631 0 m 390 70 q 527 123 470 70 q 615 273 585 176 q 645 500 645 370 q 614 728 644 631 q 526 877 583 824 q 390 930 469 930 q 255 877 312 930 q 166 728 197 825 q 135 500 135 632 q 166 272 135 368 q 255 123 197 176 q 390 70 312 70 z "},"R":{"ha":781,"x_min":117,"x_max":720,"o":"m 172 425 l 172 503 l 371 503 q 477 530 430 503 q 550 604 524 556 q 576 715 576 652 q 517 865 576 811 q 364 919 458 919 l 172 919 l 172 1000 l 378 1000 q 523 966 458 1000 q 626 870 588 932 q 665 721 665 807 q 628 572 665 640 q 525 465 591 505 q 369 425 458 425 l 172 425 m 117 0 l 117 1000 l 205 1000 l 205 0 l 117 0 m 620 0 l 359 438 l 424 492 l 720 0 l 620 0 z "},"Ŕ":{"ha":781,"x_min":117,"x_max":720,"o":"m 172 425 l 172 503 l 371 503 q 477 530 430 503 q 550 604 524 556 q 576 715 576 652 q 517 865 576 811 q 364 919 458 919 l 172 919 l 172 1000 l 378 1000 q 523 966 458 1000 q 626 870 588 932 q 665 721 665 807 q 628 572 665 640 q 525 465 591 505 q 369 425 458 425 l 172 425 m 117 0 l 117 1000 l 205 1000 l 205 0 l 117 0 m 620 0 l 359 438 l 424 492 l 720 0 l 620 0 m 366 1054 l 322 1101 l 515 1293 l 562 1236 l 366 1054 z "},"Ř":{"ha":781,"x_min":117,"x_max":720,"o":"m 172 425 l 172 503 l 371 503 q 477 530 430 503 q 550 604 524 556 q 576 715 576 652 q 517 865 576 811 q 364 919 458 919 l 172 919 l 172 1000 l 378 1000 q 523 966 458 1000 q 626 870 588 932 q 665 721 665 807 q 628 572 665 640 q 525 465 591 505 q 369 425 458 425 l 172 425 m 117 0 l 117 1000 l 205 1000 l 205 0 l 117 0 m 620 0 l 359 438 l 424 492 l 720 0 l 620 0 m 201 1246 l 363 1114 l 370 1114 l 530 1246 l 576 1194 l 381 1046 l 353 1046 l 156 1194 l 201 1246 z "},"Ŗ":{"ha":781,"x_min":117,"x_max":720,"o":"m 172 425 l 172 503 l 371 503 q 477 530 430 503 q 550 604 524 556 q 576 715 576 652 q 517 865 576 811 q 364 919 458 919 l 172 919 l 172 1000 l 378 1000 q 523 966 458 1000 q 626 870 588 932 q 665 721 665 807 q 628 572 665 640 q 525 465 591 505 q 369 425 458 425 l 172 425 m 117 0 l 117 1000 l 205 1000 l 205 0 l 117 0 m 620 0 l 359 438 l 424 492 l 720 0 l 620 0 m 368 -355 l 340 -324 l 389 -270 q 415 -239 405 -252 q 429 -214 425 -225 q 432 -191 433 -202 l 452 -188 q 440 -210 448 -201 q 416 -220 432 -220 q 377 -202 396 -220 q 358 -158 358 -185 q 376 -114 358 -130 q 416 -97 395 -97 q 460 -116 444 -97 q 477 -169 477 -136 q 467 -220 477 -195 q 443 -263 456 -244 q 420 -292 429 -282 l 368 -355 z "},"Ȑ":{"ha":781,"x_min":94,"x_max":720,"o":"m 172 425 l 172 503 l 371 503 q 477 530 430 503 q 550 604 524 556 q 576 715 576 652 q 517 865 576 811 q 364 919 458 919 l 172 919 l 172 1000 l 378 1000 q 523 966 458 1000 q 626 870 588 932 q 665 721 665 807 q 628 572 665 640 q 525 465 591 505 q 369 425 458 425 l 172 425 m 117 0 l 117 1000 l 205 1000 l 205 0 l 117 0 m 620 0 l 359 438 l 424 492 l 720 0 l 620 0 m 236 1080 l 94 1295 l 161 1332 l 283 1103 l 236 1080 m 440 1080 l 305 1295 l 372 1332 l 492 1103 l 440 1080 z "},"Ṛ":{"ha":781,"x_min":117,"x_max":720,"o":"m 172 425 l 172 503 l 371 503 q 477 530 430 503 q 550 604 524 556 q 576 715 576 652 q 517 865 576 811 q 364 919 458 919 l 172 919 l 172 1000 l 378 1000 q 523 966 458 1000 q 626 870 588 932 q 665 721 665 807 q 628 572 665 640 q 525 465 591 505 q 369 425 458 425 l 172 425 m 117 0 l 117 1000 l 205 1000 l 205 0 l 117 0 m 620 0 l 359 438 l 424 492 l 720 0 l 620 0 m 408 -241 q 354 -220 376 -241 q 332 -166 332 -198 q 354 -113 332 -134 q 408 -91 376 -91 q 461 -113 439 -91 q 483 -166 483 -134 q 461 -220 483 -198 q 408 -241 439 -241 z "},"Ȓ":{"ha":781,"x_min":117,"x_max":720,"o":"m 172 425 l 172 503 l 371 503 q 477 530 430 503 q 550 604 524 556 q 576 715 576 652 q 517 865 576 811 q 364 919 458 919 l 172 919 l 172 1000 l 378 1000 q 523 966 458 1000 q 626 870 588 932 q 665 721 665 807 q 628 572 665 640 q 525 465 591 505 q 369 425 458 425 l 172 425 m 117 0 l 117 1000 l 205 1000 l 205 0 l 117 0 m 620 0 l 359 438 l 424 492 l 720 0 l 620 0 m 364 1238 q 469 1216 422 1238 q 543 1154 516 1194 q 568 1063 570 1115 l 507 1063 q 466 1147 507 1117 q 364 1177 425 1177 q 264 1147 305 1177 q 223 1063 223 1117 l 163 1063 q 190 1154 163 1115 q 263 1216 217 1194 q 364 1238 309 1238 z "},"Ṟ":{"ha":781,"x_min":117,"x_max":720,"o":"m 172 425 l 172 503 l 371 503 q 477 530 430 503 q 550 604 524 556 q 576 715 576 652 q 517 865 576 811 q 364 919 458 919 l 172 919 l 172 1000 l 378 1000 q 523 966 458 1000 q 626 870 588 932 q 665 721 665 807 q 628 572 665 640 q 525 465 591 505 q 369 425 458 425 l 172 425 m 117 0 l 117 1000 l 205 1000 l 205 0 l 117 0 m 620 0 l 359 438 l 424 492 l 720 0 l 620 0 m 186 -264 l 186 -203 l 629 -203 l 629 -264 l 186 -264 z "},"S":{"ha":781,"x_min":78,"x_max":684,"o":"m 391 -11 q 252 18 315 -11 q 144 95 189 47 q 78 200 100 142 l 162 235 q 216 148 180 184 q 298 90 252 111 q 394 70 344 70 q 495 94 449 70 q 569 160 541 117 q 596 260 596 203 q 570 357 596 318 q 499 421 543 395 q 404 468 456 448 q 299 512 351 489 q 203 565 247 534 q 133 643 159 596 q 106 760 106 690 q 141 893 106 837 q 237 980 176 949 q 375 1010 298 1010 q 499 987 445 1010 q 592 925 554 963 q 650 842 630 886 l 570 809 q 525 870 553 842 q 459 913 497 897 q 374 930 421 930 q 247 885 298 930 q 195 764 195 841 q 221 667 195 705 q 292 604 248 629 q 387 558 335 578 q 492 517 439 538 q 588 464 545 495 q 658 385 631 433 q 684 265 684 338 q 645 120 684 182 q 538 23 605 58 q 391 -11 472 -11 z "},"Ś":{"ha":781,"x_min":78,"x_max":684,"o":"m 391 -11 q 252 18 315 -11 q 144 95 189 47 q 78 200 100 142 l 162 235 q 216 148 180 184 q 298 90 252 111 q 394 70 344 70 q 495 94 449 70 q 569 160 541 117 q 596 260 596 203 q 570 357 596 318 q 499 421 543 395 q 404 468 456 448 q 299 512 351 489 q 203 565 247 534 q 133 643 159 596 q 106 760 106 690 q 141 893 106 837 q 237 980 176 949 q 375 1010 298 1010 q 499 987 445 1010 q 592 925 554 963 q 650 842 630 886 l 570 809 q 525 870 553 842 q 459 913 497 897 q 374 930 421 930 q 247 885 298 930 q 195 764 195 841 q 221 667 195 705 q 292 604 248 629 q 387 558 335 578 q 492 517 439 538 q 588 464 545 495 q 658 385 631 433 q 684 265 684 338 q 645 120 684 182 q 538 23 605 58 q 391 -11 472 -11 m 385 1054 l 342 1101 l 534 1293 l 581 1236 l 385 1054 z "},"Ṥ":{"ha":781,"x_min":78,"x_max":684,"o":"m 391 -11 q 252 18 315 -11 q 144 95 189 47 q 78 200 100 142 l 162 235 q 216 148 180 184 q 298 90 252 111 q 394 70 344 70 q 495 94 449 70 q 569 160 541 117 q 596 260 596 203 q 570 357 596 318 q 499 421 543 395 q 404 468 456 448 q 299 512 351 489 q 203 565 247 534 q 133 643 159 596 q 106 760 106 690 q 141 893 106 837 q 237 980 176 949 q 375 1010 298 1010 q 499 987 445 1010 q 592 925 554 963 q 650 842 630 886 l 570 809 q 525 870 553 842 q 459 913 497 897 q 374 930 421 930 q 247 885 298 930 q 195 764 195 841 q 221 667 195 705 q 292 604 248 629 q 387 558 335 578 q 492 517 439 538 q 588 464 545 495 q 658 385 631 433 q 684 265 684 338 q 645 120 684 182 q 538 23 605 58 q 391 -11 472 -11 m 461 1086 l 416 1126 l 580 1352 l 643 1297 l 461 1086 m 279 1126 q 226 1148 248 1126 q 204 1202 204 1170 q 226 1255 204 1234 q 279 1277 248 1277 q 333 1255 311 1277 q 355 1202 355 1234 q 333 1148 355 1170 q 279 1126 311 1126 z "},"Š":{"ha":781,"x_min":78,"x_max":684,"o":"m 391 -11 q 252 18 315 -11 q 144 95 189 47 q 78 200 100 142 l 162 235 q 216 148 180 184 q 298 90 252 111 q 394 70 344 70 q 495 94 449 70 q 569 160 541 117 q 596 260 596 203 q 570 357 596 318 q 499 421 543 395 q 404 468 456 448 q 299 512 351 489 q 203 565 247 534 q 133 643 159 596 q 106 760 106 690 q 141 893 106 837 q 237 980 176 949 q 375 1010 298 1010 q 499 987 445 1010 q 592 925 554 963 q 650 842 630 886 l 570 809 q 525 870 553 842 q 459 913 497 897 q 374 930 421 930 q 247 885 298 930 q 195 764 195 841 q 221 667 195 705 q 292 604 248 629 q 387 558 335 578 q 492 517 439 538 q 588 464 545 495 q 658 385 631 433 q 684 265 684 338 q 645 120 684 182 q 538 23 605 58 q 391 -11 472 -11 m 220 1246 l 382 1114 l 389 1114 l 550 1246 l 595 1194 l 401 1046 l 372 1046 l 175 1194 l 220 1246 z "},"Ṧ":{"ha":781,"x_min":78,"x_max":684,"o":"m 391 -11 q 252 18 315 -11 q 144 95 189 47 q 78 200 100 142 l 162 235 q 216 148 180 184 q 298 90 252 111 q 394 70 344 70 q 495 94 449 70 q 569 160 541 117 q 596 260 596 203 q 570 357 596 318 q 499 421 543 395 q 404 468 456 448 q 299 512 351 489 q 203 565 247 534 q 133 643 159 596 q 106 760 106 690 q 141 893 106 837 q 237 980 176 949 q 375 1010 298 1010 q 499 987 445 1010 q 592 925 554 963 q 650 842 630 886 l 570 809 q 525 870 553 842 q 459 913 497 897 q 374 930 421 930 q 247 885 298 930 q 195 764 195 841 q 221 667 195 705 q 292 604 248 629 q 387 558 335 578 q 492 517 439 538 q 588 464 545 495 q 658 385 631 433 q 684 265 684 338 q 645 120 684 182 q 538 23 605 58 q 391 -11 472 -11 m 220 1246 l 382 1114 l 389 1114 l 550 1246 l 595 1194 l 401 1046 l 372 1046 l 175 1194 l 220 1246 m 385 1240 q 331 1261 353 1240 q 310 1315 310 1283 q 331 1369 310 1348 q 385 1391 353 1391 q 439 1369 417 1391 q 460 1315 460 1348 q 439 1261 460 1283 q 385 1240 417 1240 z "},"Ş":{"ha":781,"x_min":78,"x_max":684,"o":"m 391 -11 q 252 18 315 -11 q 144 95 189 47 q 78 200 100 142 l 162 235 q 216 148 180 184 q 298 90 252 111 q 394 70 344 70 q 495 94 449 70 q 569 160 541 117 q 596 260 596 203 q 570 357 596 318 q 499 421 543 395 q 404 468 456 448 q 299 512 351 489 q 203 565 247 534 q 133 643 159 596 q 106 760 106 690 q 141 893 106 837 q 237 980 176 949 q 375 1010 298 1010 q 499 987 445 1010 q 592 925 554 963 q 650 842 630 886 l 570 809 q 525 870 553 842 q 459 913 497 897 q 374 930 421 930 q 247 885 298 930 q 195 764 195 841 q 221 667 195 705 q 292 604 248 629 q 387 558 335 578 q 492 517 439 538 q 588 464 545 495 q 658 385 631 433 q 684 265 684 338 q 645 120 684 182 q 538 23 605 58 q 391 -11 472 -11 m 290 -306 l 290 -248 q 393 -235 356 -251 q 431 -182 431 -220 q 402 -138 431 -156 q 329 -120 374 -120 l 364 0 l 418 0 l 385 -110 l 374 -77 q 460 -116 431 -87 q 490 -188 490 -146 q 439 -275 490 -245 q 290 -306 389 -306 z "},"Ŝ":{"ha":781,"x_min":78,"x_max":684,"o":"m 391 -11 q 252 18 315 -11 q 144 95 189 47 q 78 200 100 142 l 162 235 q 216 148 180 184 q 298 90 252 111 q 394 70 344 70 q 495 94 449 70 q 569 160 541 117 q 596 260 596 203 q 570 357 596 318 q 499 421 543 395 q 404 468 456 448 q 299 512 351 489 q 203 565 247 534 q 133 643 159 596 q 106 760 106 690 q 141 893 106 837 q 237 980 176 949 q 375 1010 298 1010 q 499 987 445 1010 q 592 925 554 963 q 650 842 630 886 l 570 809 q 525 870 553 842 q 459 913 497 897 q 374 930 421 930 q 247 885 298 930 q 195 764 195 841 q 221 667 195 705 q 292 604 248 629 q 387 558 335 578 q 492 517 439 538 q 588 464 545 495 q 658 385 631 433 q 684 265 684 338 q 645 120 684 182 q 538 23 605 58 q 391 -11 472 -11 m 223 1054 l 178 1105 l 375 1253 l 404 1253 l 597 1105 l 553 1054 l 393 1185 l 385 1185 l 223 1054 z "},"Ș":{"ha":781,"x_min":78,"x_max":684,"o":"m 391 -11 q 252 18 315 -11 q 144 95 189 47 q 78 200 100 142 l 162 235 q 216 148 180 184 q 298 90 252 111 q 394 70 344 70 q 495 94 449 70 q 569 160 541 117 q 596 260 596 203 q 570 357 596 318 q 499 421 543 395 q 404 468 456 448 q 299 512 351 489 q 203 565 247 534 q 133 643 159 596 q 106 760 106 690 q 141 893 106 837 q 237 980 176 949 q 375 1010 298 1010 q 499 987 445 1010 q 592 925 554 963 q 650 842 630 886 l 570 809 q 525 870 553 842 q 459 913 497 897 q 374 930 421 930 q 247 885 298 930 q 195 764 195 841 q 221 667 195 705 q 292 604 248 629 q 387 558 335 578 q 492 517 439 538 q 588 464 545 495 q 658 385 631 433 q 684 265 684 338 q 645 120 684 182 q 538 23 605 58 q 391 -11 472 -11 m 357 -355 l 329 -324 l 378 -270 q 404 -239 394 -252 q 418 -214 414 -225 q 421 -191 422 -202 l 441 -188 q 429 -210 437 -201 q 406 -220 421 -220 q 366 -202 385 -220 q 347 -158 347 -185 q 366 -114 347 -130 q 406 -97 384 -97 q 449 -116 433 -97 q 466 -169 466 -136 q 456 -220 466 -195 q 432 -263 446 -244 q 410 -292 418 -282 l 357 -355 z "},"Ṡ":{"ha":781,"x_min":78,"x_max":684,"o":"m 391 -11 q 252 18 315 -11 q 144 95 189 47 q 78 200 100 142 l 162 235 q 216 148 180 184 q 298 90 252 111 q 394 70 344 70 q 495 94 449 70 q 569 160 541 117 q 596 260 596 203 q 570 357 596 318 q 499 421 543 395 q 404 468 456 448 q 299 512 351 489 q 203 565 247 534 q 133 643 159 596 q 106 760 106 690 q 141 893 106 837 q 237 980 176 949 q 375 1010 298 1010 q 499 987 445 1010 q 592 925 554 963 q 650 842 630 886 l 570 809 q 525 870 553 842 q 459 913 497 897 q 374 930 421 930 q 247 885 298 930 q 195 764 195 841 q 221 667 195 705 q 292 604 248 629 q 387 558 335 578 q 492 517 439 538 q 588 464 545 495 q 658 385 631 433 q 684 265 684 338 q 645 120 684 182 q 538 23 605 58 q 391 -11 472 -11 m 385 1075 q 332 1097 353 1075 q 310 1150 310 1118 q 332 1204 310 1182 q 385 1225 353 1225 q 439 1204 417 1225 q 460 1150 460 1182 q 439 1097 460 1118 q 385 1075 417 1075 z "},"Ṣ":{"ha":781,"x_min":78,"x_max":684,"o":"m 391 -11 q 252 18 315 -11 q 144 95 189 47 q 78 200 100 142 l 162 235 q 216 148 180 184 q 298 90 252 111 q 394 70 344 70 q 495 94 449 70 q 569 160 541 117 q 596 260 596 203 q 570 357 596 318 q 499 421 543 395 q 404 468 456 448 q 299 512 351 489 q 203 565 247 534 q 133 643 159 596 q 106 760 106 690 q 141 893 106 837 q 237 980 176 949 q 375 1010 298 1010 q 499 987 445 1010 q 592 925 554 963 q 650 842 630 886 l 570 809 q 525 870 553 842 q 459 913 497 897 q 374 930 421 930 q 247 885 298 930 q 195 764 195 841 q 221 667 195 705 q 292 604 248 629 q 387 558 335 578 q 492 517 439 538 q 588 464 545 495 q 658 385 631 433 q 684 265 684 338 q 645 120 684 182 q 538 23 605 58 q 391 -11 472 -11 m 397 -241 q 343 -220 365 -241 q 321 -166 321 -198 q 343 -113 321 -134 q 397 -91 365 -91 q 450 -113 429 -91 q 472 -166 472 -134 q 450 -220 472 -198 q 397 -241 429 -241 z "},"Ṩ":{"ha":781,"x_min":78,"x_max":684,"o":"m 391 -11 q 252 18 315 -11 q 144 95 189 47 q 78 200 100 142 l 162 235 q 216 148 180 184 q 298 90 252 111 q 394 70 344 70 q 495 94 449 70 q 569 160 541 117 q 596 260 596 203 q 570 357 596 318 q 499 421 543 395 q 404 468 456 448 q 299 512 351 489 q 203 565 247 534 q 133 643 159 596 q 106 760 106 690 q 141 893 106 837 q 237 980 176 949 q 375 1010 298 1010 q 499 987 445 1010 q 592 925 554 963 q 650 842 630 886 l 570 809 q 525 870 553 842 q 459 913 497 897 q 374 930 421 930 q 247 885 298 930 q 195 764 195 841 q 221 667 195 705 q 292 604 248 629 q 387 558 335 578 q 492 517 439 538 q 588 464 545 495 q 658 385 631 433 q 684 265 684 338 q 645 120 684 182 q 538 23 605 58 q 391 -11 472 -11 m 395 -241 q 342 -220 363 -241 q 320 -166 320 -198 q 342 -113 320 -134 q 395 -91 363 -91 q 449 -113 427 -91 q 471 -166 471 -134 q 449 -220 471 -198 q 395 -241 427 -241 m 397 1075 q 343 1097 365 1075 q 321 1150 321 1118 q 343 1204 321 1182 q 397 1225 365 1225 q 450 1204 429 1225 q 472 1150 472 1182 q 450 1097 472 1118 q 397 1075 429 1075 z "},"ẞ":{"ha":781,"x_min":99,"x_max":716,"o":"m 425 -11 q 371 -6 398 -11 q 323 7 343 -1 l 323 92 q 379 75 353 80 q 424 70 405 70 q 528 102 481 70 q 602 189 574 134 q 629 317 629 244 q 574 481 629 420 q 417 543 518 543 l 382 543 l 382 569 l 511 934 l 516 900 q 451 921 495 912 q 366 930 406 930 q 272 913 307 930 q 218 870 236 897 q 193 810 199 843 q 186 745 186 778 l 186 0 l 99 0 l 99 748 q 107 825 99 787 q 133 897 115 863 q 182 956 151 930 q 259 996 213 981 q 368 1010 304 1010 q 446 1005 404 1010 q 529 989 488 1000 q 604 962 570 979 l 604 947 l 465 571 l 448 612 q 594 572 534 612 q 685 465 654 532 q 716 314 716 397 q 678 145 716 218 q 574 31 640 72 q 425 -11 508 -11 z "},"T":{"ha":781,"x_min":66,"x_max":715,"o":"m 347 0 l 347 937 l 435 937 l 435 0 l 347 0 m 66 919 l 66 1000 l 715 1000 l 715 919 l 66 919 z "},"Ŧ":{"ha":781,"x_min":66,"x_max":715,"o":"m 347 0 l 347 937 l 435 937 l 435 0 l 347 0 m 66 919 l 66 1000 l 715 1000 l 715 919 l 66 919 m 228 455 l 228 526 l 556 526 l 556 455 l 228 455 z "},"Ť":{"ha":781,"x_min":66,"x_max":715,"o":"m 347 0 l 347 937 l 435 937 l 435 0 l 347 0 m 66 919 l 66 1000 l 715 1000 l 715 919 l 66 919 m 226 1246 l 388 1114 l 395 1114 l 555 1246 l 600 1194 l 406 1046 l 378 1046 l 181 1194 l 226 1246 z "},"Ţ":{"ha":781,"x_min":66,"x_max":715,"o":"m 347 0 l 347 937 l 435 937 l 435 0 l 347 0 m 66 919 l 66 1000 l 715 1000 l 715 919 l 66 919 m 290 -306 l 290 -248 q 393 -235 356 -251 q 431 -182 431 -220 q 402 -138 431 -156 q 329 -120 374 -120 l 364 0 l 418 0 l 385 -110 l 374 -77 q 460 -116 431 -87 q 490 -188 490 -146 q 439 -275 490 -245 q 290 -306 389 -306 z "},"Ț":{"ha":781,"x_min":66,"x_max":715,"o":"m 347 0 l 347 937 l 435 937 l 435 0 l 347 0 m 66 919 l 66 1000 l 715 1000 l 715 919 l 66 919 m 351 -355 l 323 -324 l 372 -270 q 398 -239 388 -252 q 412 -214 408 -225 q 415 -191 416 -202 l 435 -188 q 423 -210 431 -201 q 399 -220 415 -220 q 360 -202 379 -220 q 341 -158 341 -185 q 359 -114 341 -130 q 399 -97 378 -97 q 443 -116 427 -97 q 460 -169 460 -136 q 450 -220 460 -195 q 426 -263 439 -244 q 404 -292 412 -282 l 351 -355 z "},"Ṭ":{"ha":781,"x_min":66,"x_max":715,"o":"m 347 0 l 347 937 l 435 937 l 435 0 l 347 0 m 66 919 l 66 1000 l 715 1000 l 715 919 l 66 919 m 391 -241 q 337 -220 359 -241 q 315 -166 315 -198 q 337 -113 315 -134 q 391 -91 359 -91 q 444 -113 422 -91 q 466 -166 466 -134 q 444 -220 466 -198 q 391 -241 422 -241 z "},"Ṯ":{"ha":781,"x_min":66,"x_max":715,"o":"m 347 0 l 347 937 l 435 937 l 435 0 l 347 0 m 66 919 l 66 1000 l 715 1000 l 715 919 l 66 919 m 169 -264 l 169 -203 l 612 -203 l 612 -264 l 169 -264 z "},"U":{"ha":781,"x_min":94,"x_max":687,"o":"m 390 -11 q 232 30 298 -11 q 130 145 166 71 q 94 325 94 220 l 94 1000 l 183 1000 l 183 330 q 238 139 183 209 q 390 70 294 70 q 543 139 488 70 q 598 330 598 209 l 598 1000 l 687 1000 l 687 325 q 651 145 687 220 q 549 30 615 71 q 390 -11 483 -11 z "},"Ú":{"ha":781,"x_min":94,"x_max":687,"o":"m 390 -11 q 232 30 298 -11 q 130 145 166 71 q 94 325 94 220 l 94 1000 l 183 1000 l 183 330 q 238 139 183 209 q 390 70 294 70 q 543 139 488 70 q 598 330 598 209 l 598 1000 l 687 1000 l 687 325 q 651 145 687 220 q 549 30 615 71 q 390 -11 483 -11 m 391 1054 l 347 1101 l 540 1293 l 587 1236 l 391 1054 z "},"Ŭ":{"ha":781,"x_min":94,"x_max":687,"o":"m 390 -11 q 232 30 298 -11 q 130 145 166 71 q 94 325 94 220 l 94 1000 l 183 1000 l 183 330 q 238 139 183 209 q 390 70 294 70 q 543 139 488 70 q 598 330 598 209 l 598 1000 l 687 1000 l 687 325 q 651 145 687 220 q 549 30 615 71 q 390 -11 483 -11 m 391 1057 q 289 1079 335 1057 q 216 1141 243 1101 q 189 1232 189 1180 l 250 1232 q 291 1148 250 1179 q 391 1118 332 1118 q 493 1148 452 1118 q 534 1232 534 1179 l 594 1232 q 569 1141 596 1180 q 495 1079 542 1101 q 391 1057 448 1057 z "},"Û":{"ha":781,"x_min":94,"x_max":687,"o":"m 390 -11 q 232 30 298 -11 q 130 145 166 71 q 94 325 94 220 l 94 1000 l 183 1000 l 183 330 q 238 139 183 209 q 390 70 294 70 q 543 139 488 70 q 598 330 598 209 l 598 1000 l 687 1000 l 687 325 q 651 145 687 220 q 549 30 615 71 q 390 -11 483 -11 m 229 1054 l 184 1105 l 380 1253 l 409 1253 l 603 1105 l 558 1054 l 398 1185 l 391 1185 l 229 1054 z "},"Ȕ":{"ha":781,"x_min":94,"x_max":687,"o":"m 390 -11 q 232 30 298 -11 q 130 145 166 71 q 94 325 94 220 l 94 1000 l 183 1000 l 183 330 q 238 139 183 209 q 390 70 294 70 q 543 139 488 70 q 598 330 598 209 l 598 1000 l 687 1000 l 687 325 q 651 145 687 220 q 549 30 615 71 q 390 -11 483 -11 m 261 1080 l 119 1295 l 186 1332 l 309 1103 l 261 1080 m 465 1080 l 330 1295 l 397 1332 l 517 1103 l 465 1080 z "},"Ü":{"ha":781,"x_min":94,"x_max":687,"o":"m 390 -11 q 232 30 298 -11 q 130 145 166 71 q 94 325 94 220 l 94 1000 l 183 1000 l 183 330 q 238 139 183 209 q 390 70 294 70 q 543 139 488 70 q 598 330 598 209 l 598 1000 l 687 1000 l 687 325 q 651 145 687 220 q 549 30 615 71 q 390 -11 483 -11 m 531 1078 q 479 1099 500 1078 q 458 1149 458 1120 q 479 1201 458 1181 q 531 1222 500 1222 q 583 1201 562 1222 q 604 1149 604 1181 q 583 1099 604 1120 q 531 1078 562 1078 m 255 1078 q 204 1099 225 1078 q 182 1149 182 1120 q 204 1201 182 1181 q 255 1222 225 1222 q 307 1201 286 1222 q 327 1149 327 1181 q 307 1099 327 1120 q 255 1078 286 1078 z "},"Ụ":{"ha":781,"x_min":94,"x_max":687,"o":"m 390 -11 q 232 30 298 -11 q 130 145 166 71 q 94 325 94 220 l 94 1000 l 183 1000 l 183 330 q 238 139 183 209 q 390 70 294 70 q 543 139 488 70 q 598 330 598 209 l 598 1000 l 687 1000 l 687 325 q 651 145 687 220 q 549 30 615 71 q 390 -11 483 -11 m 391 -241 q 337 -220 359 -241 q 315 -166 315 -198 q 337 -113 315 -134 q 391 -91 359 -91 q 444 -113 422 -91 q 466 -166 466 -134 q 444 -220 466 -198 q 391 -241 422 -241 z "},"Ù":{"ha":781,"x_min":94,"x_max":687,"o":"m 390 -11 q 232 30 298 -11 q 130 145 166 71 q 94 325 94 220 l 94 1000 l 183 1000 l 183 330 q 238 139 183 209 q 390 70 294 70 q 543 139 488 70 q 598 330 598 209 l 598 1000 l 687 1000 l 687 325 q 651 145 687 220 q 549 30 615 71 q 390 -11 483 -11 m 391 1054 l 195 1236 l 241 1293 l 434 1101 l 391 1054 z "},"Ủ":{"ha":781,"x_min":94,"x_max":687,"o":"m 390 -11 q 232 30 298 -11 q 130 145 166 71 q 94 325 94 220 l 94 1000 l 183 1000 l 183 330 q 238 139 183 209 q 390 70 294 70 q 543 139 488 70 q 598 330 598 209 l 598 1000 l 687 1000 l 687 325 q 651 145 687 220 q 549 30 615 71 q 390 -11 483 -11 m 408 1086 l 370 1128 q 413 1163 395 1141 q 431 1209 431 1185 q 413 1249 431 1235 q 363 1263 395 1263 q 327 1259 347 1263 q 291 1249 307 1255 l 291 1311 q 330 1321 307 1318 q 368 1324 353 1324 q 458 1296 426 1324 q 490 1218 490 1267 q 467 1140 490 1177 q 408 1086 443 1103 z "},"Ư":{"ha":781,"x_min":94,"x_max":881,"o":"m 390 -11 q 232 30 298 -11 q 130 145 166 71 q 94 325 94 220 l 94 1000 l 183 1000 l 183 330 q 238 139 183 209 q 390 70 294 70 q 543 139 488 70 q 598 330 598 209 l 598 1000 l 687 1000 l 687 325 q 651 145 687 220 q 549 30 615 71 q 390 -11 483 -11 m 659 939 l 657 1000 q 766 1039 726 1001 q 806 1147 806 1076 q 805 1180 806 1161 q 801 1212 803 1200 l 871 1223 q 878 1184 876 1208 q 880 1141 880 1160 q 849 1029 880 1075 q 768 960 819 983 q 659 939 718 937 z "},"Ứ":{"ha":781,"x_min":94,"x_max":881,"o":"m 390 -11 q 232 30 298 -11 q 130 145 166 71 q 94 325 94 220 l 94 1000 l 183 1000 l 183 330 q 238 139 183 209 q 390 70 294 70 q 543 139 488 70 q 598 330 598 209 l 598 1000 l 687 1000 l 687 325 q 651 145 687 220 q 549 30 615 71 q 390 -11 483 -11 m 659 939 l 657 1000 q 766 1039 726 1001 q 806 1147 806 1076 q 805 1180 806 1161 q 801 1212 803 1200 l 871 1223 q 878 1184 876 1208 q 880 1141 880 1160 q 849 1029 880 1075 q 768 960 819 983 q 659 939 718 937 m 391 1054 l 347 1101 l 540 1293 l 587 1236 l 391 1054 z "},"Ự":{"ha":781,"x_min":94,"x_max":881,"o":"m 390 -11 q 232 30 298 -11 q 130 145 166 71 q 94 325 94 220 l 94 1000 l 183 1000 l 183 330 q 238 139 183 209 q 390 70 294 70 q 543 139 488 70 q 598 330 598 209 l 598 1000 l 687 1000 l 687 325 q 651 145 687 220 q 549 30 615 71 q 390 -11 483 -11 m 659 939 l 657 1000 q 766 1039 726 1001 q 806 1147 806 1076 q 805 1180 806 1161 q 801 1212 803 1200 l 871 1223 q 878 1184 876 1208 q 880 1141 880 1160 q 849 1029 880 1075 q 768 960 819 983 q 659 939 718 937 m 391 -241 q 337 -220 359 -241 q 315 -166 315 -198 q 337 -113 315 -134 q 391 -91 359 -91 q 444 -113 422 -91 q 466 -166 466 -134 q 444 -220 466 -198 q 391 -241 422 -241 z "},"Ừ":{"ha":781,"x_min":94,"x_max":881,"o":"m 390 -11 q 232 30 298 -11 q 130 145 166 71 q 94 325 94 220 l 94 1000 l 183 1000 l 183 330 q 238 139 183 209 q 390 70 294 70 q 543 139 488 70 q 598 330 598 209 l 598 1000 l 687 1000 l 687 325 q 651 145 687 220 q 549 30 615 71 q 390 -11 483 -11 m 659 939 l 657 1000 q 766 1039 726 1001 q 806 1147 806 1076 q 805 1180 806 1161 q 801 1212 803 1200 l 871 1223 q 878 1184 876 1208 q 880 1141 880 1160 q 849 1029 880 1075 q 768 960 819 983 q 659 939 718 937 m 391 1054 l 195 1236 l 241 1293 l 434 1101 l 391 1054 z "},"Ử":{"ha":781,"x_min":94,"x_max":881,"o":"m 390 -11 q 232 30 298 -11 q 130 145 166 71 q 94 325 94 220 l 94 1000 l 183 1000 l 183 330 q 238 139 183 209 q 390 70 294 70 q 543 139 488 70 q 598 330 598 209 l 598 1000 l 687 1000 l 687 325 q 651 145 687 220 q 549 30 615 71 q 390 -11 483 -11 m 659 939 l 657 1000 q 766 1039 726 1001 q 806 1147 806 1076 q 805 1180 806 1161 q 801 1212 803 1200 l 871 1223 q 878 1184 876 1208 q 880 1141 880 1160 q 849 1029 880 1075 q 768 960 819 983 q 659 939 718 937 m 408 1086 l 370 1128 q 413 1163 395 1141 q 431 1209 431 1185 q 413 1249 431 1235 q 363 1263 395 1263 q 327 1259 347 1263 q 291 1249 307 1255 l 291 1311 q 330 1321 307 1318 q 368 1324 353 1324 q 458 1296 426 1324 q 490 1218 490 1267 q 467 1140 490 1177 q 408 1086 443 1103 z "},"Ữ":{"ha":781,"x_min":94,"x_max":881,"o":"m 390 -11 q 232 30 298 -11 q 130 145 166 71 q 94 325 94 220 l 94 1000 l 183 1000 l 183 330 q 238 139 183 209 q 390 70 294 70 q 543 139 488 70 q 598 330 598 209 l 598 1000 l 687 1000 l 687 325 q 651 145 687 220 q 549 30 615 71 q 390 -11 483 -11 m 659 939 l 657 1000 q 766 1039 726 1001 q 806 1147 806 1076 q 805 1180 806 1161 q 801 1212 803 1200 l 871 1223 q 878 1184 876 1208 q 880 1141 880 1160 q 849 1029 880 1075 q 768 960 819 983 q 659 939 718 937 m 185 1080 q 219 1187 186 1146 q 303 1228 252 1228 q 359 1215 336 1228 q 399 1184 382 1202 q 433 1154 416 1167 q 471 1141 450 1141 q 515 1167 500 1141 q 531 1228 531 1193 l 593 1228 q 562 1122 595 1164 q 475 1080 530 1080 q 422 1093 444 1080 q 381 1123 399 1106 q 346 1153 363 1140 q 306 1166 328 1166 q 264 1142 279 1166 q 249 1080 249 1119 l 185 1080 z "},"Ű":{"ha":781,"x_min":94,"x_max":687,"o":"m 390 -11 q 232 30 298 -11 q 130 145 166 71 q 94 325 94 220 l 94 1000 l 183 1000 l 183 330 q 238 139 183 209 q 390 70 294 70 q 543 139 488 70 q 598 330 598 209 l 598 1000 l 687 1000 l 687 325 q 651 145 687 220 q 549 30 615 71 q 390 -11 483 -11 m 314 1080 l 263 1103 l 389 1332 l 452 1295 l 314 1080 m 521 1080 l 474 1103 l 595 1332 l 660 1295 l 521 1080 z "},"Ȗ":{"ha":781,"x_min":94,"x_max":687,"o":"m 390 -11 q 232 30 298 -11 q 130 145 166 71 q 94 325 94 220 l 94 1000 l 183 1000 l 183 330 q 238 139 183 209 q 390 70 294 70 q 543 139 488 70 q 598 330 598 209 l 598 1000 l 687 1000 l 687 325 q 651 145 687 220 q 549 30 615 71 q 390 -11 482 -11 m 389 1238 q 494 1216 447 1238 q 568 1154 541 1194 q 593 1063 595 1115 l 532 1063 q 491 1147 532 1117 q 389 1177 450 1177 q 289 1147 330 1177 q 248 1063 248 1117 l 188 1063 q 215 1154 188 1115 q 288 1216 242 1194 q 389 1238 334 1238 z "},"Ū":{"ha":781,"x_min":94,"x_max":687,"o":"m 390 -11 q 232 30 298 -11 q 130 145 166 71 q 94 325 94 220 l 94 1000 l 183 1000 l 183 330 q 238 139 183 209 q 390 70 294 70 q 543 139 488 70 q 598 330 598 209 l 598 1000 l 687 1000 l 687 325 q 651 145 687 220 q 549 30 615 71 q 390 -11 483 -11 m 157 1116 l 157 1183 l 624 1183 l 624 1116 l 157 1116 z "},"Ṻ":{"ha":781,"x_min":94,"x_max":687,"o":"m 390 -11 q 232 30 298 -11 q 130 145 166 71 q 94 325 94 220 l 94 1000 l 183 1000 l 183 330 q 238 139 183 209 q 390 70 294 70 q 543 139 488 70 q 598 330 598 209 l 598 1000 l 687 1000 l 687 325 q 651 145 687 220 q 549 30 615 71 q 390 -11 483 -11 m 157 1116 l 157 1183 l 624 1183 l 624 1116 l 157 1116 m 531 1261 q 479 1282 500 1261 q 458 1333 458 1303 q 479 1385 458 1364 q 531 1406 500 1406 q 583 1385 562 1406 q 604 1333 604 1364 q 583 1282 604 1303 q 531 1261 562 1261 m 255 1261 q 204 1282 225 1261 q 182 1333 182 1303 q 204 1385 182 1364 q 255 1406 225 1406 q 307 1385 286 1406 q 327 1333 327 1364 q 307 1282 327 1303 q 255 1261 286 1261 z "},"Ų":{"ha":781,"x_min":94,"x_max":687,"o":"m 390 -11 q 232 30 298 -11 q 130 145 166 71 q 94 325 94 220 l 94 1000 l 183 1000 l 183 330 q 238 139 183 209 q 390 70 294 70 q 543 139 488 70 q 598 330 598 209 l 598 1000 l 687 1000 l 687 325 q 651 145 687 220 q 549 30 615 71 q 390 -11 483 -11 m 399 -272 q 324 -241 353 -272 q 294 -163 294 -211 q 331 -66 294 -109 q 418 21 368 -24 l 469 0 q 417 -53 443 -28 q 373 -102 391 -77 q 355 -157 355 -127 q 373 -198 355 -183 q 414 -213 390 -213 q 457 -203 436 -213 q 491 -184 479 -194 l 491 -245 q 450 -264 477 -257 q 399 -272 422 -272 z "},"Ů":{"ha":781,"x_min":94,"x_max":687,"o":"m 390 -11 q 232 30 298 -11 q 130 145 166 71 q 94 325 94 220 l 94 1000 l 183 1000 l 183 330 q 238 139 183 209 q 390 70 294 70 q 543 139 488 70 q 598 330 598 209 l 598 1000 l 687 1000 l 687 325 q 651 145 687 220 q 549 30 615 71 q 390 -11 483 -11 m 391 1044 q 319 1063 351 1044 q 269 1114 288 1082 q 250 1187 250 1146 q 269 1260 250 1227 q 319 1312 288 1293 q 391 1331 351 1331 q 461 1312 430 1331 q 511 1260 493 1293 q 530 1187 530 1227 q 511 1114 530 1146 q 461 1063 493 1082 q 391 1044 430 1044 m 391 1105 q 448 1129 427 1105 q 470 1187 470 1153 q 448 1247 470 1224 q 391 1271 426 1271 q 333 1247 357 1271 q 309 1187 309 1224 q 333 1129 309 1153 q 391 1105 357 1105 z "},"Ũ":{"ha":781,"x_min":94,"x_max":687,"o":"m 390 -11 q 232 30 298 -11 q 130 145 166 71 q 94 325 94 220 l 94 1000 l 183 1000 l 183 330 q 238 139 183 209 q 390 70 294 70 q 543 139 488 70 q 598 330 598 209 l 598 1000 l 687 1000 l 687 325 q 651 145 687 220 q 549 30 615 71 q 390 -11 483 -11 m 185 1080 q 219 1187 186 1146 q 303 1228 252 1228 q 359 1215 336 1228 q 399 1184 382 1202 q 433 1154 416 1167 q 471 1141 450 1141 q 515 1167 500 1141 q 531 1228 531 1193 l 593 1228 q 562 1122 595 1164 q 475 1080 530 1080 q 422 1093 444 1080 q 381 1123 399 1106 q 346 1153 363 1140 q 306 1166 328 1166 q 264 1142 279 1166 q 249 1080 249 1119 l 185 1080 z "},"Ṹ":{"ha":781,"x_min":94,"x_max":687,"o":"m 390 -11 q 232 30 298 -11 q 130 145 166 71 q 94 325 94 220 l 94 1000 l 183 1000 l 183 330 q 238 139 183 209 q 390 70 294 70 q 543 139 488 70 q 598 330 598 209 l 598 1000 l 687 1000 l 687 325 q 651 145 687 220 q 549 30 615 71 q 390 -11 483 -11 m 185 1080 q 219 1187 186 1146 q 303 1228 252 1228 q 359 1215 336 1228 q 399 1184 382 1202 q 433 1154 416 1167 q 471 1141 450 1141 q 515 1167 500 1141 q 531 1228 531 1193 l 593 1228 q 562 1122 595 1164 q 475 1080 530 1080 q 422 1093 444 1080 q 381 1123 399 1106 q 346 1153 363 1140 q 306 1166 328 1166 q 264 1142 279 1166 q 249 1080 249 1119 l 185 1080 m 391 1262 l 347 1310 l 540 1501 l 587 1444 l 391 1262 z "},"V":{"ha":781,"x_min":13,"x_max":767,"o":"m 346 0 l 13 1000 l 106 1000 l 283 450 l 388 123 l 393 123 l 499 450 l 674 1000 l 767 1000 l 437 0 l 346 0 z "},"W":{"ha":781,"x_min":42,"x_max":740,"o":"m 158 0 q 103 225 130 112 q 59 453 77 339 q 42 680 42 568 l 42 1000 l 130 1000 l 130 680 q 142 486 130 582 q 172 299 154 389 q 208 127 190 209 l 213 127 l 366 636 l 415 636 l 568 127 l 574 127 q 609 291 591 201 q 640 481 627 382 q 652 680 652 581 l 652 1000 l 740 1000 l 740 680 q 723 455 740 569 q 679 226 705 340 q 623 0 652 112 l 529 0 l 393 456 l 388 456 l 252 0 l 158 0 z "},"Ẃ":{"ha":781,"x_min":42,"x_max":740,"o":"m 158 0 q 103 225 130 112 q 59 453 77 339 q 42 680 42 568 l 42 1000 l 130 1000 l 130 680 q 142 486 130 582 q 172 299 154 389 q 208 127 190 209 l 213 127 l 366 636 l 415 636 l 568 127 l 574 127 q 609 291 591 201 q 640 481 627 382 q 652 680 652 581 l 652 1000 l 740 1000 l 740 680 q 723 455 740 569 q 679 226 705 340 q 623 0 652 112 l 529 0 l 393 456 l 388 456 l 252 0 l 158 0 m 391 1054 l 347 1101 l 540 1293 l 587 1236 l 391 1054 z "},"Ŵ":{"ha":781,"x_min":42,"x_max":740,"o":"m 158 0 q 103 225 130 112 q 59 453 77 339 q 42 680 42 568 l 42 1000 l 130 1000 l 130 680 q 142 486 130 582 q 172 299 154 389 q 208 127 190 209 l 213 127 l 366 636 l 415 636 l 568 127 l 574 127 q 609 291 591 201 q 640 481 627 382 q 652 680 652 581 l 652 1000 l 740 1000 l 740 680 q 723 455 740 569 q 679 226 705 340 q 623 0 652 112 l 529 0 l 393 456 l 388 456 l 252 0 l 158 0 m 229 1054 l 184 1105 l 380 1253 l 409 1253 l 603 1105 l 558 1054 l 398 1185 l 391 1185 l 229 1054 z "},"Ẅ":{"ha":781,"x_min":42,"x_max":740,"o":"m 158 0 q 103 225 130 112 q 59 453 77 339 q 42 680 42 568 l 42 1000 l 130 1000 l 130 680 q 142 486 130 582 q 172 299 154 389 q 208 127 190 209 l 213 127 l 366 636 l 415 636 l 568 127 l 574 127 q 609 291 591 201 q 640 481 627 382 q 652 680 652 581 l 652 1000 l 740 1000 l 740 680 q 723 455 740 569 q 679 226 705 340 q 623 0 652 112 l 529 0 l 393 456 l 388 456 l 252 0 l 158 0 m 531 1078 q 479 1099 500 1078 q 458 1149 458 1120 q 479 1201 458 1181 q 531 1222 500 1222 q 583 1201 562 1222 q 604 1149 604 1181 q 583 1099 604 1120 q 531 1078 562 1078 m 255 1078 q 204 1099 225 1078 q 182 1149 182 1120 q 204 1201 182 1181 q 255 1222 225 1222 q 307 1201 286 1222 q 327 1149 327 1181 q 307 1099 327 1120 q 255 1078 286 1078 z "},"Ẁ":{"ha":781,"x_min":42,"x_max":740,"o":"m 158 0 q 103 225 130 112 q 59 453 77 339 q 42 680 42 568 l 42 1000 l 130 1000 l 130 680 q 142 486 130 582 q 172 299 154 389 q 208 127 190 209 l 213 127 l 366 636 l 415 636 l 568 127 l 574 127 q 609 291 591 201 q 640 481 627 382 q 652 680 652 581 l 652 1000 l 740 1000 l 740 680 q 723 455 740 569 q 679 226 705 340 q 623 0 652 112 l 529 0 l 393 456 l 388 456 l 252 0 l 158 0 m 391 1054 l 195 1236 l 241 1293 l 434 1101 l 391 1054 z "},"X":{"ha":781,"x_min":40,"x_max":741,"o":"m 635 0 l 393 434 l 385 434 l 332 496 l 332 502 l 43 1000 l 142 1000 l 388 561 l 395 561 l 449 503 l 449 498 l 741 0 l 635 0 m 40 0 l 332 498 l 332 503 l 385 561 l 393 561 l 638 1000 l 737 1000 l 449 502 l 449 496 l 395 434 l 388 434 l 144 0 l 40 0 z "},"Y":{"ha":781,"x_min":28,"x_max":751,"o":"m 346 0 l 346 444 l 28 1000 l 128 1000 l 277 732 l 387 532 l 393 532 l 503 732 l 652 1000 l 751 1000 l 434 444 l 434 0 l 346 0 z "},"Ý":{"ha":781,"x_min":28,"x_max":751,"o":"m 346 0 l 346 444 l 28 1000 l 128 1000 l 277 732 l 387 532 l 393 532 l 503 732 l 652 1000 l 751 1000 l 434 444 l 434 0 l 346 0 m 390 1054 l 347 1101 l 539 1293 l 586 1236 l 390 1054 z "},"Ŷ":{"ha":781,"x_min":28,"x_max":751,"o":"m 346 0 l 346 444 l 28 1000 l 128 1000 l 277 732 l 387 532 l 393 532 l 503 732 l 652 1000 l 751 1000 l 434 444 l 434 0 l 346 0 m 228 1054 l 183 1105 l 380 1253 l 408 1253 l 602 1105 l 557 1054 l 397 1185 l 390 1185 l 228 1054 z "},"Ÿ":{"ha":781,"x_min":28,"x_max":751,"o":"m 346 0 l 346 444 l 28 1000 l 128 1000 l 277 732 l 387 532 l 393 532 l 503 732 l 652 1000 l 751 1000 l 434 444 l 434 0 l 346 0 m 530 1078 q 479 1099 500 1078 q 458 1149 458 1120 q 479 1201 458 1181 q 530 1222 500 1222 q 582 1201 561 1222 q 603 1149 603 1181 q 582 1099 603 1120 q 530 1078 561 1078 m 254 1078 q 203 1099 224 1078 q 182 1149 182 1120 q 203 1201 182 1181 q 254 1222 224 1222 q 306 1201 286 1222 q 326 1149 326 1181 q 306 1099 326 1120 q 254 1078 286 1078 z "},"Ẏ":{"ha":781,"x_min":28,"x_max":751,"o":"m 346 0 l 346 444 l 28 1000 l 128 1000 l 277 732 l 387 532 l 393 532 l 503 732 l 652 1000 l 751 1000 l 434 444 l 434 0 l 346 0 m 390 1075 q 336 1097 358 1075 q 315 1150 315 1118 q 336 1204 315 1182 q 390 1225 358 1225 q 444 1204 422 1225 q 465 1150 465 1182 q 444 1097 465 1118 q 390 1075 422 1075 z "},"Ỵ":{"ha":781,"x_min":28,"x_max":751,"o":"m 346 0 l 346 444 l 28 1000 l 128 1000 l 277 732 l 387 532 l 393 532 l 503 732 l 652 1000 l 751 1000 l 434 444 l 434 0 l 346 0 m 389 -241 q 335 -220 357 -241 q 313 -166 313 -198 q 335 -113 313 -134 q 389 -91 357 -91 q 442 -113 420 -91 q 464 -166 464 -134 q 442 -220 464 -198 q 389 -241 420 -241 z "},"Ỳ":{"ha":781,"x_min":28,"x_max":751,"o":"m 346 0 l 346 444 l 28 1000 l 128 1000 l 277 732 l 387 532 l 393 532 l 503 732 l 652 1000 l 751 1000 l 434 444 l 434 0 l 346 0 m 390 1054 l 194 1236 l 241 1293 l 433 1101 l 390 1054 z "},"Ỷ":{"ha":781,"x_min":28,"x_max":751,"o":"m 346 0 l 346 444 l 28 1000 l 128 1000 l 277 732 l 387 532 l 393 532 l 503 732 l 652 1000 l 751 1000 l 434 444 l 434 0 l 346 0 m 408 1086 l 370 1128 q 413 1163 395 1141 q 431 1209 431 1185 q 413 1249 431 1235 q 363 1263 395 1263 q 326 1259 347 1263 q 290 1249 306 1255 l 290 1311 q 330 1321 307 1318 q 368 1324 353 1324 q 457 1296 425 1324 q 490 1218 490 1267 q 466 1140 490 1177 q 408 1086 442 1103 z "},"Ȳ":{"ha":781,"x_min":28,"x_max":751,"o":"m 346 0 l 346 444 l 28 1000 l 128 1000 l 277 732 l 387 532 l 393 532 l 503 732 l 652 1000 l 751 1000 l 434 444 l 434 0 l 346 0 m 156 1116 l 156 1183 l 623 1183 l 623 1116 l 156 1116 z "},"Ỹ":{"ha":781,"x_min":28,"x_max":751,"o":"m 346 0 l 346 444 l 28 1000 l 128 1000 l 277 732 l 387 532 l 393 532 l 503 732 l 652 1000 l 751 1000 l 434 444 l 434 0 l 346 0 m 184 1080 q 218 1187 185 1146 q 302 1228 251 1228 q 358 1215 336 1228 q 398 1184 381 1202 q 432 1154 416 1167 q 470 1141 449 1141 q 515 1167 499 1141 q 530 1228 530 1193 l 593 1228 q 562 1122 594 1164 q 474 1080 529 1080 q 421 1093 444 1080 q 381 1123 399 1106 q 345 1153 363 1140 q 305 1166 327 1166 q 263 1142 279 1166 q 248 1080 248 1119 l 184 1080 z "},"Z":{"ha":781,"x_min":79,"x_max":701,"o":"m 79 0 l 79 26 l 559 916 l 559 919 l 109 919 l 109 1000 l 690 1000 l 690 974 l 211 84 l 211 81 l 701 81 l 701 0 l 79 0 z "},"Ź":{"ha":781,"x_min":79,"x_max":701,"o":"m 79 0 l 79 26 l 559 916 l 559 919 l 109 919 l 109 1000 l 690 1000 l 690 974 l 211 84 l 211 81 l 701 81 l 701 0 l 79 0 m 400 1054 l 357 1101 l 549 1293 l 596 1236 l 400 1054 z "},"Ž":{"ha":781,"x_min":79,"x_max":701,"o":"m 79 0 l 79 26 l 559 916 l 559 919 l 109 919 l 109 1000 l 690 1000 l 690 974 l 211 84 l 211 81 l 701 81 l 701 0 l 79 0 m 235 1246 l 397 1114 l 405 1114 l 565 1246 l 610 1194 l 416 1046 l 387 1046 l 191 1194 l 235 1246 z "},"Ż":{"ha":781,"x_min":79,"x_max":701,"o":"m 79 0 l 79 26 l 559 916 l 559 919 l 109 919 l 109 1000 l 690 1000 l 690 974 l 211 84 l 211 81 l 701 81 l 701 0 l 79 0 m 400 1075 q 347 1097 368 1075 q 325 1150 325 1118 q 347 1204 325 1182 q 400 1225 368 1225 q 454 1204 432 1225 q 475 1150 475 1182 q 454 1097 475 1118 q 400 1075 432 1075 z "},"Ẓ":{"ha":781,"x_min":79,"x_max":701,"o":"m 79 0 l 79 26 l 559 916 l 559 919 l 109 919 l 109 1000 l 690 1000 l 690 974 l 211 84 l 211 81 l 701 81 l 701 0 l 79 0 m 404 -241 q 350 -220 372 -241 q 328 -166 328 -198 q 350 -113 328 -134 q 404 -91 372 -91 q 457 -113 435 -91 q 479 -166 479 -134 q 457 -220 479 -198 q 404 -241 435 -241 z "},"a":{"ha":781,"x_min":92,"x_max":698,"o":"m 325 -11 q 206 15 259 -11 q 122 89 153 41 q 92 199 92 136 q 129 318 92 267 q 242 400 167 370 q 432 430 318 430 l 576 430 l 576 360 l 436 360 q 302 342 361 360 q 209 289 243 325 q 174 199 174 254 q 196 128 174 159 q 253 80 217 98 q 332 63 289 63 q 436 87 384 63 q 522 155 488 112 q 557 254 557 198 l 557 353 l 555 380 l 555 463 q 550 526 555 494 q 529 586 545 559 q 478 631 512 614 q 386 649 444 649 q 314 640 354 649 q 237 614 275 630 q 172 578 199 599 l 140 654 q 216 692 172 675 q 306 718 259 709 q 393 727 352 727 q 543 690 490 727 q 616 594 595 654 q 637 463 637 534 l 637 186 q 649 110 637 139 q 688 70 662 81 l 698 65 l 667 -11 l 648 -3 q 589 46 611 14 q 564 117 566 79 l 578 110 l 546 110 l 568 123 q 474 29 538 68 q 325 -11 410 -11 z "},"á":{"ha":781,"x_min":92,"x_max":698,"o":"m 325 -11 q 206 15 259 -11 q 122 89 153 41 q 92 199 92 136 q 129 318 92 267 q 242 400 167 370 q 432 430 318 430 l 576 430 l 576 360 l 436 360 q 302 342 361 360 q 209 289 243 325 q 174 199 174 254 q 196 128 174 159 q 253 80 217 98 q 332 63 289 63 q 436 87 384 63 q 522 155 488 112 q 557 254 557 198 l 557 353 l 555 380 l 555 463 q 550 526 555 494 q 529 586 545 559 q 478 631 512 614 q 386 649 444 649 q 314 640 354 649 q 237 614 275 630 q 172 578 199 599 l 140 654 q 216 692 172 675 q 306 718 259 709 q 393 727 352 727 q 543 690 490 727 q 616 594 595 654 q 637 463 637 534 l 637 186 q 649 110 637 139 q 688 70 662 81 l 698 65 l 667 -11 l 648 -3 q 589 46 611 14 q 564 117 566 79 l 578 110 l 546 110 l 568 123 q 474 29 538 68 q 325 -11 410 -11 m 388 802 l 342 842 l 507 1067 l 570 1013 l 388 802 z "},"ă":{"ha":781,"x_min":92,"x_max":698,"o":"m 325 -11 q 206 15 259 -11 q 122 89 153 41 q 92 199 92 136 q 129 318 92 267 q 242 400 167 370 q 432 430 318 430 l 576 430 l 576 360 l 436 360 q 302 342 361 360 q 209 289 243 325 q 174 199 174 254 q 196 128 174 159 q 253 80 217 98 q 332 63 289 63 q 436 87 384 63 q 522 155 488 112 q 557 254 557 198 l 557 353 l 555 380 l 555 463 q 550 526 555 494 q 529 586 545 559 q 478 631 512 614 q 386 649 444 649 q 314 640 354 649 q 237 614 275 630 q 172 578 199 599 l 140 654 q 216 692 172 675 q 306 718 259 709 q 393 727 352 727 q 543 690 490 727 q 616 594 595 654 q 637 463 637 534 l 637 186 q 649 110 637 139 q 688 70 662 81 l 698 65 l 667 -11 l 648 -3 q 589 46 611 14 q 564 117 566 79 l 578 110 l 546 110 l 568 123 q 474 29 538 68 q 325 -11 410 -11 m 391 825 q 289 852 335 825 q 215 924 242 878 q 188 1026 188 969 l 250 1026 q 291 925 250 966 q 391 884 332 884 q 492 925 452 884 q 533 1026 532 966 l 595 1026 q 569 924 596 969 q 496 852 542 878 q 391 825 450 825 z "},"ắ":{"ha":781,"x_min":92,"x_max":698,"o":"m 325 -11 q 206 15 259 -11 q 122 89 153 41 q 92 199 92 136 q 129 318 92 267 q 242 400 167 370 q 432 430 318 430 l 576 430 l 576 360 l 436 360 q 302 342 361 360 q 209 289 243 325 q 174 199 174 254 q 196 128 174 159 q 253 80 217 98 q 332 63 289 63 q 436 87 384 63 q 522 155 488 112 q 557 254 557 198 l 557 353 l 555 380 l 555 463 q 550 526 555 494 q 529 586 545 559 q 478 631 512 614 q 386 649 444 649 q 314 640 354 649 q 237 614 275 630 q 172 578 199 599 l 140 654 q 216 692 172 675 q 306 718 259 709 q 393 727 352 727 q 543 690 490 727 q 616 594 595 654 q 637 463 637 534 l 637 186 q 649 110 637 139 q 688 70 662 81 l 698 65 l 667 -11 l 648 -3 q 589 46 611 14 q 564 117 566 79 l 578 110 l 546 110 l 568 123 q 474 29 538 68 q 325 -11 410 -11 m 372 949 l 333 997 l 526 1187 l 570 1131 l 372 949 m 391 825 q 287 849 333 825 q 214 913 241 872 q 188 1006 188 954 l 248 1006 q 288 917 248 952 q 391 882 329 882 q 493 917 453 882 q 533 1006 533 952 l 594 1006 q 568 913 594 954 q 496 849 541 872 q 391 825 450 825 z "},"ặ":{"ha":781,"x_min":92,"x_max":698,"o":"m 325 -11 q 206 15 259 -11 q 122 89 153 41 q 92 199 92 136 q 129 318 92 267 q 242 400 167 370 q 432 430 318 430 l 576 430 l 576 360 l 436 360 q 302 342 361 360 q 209 289 243 325 q 174 199 174 254 q 196 128 174 159 q 253 80 217 98 q 332 63 289 63 q 436 87 384 63 q 522 155 488 112 q 557 254 557 198 l 557 353 l 555 380 l 555 463 q 550 526 555 494 q 529 586 545 559 q 478 631 512 614 q 386 649 444 649 q 314 640 354 649 q 237 614 275 630 q 172 578 199 599 l 140 654 q 216 692 172 675 q 306 718 259 709 q 393 727 352 727 q 543 690 490 727 q 616 594 595 654 q 637 463 637 534 l 637 186 q 649 110 637 139 q 688 70 662 81 l 698 65 l 667 -11 l 648 -3 q 589 46 611 14 q 564 117 566 79 l 578 110 l 546 110 l 568 123 q 474 29 538 68 q 325 -11 410 -11 m 383 -241 q 330 -220 351 -241 q 308 -166 308 -198 q 330 -113 308 -134 q 383 -91 351 -91 q 437 -113 415 -91 q 458 -166 458 -134 q 437 -220 458 -198 q 383 -241 415 -241 m 391 825 q 289 852 335 825 q 215 924 242 878 q 188 1026 188 969 l 250 1026 q 291 925 250 966 q 391 884 332 884 q 492 925 452 884 q 533 1026 532 966 l 595 1026 q 569 924 596 969 q 496 852 542 878 q 391 825 450 825 z "},"ằ":{"ha":781,"x_min":92,"x_max":698,"o":"m 325 -11 q 206 15 259 -11 q 122 89 153 41 q 92 199 92 136 q 129 318 92 267 q 242 400 167 370 q 432 430 318 430 l 576 430 l 576 360 l 436 360 q 302 342 361 360 q 209 289 243 325 q 174 199 174 254 q 196 128 174 159 q 253 80 217 98 q 332 63 289 63 q 436 87 384 63 q 522 155 488 112 q 557 254 557 198 l 557 353 l 555 380 l 555 463 q 550 526 555 494 q 529 586 545 559 q 478 631 512 614 q 386 649 444 649 q 314 640 354 649 q 237 614 275 630 q 172 578 199 599 l 140 654 q 216 692 172 675 q 306 718 259 709 q 393 727 352 727 q 543 690 490 727 q 616 594 595 654 q 637 463 637 534 l 637 186 q 649 110 637 139 q 688 70 662 81 l 698 65 l 667 -11 l 648 -3 q 589 46 611 14 q 564 117 566 79 l 578 110 l 546 110 l 568 123 q 474 29 538 68 q 325 -11 410 -11 m 410 949 l 212 1131 l 255 1187 l 448 997 l 410 949 m 390 825 q 286 849 332 825 q 214 913 240 872 q 188 1006 188 954 l 248 1006 q 289 917 248 952 q 390 882 329 882 q 493 917 453 882 q 534 1006 534 952 l 593 1006 q 567 913 593 954 q 495 849 541 872 q 390 825 449 825 z "},"ẳ":{"ha":781,"x_min":92,"x_max":698,"o":"m 325 -11 q 206 15 259 -11 q 122 89 153 41 q 92 199 92 136 q 129 318 92 267 q 242 400 167 370 q 432 430 318 430 l 576 430 l 576 360 l 436 360 q 302 342 361 360 q 209 289 243 325 q 174 199 174 254 q 196 128 174 159 q 253 80 217 98 q 332 63 289 63 q 436 87 384 63 q 522 155 488 112 q 557 254 557 198 l 557 353 l 555 380 l 555 463 q 550 526 555 494 q 529 586 545 559 q 478 631 512 614 q 386 649 444 649 q 314 640 354 649 q 237 614 275 630 q 172 578 199 599 l 140 654 q 216 692 172 675 q 306 718 259 709 q 393 727 352 727 q 543 690 490 727 q 616 594 595 654 q 637 463 637 534 l 637 186 q 649 110 637 139 q 688 70 662 81 l 698 65 l 667 -11 l 648 -3 q 589 46 611 14 q 564 117 566 79 l 578 110 l 546 110 l 568 123 q 474 29 538 68 q 325 -11 410 -11 m 390 825 q 286 849 332 825 q 214 913 240 872 q 188 1006 188 954 l 248 1006 q 289 917 248 952 q 390 882 329 882 q 493 917 453 882 q 534 1006 534 952 l 593 1006 q 567 913 593 954 q 495 849 541 872 q 390 825 449 825 m 408 951 l 370 992 q 413 1027 395 1006 q 431 1074 431 1049 q 413 1113 431 1099 q 363 1127 395 1127 q 327 1123 347 1127 q 291 1114 307 1120 l 291 1175 q 330 1185 307 1182 q 368 1188 353 1188 q 458 1160 426 1188 q 490 1082 490 1132 q 467 1004 490 1041 q 408 951 443 968 z "},"ẵ":{"ha":781,"x_min":92,"x_max":698,"o":"m 325 -11 q 206 15 259 -11 q 122 89 153 41 q 92 199 92 136 q 129 318 92 267 q 242 400 167 370 q 432 430 318 430 l 576 430 l 576 360 l 436 360 q 302 342 361 360 q 209 289 243 325 q 174 199 174 254 q 196 128 174 159 q 253 80 217 98 q 332 63 289 63 q 436 87 384 63 q 522 155 488 112 q 557 254 557 198 l 557 353 l 555 380 l 555 463 q 550 526 555 494 q 529 586 545 559 q 478 631 512 614 q 386 649 444 649 q 314 640 354 649 q 237 614 275 630 q 172 578 199 599 l 140 654 q 216 692 172 675 q 306 718 259 709 q 393 727 352 727 q 543 690 490 727 q 616 594 595 654 q 637 463 637 534 l 637 186 q 649 110 637 139 q 688 70 662 81 l 698 65 l 667 -11 l 648 -3 q 589 46 611 14 q 564 117 566 79 l 578 110 l 546 110 l 568 123 q 474 29 538 68 q 325 -11 410 -11 m 186 1050 q 219 1154 186 1117 q 306 1192 252 1192 q 361 1180 338 1192 q 400 1153 383 1168 q 435 1126 418 1137 q 472 1114 452 1114 q 516 1135 501 1114 q 531 1192 531 1155 l 594 1192 q 581 1118 596 1150 q 539 1068 566 1086 q 475 1050 511 1050 q 423 1063 445 1050 q 383 1091 401 1075 q 347 1119 365 1107 q 308 1131 330 1131 q 266 1112 281 1131 q 250 1050 250 1092 l 186 1050 m 390 825 q 286 849 332 825 q 214 913 240 872 q 188 1006 188 954 l 248 1006 q 289 917 248 952 q 390 882 329 882 q 493 917 453 882 q 534 1006 534 952 l 593 1006 q 567 913 593 954 q 495 849 541 872 q 390 825 449 825 z "},"ǎ":{"ha":781,"x_min":92,"x_max":698,"o":"m 325 -11 q 206 15 259 -11 q 122 89 153 41 q 92 199 92 136 q 129 318 92 267 q 242 400 167 370 q 432 430 318 430 l 576 430 l 576 360 l 436 360 q 302 342 361 360 q 209 289 243 325 q 174 199 174 254 q 196 128 174 159 q 253 80 217 98 q 332 63 289 63 q 436 87 384 63 q 522 155 488 112 q 557 254 557 198 l 557 353 l 555 380 l 555 463 q 550 526 555 494 q 529 586 545 559 q 478 631 512 614 q 386 649 444 649 q 314 640 354 649 q 237 614 275 630 q 172 578 199 599 l 140 654 q 216 692 172 675 q 306 718 259 709 q 393 727 352 727 q 543 690 490 727 q 616 594 595 654 q 637 463 637 534 l 637 186 q 649 110 637 139 q 688 70 662 81 l 698 65 l 667 -11 l 648 -3 q 589 46 611 14 q 564 117 566 79 l 578 110 l 546 110 l 568 123 q 474 29 538 68 q 325 -11 410 -11 m 231 1044 l 389 884 l 394 884 l 549 1044 l 591 998 l 404 812 l 377 812 l 189 998 l 231 1044 z "},"â":{"ha":781,"x_min":92,"x_max":698,"o":"m 325 -11 q 206 15 259 -11 q 122 89 153 41 q 92 199 92 136 q 129 318 92 267 q 242 400 167 370 q 432 430 318 430 l 576 430 l 576 360 l 436 360 q 302 342 361 360 q 209 289 243 325 q 174 199 174 254 q 196 128 174 159 q 253 80 217 98 q 332 63 289 63 q 436 87 384 63 q 522 155 488 112 q 557 254 557 198 l 557 353 l 555 380 l 555 463 q 550 526 555 494 q 529 586 545 559 q 478 631 512 614 q 386 649 444 649 q 314 640 354 649 q 237 614 275 630 q 172 578 199 599 l 140 654 q 216 692 172 675 q 306 718 259 709 q 393 727 352 727 q 543 690 490 727 q 616 594 595 654 q 637 463 637 534 l 637 186 q 649 110 637 139 q 688 70 662 81 l 698 65 l 667 -11 l 648 -3 q 589 46 611 14 q 564 117 566 79 l 578 110 l 546 110 l 568 123 q 474 29 538 68 q 325 -11 410 -11 m 231 811 l 189 857 l 376 1042 l 404 1042 l 591 857 l 549 811 l 393 971 l 388 971 l 231 811 z "},"ấ":{"ha":781,"x_min":92,"x_max":751,"o":"m 325 -11 q 206 15 259 -11 q 122 89 153 41 q 92 199 92 136 q 129 318 92 267 q 242 400 167 370 q 432 430 318 430 l 576 430 l 576 360 l 436 360 q 302 342 361 360 q 209 289 243 325 q 174 199 174 254 q 196 128 174 159 q 253 80 217 98 q 332 63 289 63 q 436 87 384 63 q 522 155 488 112 q 557 254 557 198 l 557 353 l 555 380 l 555 463 q 550 526 555 494 q 529 586 545 559 q 478 631 512 614 q 386 649 444 649 q 314 640 354 649 q 237 614 275 630 q 172 578 199 599 l 140 654 q 216 692 172 675 q 306 718 259 709 q 393 727 352 727 q 543 690 490 727 q 616 594 595 654 q 637 463 637 534 l 637 186 q 649 110 637 139 q 688 70 662 81 l 698 65 l 667 -11 l 648 -3 q 589 46 611 14 q 564 117 566 79 l 578 110 l 546 110 l 568 123 q 474 29 538 68 q 325 -11 410 -11 m 568 960 l 523 998 l 702 1185 l 751 1127 l 568 960 m 225 814 l 180 863 l 377 1015 l 406 1015 l 600 863 l 555 814 l 395 943 l 387 943 l 225 814 z "},"ậ":{"ha":781,"x_min":92,"x_max":698,"o":"m 325 -11 q 206 15 259 -11 q 122 89 153 41 q 92 199 92 136 q 129 318 92 267 q 242 400 167 370 q 432 430 318 430 l 576 430 l 576 360 l 436 360 q 302 342 361 360 q 209 289 243 325 q 174 199 174 254 q 196 128 174 159 q 253 80 217 98 q 332 63 289 63 q 436 87 384 63 q 522 155 488 112 q 557 254 557 198 l 557 353 l 555 380 l 555 463 q 550 526 555 494 q 529 586 545 559 q 478 631 512 614 q 386 649 444 649 q 314 640 354 649 q 237 614 275 630 q 172 578 199 599 l 140 654 q 216 692 172 675 q 306 718 259 709 q 393 727 352 727 q 543 690 490 727 q 616 594 595 654 q 637 463 637 534 l 637 186 q 649 110 637 139 q 688 70 662 81 l 698 65 l 667 -11 l 648 -3 q 589 46 611 14 q 564 117 566 79 l 578 110 l 546 110 l 568 123 q 474 29 538 68 q 325 -11 410 -11 m 383 -241 q 330 -220 351 -241 q 308 -166 308 -198 q 330 -113 308 -134 q 383 -91 351 -91 q 437 -113 415 -91 q 458 -166 458 -134 q 437 -220 458 -198 q 383 -241 415 -241 m 231 811 l 189 857 l 376 1042 l 404 1042 l 591 857 l 549 811 l 393 971 l 388 971 l 231 811 z "},"ầ":{"ha":781,"x_min":31,"x_max":698,"o":"m 325 -11 q 206 15 259 -11 q 122 89 153 41 q 92 199 92 136 q 129 318 92 267 q 242 400 167 370 q 432 430 318 430 l 576 430 l 576 360 l 436 360 q 302 342 361 360 q 209 289 243 325 q 174 199 174 254 q 196 128 174 159 q 253 80 217 98 q 332 63 289 63 q 436 87 384 63 q 522 155 488 112 q 557 254 557 198 l 557 353 l 555 380 l 555 463 q 550 526 555 494 q 529 586 545 559 q 478 631 512 614 q 386 649 444 649 q 314 640 354 649 q 237 614 275 630 q 172 578 199 599 l 140 654 q 216 692 172 675 q 306 718 259 709 q 393 727 352 727 q 543 690 490 727 q 616 594 595 654 q 637 463 637 534 l 637 186 q 649 110 637 139 q 688 70 662 81 l 698 65 l 667 -11 l 648 -3 q 589 46 611 14 q 564 117 566 79 l 578 110 l 546 110 l 568 123 q 474 29 538 68 q 325 -11 410 -11 m 214 960 l 31 1127 l 80 1185 l 259 998 l 214 960 m 557 814 l 395 943 l 387 943 l 227 814 l 182 863 l 376 1015 l 405 1015 l 602 863 l 557 814 z "},"ẩ":{"ha":781,"x_min":92,"x_max":698,"o":"m 325 -11 q 206 15 259 -11 q 122 89 153 41 q 92 199 92 136 q 129 318 92 267 q 242 400 167 370 q 432 430 318 430 l 576 430 l 576 360 l 436 360 q 302 342 361 360 q 209 289 243 325 q 174 199 174 254 q 196 128 174 159 q 253 80 217 98 q 332 63 289 63 q 436 87 384 63 q 522 155 488 112 q 557 254 557 198 l 557 353 l 555 380 l 555 463 q 550 526 555 494 q 529 586 545 559 q 478 631 512 614 q 386 649 444 649 q 314 640 354 649 q 237 614 275 630 q 172 578 199 599 l 140 654 q 216 692 172 675 q 306 718 259 709 q 393 727 352 727 q 543 690 490 727 q 616 594 595 654 q 637 463 637 534 l 637 186 q 649 110 637 139 q 688 70 662 81 l 698 65 l 667 -11 l 648 -3 q 589 46 611 14 q 564 117 566 79 l 578 110 l 546 110 l 568 123 q 474 29 538 68 q 325 -11 410 -11 m 555 956 l 513 988 q 549 1029 534 1006 q 564 1072 564 1052 q 547 1113 564 1097 q 497 1128 529 1128 q 461 1124 481 1128 q 425 1113 441 1120 l 425 1175 q 463 1184 439 1181 q 505 1188 486 1188 q 593 1161 559 1188 q 627 1083 627 1134 q 615 1033 627 1057 q 587 988 604 1008 q 555 956 571 968 m 226 814 l 181 863 l 378 1015 l 407 1015 l 601 863 l 556 814 l 395 943 l 388 943 l 226 814 z "},"ẫ":{"ha":781,"x_min":92,"x_max":698,"o":"m 325 -11 q 206 15 259 -11 q 122 89 153 41 q 92 199 92 136 q 129 318 92 267 q 242 400 167 370 q 432 430 318 430 l 576 430 l 576 360 l 436 360 q 302 342 361 360 q 209 289 243 325 q 174 199 174 254 q 196 128 174 159 q 253 80 217 98 q 332 63 289 63 q 436 87 384 63 q 522 155 488 112 q 557 254 557 198 l 557 353 l 555 380 l 555 463 q 550 526 555 494 q 529 586 545 559 q 478 631 512 614 q 386 649 444 649 q 314 640 354 649 q 237 614 275 630 q 172 578 199 599 l 140 654 q 216 692 172 675 q 306 718 259 709 q 393 727 352 727 q 543 690 490 727 q 616 594 595 654 q 637 463 637 534 l 637 186 q 649 110 637 139 q 688 70 662 81 l 698 65 l 667 -11 l 648 -3 q 589 46 611 14 q 564 117 566 79 l 578 110 l 546 110 l 568 123 q 474 29 538 68 q 325 -11 410 -11 m 186 1050 q 219 1154 186 1117 q 306 1192 252 1192 q 361 1180 338 1192 q 400 1153 383 1168 q 434 1126 417 1137 q 472 1114 451 1114 q 515 1135 500 1114 q 531 1192 531 1155 l 595 1192 q 582 1118 596 1149 q 541 1068 568 1086 q 479 1050 515 1050 q 427 1063 449 1050 q 387 1091 405 1075 q 351 1119 369 1107 q 311 1131 333 1131 q 268 1112 286 1131 q 250 1050 250 1093 l 186 1050 m 226 814 l 181 863 l 378 1015 l 406 1015 l 600 863 l 555 814 l 395 943 l 388 943 l 226 814 z "},"ȁ":{"ha":781,"x_min":92,"x_max":698,"o":"m 325 -11 q 206 15 259 -11 q 122 89 153 41 q 92 199 92 136 q 129 318 92 267 q 242 400 167 370 q 432 430 318 430 l 576 430 l 576 360 l 436 360 q 302 342 361 360 q 209 289 243 325 q 174 199 174 254 q 196 128 174 159 q 253 80 217 98 q 332 63 289 63 q 436 87 384 63 q 522 155 488 112 q 557 254 557 198 l 557 353 l 555 380 l 555 463 q 550 526 555 494 q 529 586 545 559 q 478 631 512 614 q 386 649 444 649 q 314 640 354 649 q 237 614 275 630 q 172 578 199 599 l 140 654 q 216 692 172 675 q 306 718 259 709 q 393 727 352 727 q 543 690 490 727 q 616 594 595 654 q 637 463 637 534 l 637 186 q 649 110 637 139 q 688 70 662 81 l 698 65 l 667 -11 l 648 -3 q 589 46 611 14 q 564 117 566 79 l 578 110 l 546 110 l 568 123 q 474 29 538 68 q 325 -11 410 -11 m 495 805 l 342 1045 l 407 1082 l 544 822 l 495 805 m 302 805 l 148 1045 l 210 1082 l 349 822 l 302 805 z "},"ä":{"ha":781,"x_min":92,"x_max":698,"o":"m 325 -11 q 206 15 259 -11 q 122 89 153 41 q 92 199 92 136 q 129 318 92 267 q 242 400 167 370 q 432 430 318 430 l 576 430 l 576 360 l 436 360 q 302 342 361 360 q 209 289 243 325 q 174 199 174 254 q 196 128 174 159 q 253 80 217 98 q 332 63 289 63 q 436 87 384 63 q 522 155 488 112 q 557 254 557 198 l 557 353 l 555 380 l 555 463 q 550 526 555 494 q 529 586 545 559 q 478 631 512 614 q 386 649 444 649 q 314 640 354 649 q 237 614 275 630 q 172 578 199 599 l 140 654 q 216 692 172 675 q 306 718 259 709 q 393 727 352 727 q 543 690 490 727 q 616 594 595 654 q 637 463 637 534 l 637 186 q 649 110 637 139 q 688 70 662 81 l 698 65 l 667 -11 l 648 -3 q 589 46 611 14 q 564 117 566 79 l 578 110 l 546 110 l 568 123 q 474 29 538 68 q 325 -11 410 -11 m 516 847 q 464 869 486 847 q 443 921 443 890 q 464 974 443 953 q 516 995 486 995 q 569 974 549 995 q 590 921 590 953 q 569 869 590 890 q 516 847 549 847 m 267 847 q 214 869 235 847 q 193 921 193 890 q 214 974 193 953 q 267 995 235 995 q 319 974 298 995 q 340 921 340 953 q 319 869 340 890 q 267 847 298 847 z "},"ȧ":{"ha":781,"x_min":92,"x_max":698,"o":"m 325 -11 q 206 15 259 -11 q 122 89 153 41 q 92 199 92 136 q 129 318 92 267 q 242 400 167 370 q 432 430 318 430 l 576 430 l 576 360 l 436 360 q 302 342 361 360 q 209 289 243 325 q 174 199 174 254 q 196 128 174 159 q 253 80 217 98 q 332 63 289 63 q 436 87 384 63 q 522 155 488 112 q 557 254 557 198 l 557 353 l 555 380 l 555 463 q 550 526 555 494 q 529 586 545 559 q 478 631 512 614 q 386 649 444 649 q 314 640 354 649 q 237 614 275 630 q 172 578 199 599 l 140 654 q 216 692 172 675 q 306 718 259 709 q 393 727 352 727 q 543 690 490 727 q 616 594 595 654 q 637 463 637 534 l 637 186 q 649 110 637 139 q 688 70 662 81 l 698 65 l 667 -11 l 648 -3 q 589 46 611 14 q 564 117 566 79 l 578 110 l 546 110 l 568 123 q 474 29 538 68 q 325 -11 410 -11 m 391 842 q 337 864 359 842 q 315 918 315 886 q 337 971 315 949 q 391 993 359 993 q 444 971 422 993 q 466 918 466 949 q 444 864 466 886 q 391 842 422 842 z "},"ạ":{"ha":781,"x_min":92,"x_max":698,"o":"m 325 -11 q 206 15 259 -11 q 122 89 153 41 q 92 199 92 136 q 129 318 92 267 q 242 400 167 370 q 432 430 318 430 l 576 430 l 576 360 l 436 360 q 302 342 361 360 q 209 289 243 325 q 174 199 174 254 q 196 128 174 159 q 253 80 217 98 q 332 63 289 63 q 436 87 384 63 q 522 155 488 112 q 557 254 557 198 l 557 353 l 555 380 l 555 463 q 550 526 555 494 q 529 586 545 559 q 478 631 512 614 q 386 649 444 649 q 314 640 354 649 q 237 614 275 630 q 172 578 199 599 l 140 654 q 216 692 172 675 q 306 718 259 709 q 393 727 352 727 q 543 690 490 727 q 616 594 595 654 q 637 463 637 534 l 637 186 q 649 110 637 139 q 688 70 662 81 l 698 65 l 667 -11 l 648 -3 q 589 46 611 14 q 564 117 566 79 l 578 110 l 546 110 l 568 123 q 474 29 538 68 q 325 -11 410 -11 m 383 -241 q 330 -220 351 -241 q 308 -166 308 -198 q 330 -113 308 -134 q 383 -91 351 -91 q 437 -113 415 -91 q 458 -166 458 -134 q 437 -220 458 -198 q 383 -241 415 -241 z "},"à":{"ha":781,"x_min":92,"x_max":698,"o":"m 325 -11 q 206 15 259 -11 q 122 89 153 41 q 92 199 92 136 q 129 318 92 267 q 242 400 167 370 q 432 430 318 430 l 576 430 l 576 360 l 436 360 q 302 342 361 360 q 209 289 243 325 q 174 199 174 254 q 196 128 174 159 q 253 80 217 98 q 332 63 289 63 q 436 87 384 63 q 522 155 488 112 q 557 254 557 198 l 557 353 l 555 380 l 555 463 q 550 526 555 494 q 529 586 545 559 q 478 631 512 614 q 386 649 444 649 q 314 640 354 649 q 237 614 275 630 q 172 578 199 599 l 140 654 q 216 692 172 675 q 306 718 259 709 q 393 727 352 727 q 543 690 490 727 q 616 594 595 654 q 637 463 637 534 l 637 186 q 649 110 637 139 q 688 70 662 81 l 698 65 l 667 -11 l 648 -3 q 589 46 611 14 q 564 117 566 79 l 578 110 l 546 110 l 568 123 q 474 29 538 68 q 325 -11 410 -11 m 393 802 l 212 1013 l 275 1067 l 439 842 l 393 802 z "},"ả":{"ha":781,"x_min":92,"x_max":698,"o":"m 325 -11 q 206 15 259 -11 q 122 89 153 41 q 92 199 92 136 q 129 318 92 267 q 242 400 167 370 q 432 430 318 430 l 576 430 l 576 360 l 436 360 q 302 342 361 360 q 209 289 243 325 q 174 199 174 254 q 196 128 174 159 q 253 80 217 98 q 332 63 289 63 q 436 87 384 63 q 522 155 488 112 q 557 254 557 198 l 557 353 l 555 380 l 555 463 q 550 526 555 494 q 529 586 545 559 q 478 631 512 614 q 386 649 444 649 q 314 640 354 649 q 237 614 275 630 q 172 578 199 599 l 140 654 q 216 692 172 675 q 306 718 259 709 q 393 727 352 727 q 543 690 490 727 q 616 594 595 654 q 637 463 637 534 l 637 186 q 649 110 637 139 q 688 70 662 81 l 698 65 l 667 -11 l 648 -3 q 589 46 611 14 q 564 117 566 79 l 578 110 l 546 110 l 568 123 q 474 29 538 68 q 325 -11 410 -11 m 408 802 l 370 844 q 413 879 395 857 q 431 925 431 901 q 413 965 431 951 q 363 979 395 979 q 327 975 347 979 q 291 965 307 971 l 291 1027 q 330 1037 307 1034 q 368 1040 353 1040 q 458 1011 426 1040 q 490 934 490 983 q 467 856 490 893 q 408 802 443 819 z "},"ȃ":{"ha":781,"x_min":92,"x_max":698,"o":"m 325 -11 q 206 15 259 -11 q 122 89 153 41 q 92 199 92 136 q 129 318 92 267 q 242 400 167 370 q 432 430 318 430 l 576 430 l 576 360 l 436 360 q 302 342 361 360 q 209 289 243 325 q 174 199 174 254 q 196 128 174 159 q 253 80 217 98 q 332 63 289 63 q 436 87 384 63 q 522 155 488 112 q 557 254 557 198 l 557 353 l 555 380 l 555 463 q 550 526 555 494 q 529 586 545 559 q 478 631 512 614 q 386 649 444 649 q 314 640 354 649 q 237 614 275 630 q 172 578 199 599 l 140 654 q 216 692 172 675 q 306 718 259 709 q 393 727 352 727 q 543 690 490 727 q 616 594 595 654 q 637 463 637 534 l 637 186 q 649 110 637 139 q 688 70 662 81 l 698 65 l 667 -11 l 648 -3 q 589 46 611 14 q 564 117 566 79 l 578 110 l 546 110 l 568 123 q 474 29 538 68 q 325 -11 410 -11 m 390 1030 q 494 1004 448 1030 q 568 932 541 977 q 595 829 595 886 l 532 829 q 491 931 531 890 q 390 971 451 971 q 290 931 330 971 q 249 829 249 890 l 186 829 q 214 932 186 886 q 287 1004 241 977 q 390 1030 334 1030 z "},"ā":{"ha":781,"x_min":92,"x_max":698,"o":"m 325 -11 q 206 15 259 -11 q 122 89 153 41 q 92 199 92 136 q 129 318 92 267 q 242 400 167 370 q 432 430 318 430 l 576 430 l 576 360 l 436 360 q 302 342 361 360 q 209 289 243 325 q 174 199 174 254 q 196 128 174 159 q 253 80 217 98 q 332 63 289 63 q 436 87 384 63 q 522 155 488 112 q 557 254 557 198 l 557 353 l 555 380 l 555 463 q 550 526 555 494 q 529 586 545 559 q 478 631 512 614 q 386 649 444 649 q 314 640 354 649 q 237 614 275 630 q 172 578 199 599 l 140 654 q 216 692 172 675 q 306 718 259 709 q 393 727 352 727 q 543 690 490 727 q 616 594 595 654 q 637 463 637 534 l 637 186 q 649 110 637 139 q 688 70 662 81 l 698 65 l 667 -11 l 648 -3 q 589 46 611 14 q 564 117 566 79 l 578 110 l 546 110 l 568 123 q 474 29 538 68 q 325 -11 410 -11 m 168 883 l 168 944 l 611 944 l 611 883 l 168 883 z "},"ą":{"ha":781,"x_min":92,"x_max":698,"o":"m 623 -274 q 543 -242 569 -274 q 517 -172 517 -210 q 535 -103 517 -136 q 576 -40 552 -71 q 623 21 601 -9 l 667 -11 q 605 -89 632 -51 q 578 -163 578 -126 q 593 -199 578 -186 q 631 -212 609 -212 q 661 -209 644 -212 q 698 -192 677 -205 l 698 -254 q 657 -270 680 -266 q 623 -274 635 -274 m 325 -11 q 206 15 259 -11 q 122 89 153 41 q 92 199 92 136 q 129 318 92 267 q 242 400 167 370 q 432 430 318 430 l 576 430 l 576 360 l 436 360 q 302 342 361 360 q 209 289 243 325 q 174 199 174 254 q 196 128 174 159 q 253 80 217 98 q 332 63 289 63 q 436 87 384 63 q 522 155 488 112 q 557 254 557 198 l 557 353 l 555 380 l 555 463 q 550 526 555 494 q 529 586 545 559 q 478 631 512 614 q 386 649 444 649 q 314 640 354 649 q 237 614 275 630 q 172 578 199 599 l 140 654 q 216 692 172 675 q 306 718 259 709 q 393 727 352 727 q 543 690 490 727 q 616 594 595 654 q 637 463 637 534 l 637 186 q 649 110 637 139 q 688 70 662 81 l 698 65 l 667 -11 l 648 -3 q 589 46 611 14 q 564 117 566 79 l 578 110 l 546 110 l 568 123 q 474 29 538 68 q 325 -11 410 -11 z "},"å":{"ha":781,"x_min":92,"x_max":698,"o":"m 325 -11 q 206 15 259 -11 q 122 89 153 41 q 92 199 92 136 q 129 318 92 267 q 242 400 167 370 q 432 430 318 430 l 576 430 l 576 360 l 436 360 q 302 342 361 360 q 209 289 243 325 q 174 199 174 254 q 196 128 174 159 q 253 80 217 98 q 332 63 289 63 q 436 87 384 63 q 522 155 488 112 q 557 254 557 198 l 557 353 l 555 380 l 555 463 q 550 526 555 494 q 529 586 545 559 q 478 631 512 614 q 386 649 444 649 q 314 640 354 649 q 237 614 275 630 q 172 578 199 599 l 140 654 q 216 692 172 675 q 306 718 259 709 q 393 727 352 727 q 543 690 490 727 q 616 594 595 654 q 637 463 637 534 l 637 186 q 649 110 637 139 q 688 70 662 81 l 698 65 l 667 -11 l 648 -3 q 589 46 611 14 q 564 117 566 79 l 578 110 l 546 110 l 568 123 q 474 29 538 68 q 325 -11 410 -11 m 391 812 q 295 850 334 812 q 257 944 257 889 q 295 1039 257 1001 q 391 1076 334 1076 q 486 1039 447 1076 q 524 944 524 1001 q 486 850 524 889 q 391 812 448 812 m 391 865 q 447 888 425 865 q 469 944 469 911 q 447 1001 469 979 q 391 1023 425 1023 q 335 1001 358 1023 q 312 944 312 979 q 335 888 312 911 q 391 865 358 865 z "},"ǻ":{"ha":781,"x_min":92,"x_max":698,"o":"m 391 812 q 296 850 334 812 q 257 944 257 889 q 296 1039 257 1001 q 391 1076 334 1076 q 486 1039 447 1076 q 524 944 524 1001 q 486 850 524 889 q 391 812 448 812 m 391 865 q 448 888 426 865 q 469 944 469 911 q 447 1001 469 979 q 391 1023 425 1023 q 335 1001 359 1023 q 312 944 312 979 q 335 888 312 911 q 391 865 359 865 m 441 1105 l 398 1153 l 591 1344 l 637 1288 l 441 1105 m 325 -11 q 206 15 259 -11 q 122 89 153 41 q 92 199 92 136 q 129 318 92 267 q 242 400 167 370 q 432 430 318 430 l 576 430 l 576 360 l 436 360 q 302 342 361 360 q 209 289 243 325 q 174 199 174 254 q 196 128 174 159 q 253 80 217 98 q 332 63 289 63 q 436 87 384 63 q 522 155 488 112 q 557 254 557 198 l 557 353 l 555 380 l 555 463 q 550 526 555 494 q 529 586 545 559 q 478 631 512 614 q 386 649 444 649 q 314 640 354 649 q 237 614 275 630 q 172 578 199 599 l 140 654 q 216 692 172 675 q 306 718 259 709 q 393 727 352 727 q 543 690 490 727 q 616 594 595 654 q 637 463 637 534 l 637 186 q 649 110 637 139 q 688 70 662 81 l 698 65 l 667 -11 l 648 -3 q 589 46 611 14 q 564 117 566 79 l 578 110 l 546 110 l 568 123 q 474 29 538 68 q 325 -11 410 -11 z "},"ã":{"ha":781,"x_min":92,"x_max":698,"o":"m 325 -11 q 206 15 259 -11 q 122 89 153 41 q 92 199 92 136 q 129 318 92 267 q 242 400 167 370 q 432 430 318 430 l 576 430 l 576 360 l 436 360 q 302 342 361 360 q 209 289 243 325 q 174 199 174 254 q 196 128 174 159 q 253 80 217 98 q 332 63 289 63 q 436 87 384 63 q 522 155 488 112 q 557 254 557 198 l 557 353 l 555 380 l 555 463 q 550 526 555 494 q 529 586 545 559 q 478 631 512 614 q 386 649 444 649 q 314 640 354 649 q 237 614 275 630 q 172 578 199 599 l 140 654 q 216 692 172 675 q 306 718 259 709 q 393 727 352 727 q 543 690 490 727 q 616 594 595 654 q 637 463 637 534 l 637 186 q 649 110 637 139 q 688 70 662 81 l 698 65 l 667 -11 l 648 -3 q 589 46 611 14 q 564 117 566 79 l 578 110 l 546 110 l 568 123 q 474 29 538 68 q 325 -11 410 -11 m 184 833 q 218 948 184 909 q 304 987 252 987 q 361 973 338 987 q 402 942 385 960 q 436 911 419 924 q 475 898 454 898 q 519 923 503 898 q 535 987 536 948 l 599 987 q 565 874 599 915 q 478 833 532 833 q 424 847 447 833 q 383 880 401 861 q 347 912 365 898 q 307 926 329 926 q 263 901 279 926 q 247 833 248 876 l 184 833 z "},"æ":{"ha":781,"x_min":26,"x_max":757,"o":"m 198 -11 q 111 15 150 -11 q 48 86 71 41 q 26 193 26 132 q 91 348 26 293 q 271 402 156 402 l 353 402 l 353 332 l 279 332 q 153 296 199 332 q 106 193 106 260 q 136 102 106 138 q 210 66 167 66 q 302 121 264 66 q 340 267 340 177 l 340 439 q 331 549 340 501 q 297 623 321 596 q 227 650 272 650 q 148 634 191 650 q 79 597 106 618 l 50 669 q 134 709 84 692 q 231 726 184 726 q 347 681 306 726 q 399 562 389 635 l 376 562 q 445 680 395 634 q 561 726 495 726 q 666 685 622 726 q 733 569 709 644 q 757 395 757 495 q 756 361 757 377 q 753 332 755 345 l 400 332 l 397 402 l 682 402 q 651 581 683 513 q 556 650 618 650 q 478 614 511 650 q 427 514 445 578 q 408 360 408 449 q 427 205 408 271 q 482 103 446 139 q 571 66 518 66 q 641 85 604 66 q 704 131 677 104 l 736 55 q 688 22 715 37 q 630 -2 661 7 q 572 -11 600 -11 q 443 41 492 -11 q 370 181 393 93 l 389 181 q 355 84 381 128 q 289 15 330 41 q 198 -11 249 -11 z "},"ǽ":{"ha":781,"x_min":26,"x_max":757,"o":"m 198 -11 q 111 15 150 -11 q 48 86 71 41 q 26 193 26 132 q 91 348 26 293 q 271 402 156 402 l 353 402 l 353 332 l 279 332 q 153 296 199 332 q 106 193 106 260 q 136 102 106 138 q 210 66 167 66 q 302 121 264 66 q 340 267 340 177 l 340 439 q 331 549 340 501 q 297 623 321 596 q 227 650 272 650 q 148 634 191 650 q 79 597 106 618 l 50 669 q 134 709 84 692 q 231 726 184 726 q 347 681 306 726 q 399 562 389 635 l 376 562 q 445 680 395 634 q 561 726 495 726 q 666 685 622 726 q 733 569 709 644 q 757 395 757 495 q 756 361 757 377 q 753 332 755 345 l 400 332 l 397 402 l 682 402 q 651 581 683 513 q 556 650 618 650 q 478 614 511 650 q 427 514 445 578 q 408 360 408 449 q 427 205 408 271 q 482 103 446 139 q 571 66 518 66 q 641 85 604 66 q 704 131 677 104 l 736 55 q 688 22 715 37 q 630 -2 661 7 q 572 -11 600 -11 q 443 41 492 -11 q 370 181 393 93 l 389 181 q 355 84 381 128 q 289 15 330 41 q 198 -11 249 -11 m 377 802 l 332 842 l 496 1067 l 559 1013 l 377 802 z "},"b":{"ha":781,"x_min":119,"x_max":705,"o":"m 119 0 l 119 1044 l 203 1044 l 203 602 l 216 602 l 191 528 l 191 186 l 221 121 l 202 121 l 202 0 l 119 0 m 421 -11 q 275 35 338 -11 q 178 164 213 81 q 144 359 144 248 q 178 553 144 470 q 275 681 213 635 q 421 727 338 727 q 571 682 507 727 q 670 553 635 636 q 705 359 705 470 q 670 163 705 246 q 571 35 635 80 q 421 -11 507 -11 m 410 65 q 521 102 473 65 q 594 204 568 138 q 621 359 621 270 q 594 513 621 447 q 520 615 568 578 q 408 651 472 651 q 298 615 345 651 q 224 513 250 578 q 198 359 198 448 q 224 204 198 270 q 298 102 250 138 q 410 65 346 65 z "},"c":{"ha":781,"x_min":100,"x_max":673,"o":"m 441 -8 q 266 39 342 -8 q 144 169 189 85 q 100 361 100 252 q 143 552 100 469 q 264 681 187 634 q 441 727 342 727 q 562 706 500 727 q 670 645 623 685 l 637 572 q 554 627 606 604 q 444 649 502 649 q 310 612 368 649 q 218 511 252 576 q 185 360 185 446 q 219 209 185 275 q 311 107 252 144 q 446 70 370 70 q 558 94 506 70 q 640 153 610 117 l 673 78 q 570 16 633 41 q 441 -8 508 -8 z "},"ć":{"ha":781,"x_min":100,"x_max":673,"o":"m 441 -8 q 266 39 342 -8 q 144 169 189 85 q 100 361 100 252 q 143 552 100 469 q 264 681 187 634 q 441 727 342 727 q 562 706 500 727 q 670 645 623 685 l 637 572 q 554 627 606 604 q 444 649 502 649 q 310 612 368 649 q 218 511 252 576 q 185 360 185 446 q 219 209 185 275 q 311 107 252 144 q 446 70 370 70 q 558 94 506 70 q 640 153 610 117 l 673 78 q 570 16 633 41 q 441 -8 508 -8 m 444 802 l 399 842 l 563 1067 l 626 1013 l 444 802 z "},"č":{"ha":781,"x_min":100,"x_max":673,"o":"m 441 -8 q 266 39 342 -8 q 144 169 189 85 q 100 361 100 252 q 143 552 100 469 q 264 681 187 634 q 441 727 342 727 q 562 706 500 727 q 670 645 623 685 l 637 572 q 554 627 606 604 q 444 649 502 649 q 310 612 368 649 q 218 511 252 576 q 185 360 185 446 q 219 209 185 275 q 311 107 252 144 q 446 70 370 70 q 558 94 506 70 q 640 153 610 117 l 673 78 q 570 16 633 41 q 441 -8 508 -8 m 288 1044 l 444 884 l 450 884 l 605 1044 l 647 998 l 459 812 l 433 812 l 245 998 l 288 1044 z "},"ç":{"ha":781,"x_min":100,"x_max":673,"o":"m 441 -8 q 266 39 342 -8 q 144 169 189 85 q 100 361 100 252 q 143 552 100 469 q 264 681 187 634 q 441 727 342 727 q 562 706 500 727 q 670 645 623 685 l 637 572 q 554 627 606 604 q 444 649 502 649 q 310 612 368 649 q 218 511 252 576 q 185 360 185 446 q 219 209 185 275 q 311 107 252 144 q 446 70 370 70 q 558 94 506 70 q 640 153 610 117 l 673 78 q 570 16 633 41 q 441 -8 508 -8 m 355 -306 l 355 -248 q 458 -235 420 -251 q 495 -182 495 -220 q 467 -138 495 -156 q 393 -120 439 -120 l 429 0 l 482 0 l 449 -110 l 438 -77 q 525 -116 495 -87 q 554 -188 554 -146 q 504 -275 554 -245 q 355 -306 453 -306 z "},"ḉ":{"ha":781,"x_min":100,"x_max":673,"o":"m 441 -8 q 266 39 342 -8 q 144 169 189 85 q 100 361 100 252 q 143 552 100 469 q 264 681 187 634 q 441 727 342 727 q 562 706 500 727 q 670 645 623 685 l 637 572 q 554 627 606 604 q 444 649 502 649 q 310 612 368 649 q 218 511 252 576 q 185 360 185 446 q 219 209 185 275 q 311 107 252 144 q 446 70 370 70 q 558 94 506 70 q 640 153 610 117 l 673 78 q 570 16 633 41 q 441 -8 508 -8 m 355 -306 l 355 -248 q 458 -235 420 -251 q 495 -182 495 -220 q 467 -138 495 -156 q 393 -120 439 -120 l 429 0 l 482 0 l 449 -110 l 438 -77 q 525 -116 495 -87 q 554 -188 554 -146 q 504 -275 554 -245 q 355 -306 453 -306 m 444 802 l 399 842 l 563 1067 l 626 1013 l 444 802 z "},"ĉ":{"ha":781,"x_min":100,"x_max":673,"o":"m 441 -8 q 266 39 342 -8 q 144 169 189 85 q 100 361 100 252 q 143 552 100 469 q 264 681 187 634 q 441 727 342 727 q 562 706 500 727 q 670 645 623 685 l 637 572 q 554 627 606 604 q 444 649 502 649 q 310 612 368 649 q 218 511 252 576 q 185 360 185 446 q 219 209 185 275 q 311 107 252 144 q 446 70 370 70 q 558 94 506 70 q 640 153 610 117 l 673 78 q 570 16 633 41 q 441 -8 508 -8 m 288 811 l 245 857 l 433 1042 l 460 1042 l 647 857 l 605 811 l 450 971 l 444 971 l 288 811 z "},"ċ":{"ha":781,"x_min":100,"x_max":673,"o":"m 441 -8 q 266 39 342 -8 q 144 169 189 85 q 100 361 100 252 q 143 552 100 469 q 264 681 187 634 q 441 727 342 727 q 562 706 500 727 q 670 645 623 685 l 637 572 q 554 627 606 604 q 444 649 502 649 q 310 612 368 649 q 218 511 252 576 q 185 360 185 446 q 219 209 185 275 q 311 107 252 144 q 446 70 370 70 q 558 94 506 70 q 640 153 610 117 l 673 78 q 570 16 633 41 q 441 -8 508 -8 m 447 842 q 393 864 415 842 q 372 918 372 886 q 393 971 372 949 q 447 993 415 993 q 500 971 479 993 q 522 918 522 949 q 500 864 522 886 q 447 842 479 842 z "},"d":{"ha":781,"x_min":76,"x_max":717,"o":"m 684 -11 q 615 58 640 16 q 589 144 590 100 l 603 131 l 565 131 l 590 198 l 590 539 l 563 603 l 578 603 l 578 1044 l 663 1044 l 663 181 q 678 110 663 141 q 717 65 693 78 l 684 -11 m 360 -11 q 211 35 275 -11 q 111 163 146 80 q 76 359 76 246 q 111 553 76 470 q 211 682 146 636 q 360 727 275 727 q 506 681 444 727 q 603 553 568 635 q 637 359 637 470 q 603 164 637 248 q 506 35 568 81 q 360 -11 444 -11 m 372 65 q 483 102 435 65 q 557 204 531 138 q 583 359 583 270 q 557 513 583 448 q 484 615 531 578 q 373 651 436 651 q 261 615 309 651 q 187 513 214 578 q 161 359 161 447 q 187 204 161 270 q 260 102 213 138 q 372 65 308 65 z "},"ď":{"ha":781,"x_min":56,"x_max":749,"o":"m 319 -11 q 180 35 239 -11 q 89 164 121 81 q 56 359 56 247 q 89 553 56 470 q 181 681 122 635 q 320 727 241 727 q 455 682 397 727 q 545 554 513 636 q 576 359 576 471 q 545 164 576 248 q 455 35 513 81 q 319 -11 397 -11 m 332 65 q 434 101 391 65 q 501 204 477 138 q 525 359 525 270 q 501 513 525 447 q 434 615 477 578 q 334 651 391 651 q 232 615 275 651 q 164 513 189 578 q 140 358 140 448 q 164 204 140 269 q 232 102 189 138 q 332 65 275 65 m 644 -11 q 564 58 596 15 q 531 144 532 100 l 543 131 l 508 131 l 531 198 l 531 539 l 506 603 l 520 603 l 520 1044 l 605 1044 l 605 181 q 626 110 605 141 q 677 65 647 78 l 644 -11 m 677 752 l 679 1044 l 749 1044 l 739 752 l 677 752 z "},"đ":{"ha":781,"x_min":76,"x_max":788,"o":"m 684 -11 q 615 58 640 16 q 589 144 590 100 l 603 131 l 565 131 l 590 198 l 590 539 l 563 603 l 578 603 l 578 1044 l 663 1044 l 663 181 q 678 110 663 141 q 717 65 693 78 l 684 -11 m 360 -11 q 211 35 275 -11 q 111 163 146 80 q 76 359 76 246 q 111 553 76 470 q 211 682 146 636 q 360 727 275 727 q 506 681 444 727 q 603 553 568 635 q 637 359 637 470 q 603 164 637 248 q 506 35 568 81 q 360 -11 444 -11 m 372 65 q 483 102 435 65 q 557 204 531 138 q 583 359 583 270 q 557 513 583 448 q 484 615 531 578 q 373 651 436 651 q 261 615 309 651 q 187 513 214 578 q 161 359 161 447 q 187 204 161 270 q 260 102 213 138 q 372 65 308 65 m 460 825 l 460 896 l 788 896 l 788 825 l 460 825 z "},"ḍ":{"ha":781,"x_min":76,"x_max":717,"o":"m 684 -11 q 615 58 640 16 q 589 144 590 100 l 603 131 l 565 131 l 590 198 l 590 539 l 563 603 l 578 603 l 578 1044 l 663 1044 l 663 181 q 678 110 663 141 q 717 65 693 78 l 684 -11 m 360 -11 q 211 35 275 -11 q 111 163 146 80 q 76 359 76 246 q 111 553 76 470 q 211 682 146 636 q 360 727 275 727 q 506 681 444 727 q 603 553 568 635 q 637 359 637 470 q 603 164 637 248 q 506 35 568 81 q 360 -11 444 -11 m 372 65 q 483 102 435 65 q 557 204 531 138 q 583 359 583 270 q 557 513 583 448 q 484 615 531 578 q 373 651 436 651 q 261 615 309 651 q 187 513 214 578 q 161 359 161 447 q 187 204 161 270 q 260 102 213 138 q 372 65 308 65 m 387 -241 q 334 -220 355 -241 q 312 -166 312 -198 q 334 -113 312 -134 q 387 -91 355 -91 q 441 -113 419 -91 q 463 -166 463 -134 q 441 -220 463 -198 q 387 -241 419 -241 z "},"ḏ":{"ha":781,"x_min":76,"x_max":717,"o":"m 684 -11 q 615 58 640 16 q 589 144 590 100 l 603 131 l 565 131 l 590 198 l 590 539 l 563 603 l 578 603 l 578 1044 l 663 1044 l 663 181 q 678 110 663 141 q 717 65 693 78 l 684 -11 m 360 -11 q 211 35 275 -11 q 111 163 146 80 q 76 359 76 246 q 111 553 76 470 q 211 682 146 636 q 360 727 275 727 q 506 681 444 727 q 603 553 568 635 q 637 359 637 470 q 603 164 637 248 q 506 35 568 81 q 360 -11 444 -11 m 372 65 q 483 102 435 65 q 557 204 531 138 q 583 359 583 270 q 557 513 583 448 q 484 615 531 578 q 373 651 436 651 q 261 615 309 651 q 187 513 214 578 q 161 359 161 447 q 187 204 161 270 q 260 102 213 138 q 372 65 308 65 m 165 -264 l 165 -203 l 609 -203 l 609 -264 l 165 -264 z "},"ǆ":{"ha":781,"x_min":30,"x_max":751,"o":"m 186 -11 q 70 85 111 -11 q 30 359 30 180 q 71 632 30 536 q 189 727 111 727 q 296 632 263 727 q 329 359 329 537 q 296 85 329 180 q 186 -11 262 -11 m 199 66 q 273 141 249 66 q 296 359 296 217 q 273 575 296 500 q 201 650 250 650 q 126 575 153 650 q 100 359 100 500 q 126 141 100 217 q 199 66 151 66 m 374 -11 q 320 45 340 12 q 298 123 300 79 l 307 95 l 279 95 l 303 198 l 303 539 l 277 637 l 296 637 l 296 1044 l 367 1044 l 367 153 q 378 97 367 117 q 405 65 389 77 l 374 -11 m 428 0 l 428 25 l 658 641 l 658 644 l 450 644 l 450 715 l 745 715 l 745 686 l 517 74 l 517 71 l 743 71 l 743 0 l 428 0 m 581 850 l 436 999 l 474 1040 l 592 916 l 595 916 l 712 1040 l 751 999 l 606 850 l 581 850 z "},"ð":{"ha":781,"x_min":73,"x_max":709,"o":"m 393 -11 q 232 35 304 -11 q 116 162 159 81 q 73 345 73 242 q 115 527 73 447 q 228 652 157 606 q 389 698 300 698 q 486 682 438 698 q 571 636 534 665 q 626 566 608 606 l 604 592 l 631 592 l 617 576 q 548 733 592 663 q 447 856 504 803 q 326 948 390 909 q 197 1010 262 986 l 229 1078 q 409 984 323 1042 q 563 843 496 925 q 670 653 631 760 q 709 414 709 547 q 669 187 709 282 q 557 40 629 92 q 393 -11 486 -11 m 395 67 q 514 108 462 68 q 597 215 567 148 q 627 363 627 282 q 594 507 627 450 q 509 591 562 564 q 397 619 456 619 q 274 585 329 619 q 188 489 220 550 q 156 347 156 427 q 190 200 156 263 q 277 102 223 137 q 395 67 332 66 m 222 782 l 193 833 l 592 1079 l 621 1029 l 222 782 z "},"e":{"ha":781,"x_min":83,"x_max":698,"o":"m 412 -11 q 240 36 315 -11 q 125 166 166 83 q 83 359 83 250 q 124 551 83 468 q 236 680 164 633 q 401 726 307 726 q 556 684 489 726 q 661 567 623 642 q 698 393 698 492 q 697 360 698 380 q 692 326 696 340 l 149 326 l 149 397 l 615 397 q 589 528 616 471 q 513 616 562 584 q 401 648 465 648 q 278 611 331 648 q 194 509 224 574 q 164 358 164 444 q 195 207 164 272 q 282 104 227 141 q 411 67 338 67 q 517 89 465 67 q 611 147 569 110 l 643 71 q 537 12 598 34 q 412 -11 476 -11 z "},"é":{"ha":781,"x_min":83,"x_max":698,"o":"m 412 -11 q 240 36 315 -11 q 125 166 166 83 q 83 359 83 250 q 124 551 83 468 q 236 680 164 633 q 401 726 307 726 q 556 684 489 726 q 661 567 623 642 q 698 393 698 492 q 697 360 698 380 q 692 326 696 340 l 149 326 l 149 397 l 615 397 q 589 528 616 471 q 513 616 562 584 q 401 648 465 648 q 278 611 331 648 q 194 509 224 574 q 164 358 164 444 q 195 207 164 272 q 282 104 227 141 q 411 67 338 67 q 517 89 465 67 q 611 147 569 110 l 643 71 q 537 12 598 34 q 412 -11 476 -11 m 399 802 l 353 842 l 517 1067 l 581 1013 l 399 802 z "},"ĕ":{"ha":781,"x_min":83,"x_max":698,"o":"m 412 -11 q 240 36 315 -11 q 125 166 166 83 q 83 359 83 250 q 124 551 83 468 q 236 680 164 633 q 401 726 307 726 q 556 684 489 726 q 661 567 623 642 q 698 393 698 492 q 697 360 698 380 q 692 326 696 340 l 149 326 l 149 397 l 615 397 q 589 528 616 471 q 513 616 562 584 q 401 648 465 648 q 278 611 331 648 q 194 509 224 574 q 164 358 164 444 q 195 207 164 272 q 282 104 227 141 q 411 67 338 67 q 517 89 465 67 q 611 147 569 110 l 643 71 q 537 12 598 34 q 412 -11 476 -11 m 401 825 q 299 852 345 825 q 225 924 252 878 q 198 1026 198 969 l 260 1026 q 301 925 260 966 q 401 884 342 884 q 503 925 463 884 q 543 1026 543 966 l 606 1026 q 579 924 606 969 q 506 852 552 878 q 401 825 460 825 z "},"ě":{"ha":781,"x_min":83,"x_max":698,"o":"m 412 -11 q 240 36 315 -11 q 125 166 166 83 q 83 359 83 250 q 124 551 83 468 q 236 680 164 633 q 401 726 307 726 q 556 684 489 726 q 661 567 623 642 q 698 393 698 492 q 697 360 698 380 q 692 326 696 340 l 149 326 l 149 397 l 615 397 q 589 528 616 471 q 513 616 562 584 q 401 648 465 648 q 278 611 331 648 q 194 509 224 574 q 164 358 164 444 q 195 207 164 272 q 282 104 227 141 q 411 67 338 67 q 517 89 465 67 q 611 147 569 110 l 643 71 q 537 12 598 34 q 412 -11 476 -11 m 242 1044 l 399 884 l 404 884 l 559 1044 l 602 998 l 414 812 l 387 812 l 200 998 l 242 1044 z "},"ḝ":{"ha":781,"x_min":83,"x_max":698,"o":"m 412 -11 q 240 36 315 -11 q 125 166 166 83 q 83 359 83 250 q 124 551 83 468 q 236 680 164 633 q 401 726 307 726 q 556 684 489 726 q 661 567 623 642 q 698 393 698 492 q 697 360 698 380 q 692 326 696 340 l 149 326 l 149 397 l 615 397 q 589 528 616 471 q 513 616 562 584 q 401 648 465 648 q 278 611 331 648 q 194 509 224 574 q 164 358 164 444 q 195 207 164 272 q 282 104 227 141 q 411 67 338 67 q 517 89 465 67 q 611 147 569 110 l 643 71 q 537 12 598 34 q 412 -11 476 -11 m 303 -306 l 303 -248 q 406 -235 369 -251 q 444 -182 444 -220 q 415 -138 444 -156 q 342 -120 387 -120 l 377 0 l 431 0 l 397 -110 l 387 -77 q 473 -116 444 -87 q 503 -188 503 -146 q 452 -275 503 -245 q 303 -306 401 -306 m 401 825 q 299 852 345 825 q 225 924 252 878 q 198 1026 198 969 l 260 1026 q 301 925 260 966 q 401 884 342 884 q 503 925 463 884 q 543 1026 543 966 l 606 1026 q 579 924 606 969 q 506 852 552 878 q 401 825 460 825 z "},"ê":{"ha":781,"x_min":83,"x_max":698,"o":"m 412 -11 q 240 36 315 -11 q 125 166 166 83 q 83 359 83 250 q 124 551 83 468 q 236 680 164 633 q 401 726 307 726 q 556 684 489 726 q 661 567 623 642 q 698 393 698 492 q 697 360 698 380 q 692 326 696 340 l 149 326 l 149 397 l 615 397 q 589 528 616 471 q 513 616 562 584 q 401 648 465 648 q 278 611 331 648 q 194 509 224 574 q 164 358 164 444 q 195 207 164 272 q 282 104 227 141 q 411 67 338 67 q 517 89 465 67 q 611 147 569 110 l 643 71 q 537 12 598 34 q 412 -11 476 -11 m 241 811 l 199 857 l 387 1042 l 414 1042 l 601 857 l 559 811 l 404 971 l 398 971 l 241 811 z "},"ế":{"ha":781,"x_min":83,"x_max":762,"o":"m 412 -11 q 240 36 315 -11 q 125 166 166 83 q 83 359 83 250 q 124 551 83 468 q 236 680 164 633 q 401 726 307 726 q 556 684 489 726 q 661 567 623 642 q 698 393 698 492 q 697 360 698 380 q 692 326 696 340 l 149 326 l 149 397 l 615 397 q 589 528 616 471 q 513 616 562 584 q 401 648 465 648 q 278 611 331 648 q 194 509 224 574 q 164 358 164 444 q 195 207 164 272 q 282 104 227 141 q 411 67 338 67 q 517 89 465 67 q 611 147 569 110 l 643 71 q 537 12 598 34 q 412 -11 476 -11 m 578 960 l 533 998 l 712 1185 l 762 1127 l 578 960 m 235 814 l 191 863 l 387 1015 l 416 1015 l 610 863 l 565 814 l 405 943 l 397 943 l 235 814 z "},"ệ":{"ha":781,"x_min":83,"x_max":698,"o":"m 412 -11 q 240 36 315 -11 q 125 166 166 83 q 83 359 83 250 q 124 551 83 468 q 236 680 164 633 q 401 726 307 726 q 556 684 489 726 q 661 567 623 642 q 698 393 698 492 q 697 360 698 380 q 692 326 696 340 l 149 326 l 149 397 l 615 397 q 589 528 616 471 q 513 616 562 584 q 401 648 465 648 q 278 611 331 648 q 194 509 224 574 q 164 358 164 444 q 195 207 164 272 q 282 104 227 141 q 411 67 338 67 q 517 89 465 67 q 611 147 569 110 l 643 71 q 537 12 598 34 q 412 -11 476 -11 m 399 -241 q 346 -220 368 -241 q 324 -166 324 -198 q 346 -113 324 -134 q 399 -91 368 -91 q 453 -113 431 -91 q 475 -166 475 -134 q 453 -220 475 -198 q 399 -241 431 -241 m 241 811 l 199 857 l 387 1042 l 414 1042 l 601 857 l 559 811 l 404 971 l 398 971 l 241 811 z "},"ề":{"ha":781,"x_min":41,"x_max":698,"o":"m 412 -11 q 240 36 315 -11 q 125 166 166 83 q 83 359 83 250 q 124 551 83 468 q 236 680 164 633 q 401 726 307 726 q 556 684 489 726 q 661 567 623 642 q 698 393 698 492 q 697 360 698 380 q 692 326 696 340 l 149 326 l 149 397 l 615 397 q 589 528 616 471 q 513 616 562 584 q 401 648 465 648 q 278 611 331 648 q 194 509 224 574 q 164 358 164 444 q 195 207 164 272 q 282 104 227 141 q 411 67 338 67 q 517 89 465 67 q 611 147 569 110 l 643 71 q 537 12 598 34 q 412 -11 476 -11 m 225 960 l 41 1127 l 90 1185 l 270 998 l 225 960 m 568 814 l 405 943 l 398 943 l 237 814 l 193 863 l 387 1015 l 416 1015 l 612 863 l 568 814 z "},"ể":{"ha":781,"x_min":83,"x_max":698,"o":"m 412 -11 q 240 36 315 -11 q 125 166 166 83 q 83 359 83 250 q 124 551 83 468 q 236 680 164 633 q 401 726 307 726 q 556 684 489 726 q 661 567 623 642 q 698 393 698 492 q 697 360 698 380 q 692 326 696 340 l 149 326 l 149 397 l 615 397 q 589 528 616 471 q 513 616 562 584 q 401 648 465 648 q 278 611 331 648 q 194 509 224 574 q 164 358 164 444 q 195 207 164 272 q 282 104 227 141 q 411 67 338 67 q 517 89 465 67 q 611 147 569 110 l 643 71 q 537 12 598 34 q 412 -11 476 -11 m 566 956 l 524 988 q 559 1029 544 1006 q 574 1072 574 1052 q 557 1113 574 1097 q 507 1128 539 1128 q 471 1124 491 1128 q 435 1113 451 1120 l 435 1175 q 473 1184 450 1181 q 515 1188 496 1188 q 603 1161 570 1188 q 637 1083 637 1134 q 625 1033 637 1057 q 597 988 614 1008 q 566 956 581 968 m 236 814 l 191 863 l 388 1015 l 417 1015 l 611 863 l 566 814 l 406 943 l 398 943 l 236 814 z "},"ễ":{"ha":781,"x_min":83,"x_max":698,"o":"m 412 -11 q 240 36 315 -11 q 125 166 166 83 q 83 359 83 250 q 124 551 83 468 q 236 680 164 633 q 401 726 307 726 q 556 684 489 726 q 661 567 623 642 q 698 393 698 492 q 697 360 698 380 q 692 326 696 340 l 149 326 l 149 397 l 615 397 q 589 528 616 471 q 513 616 562 584 q 401 648 465 648 q 278 611 331 648 q 194 509 224 574 q 164 358 164 444 q 195 207 164 272 q 282 104 227 141 q 411 67 338 67 q 517 89 465 67 q 611 147 569 110 l 643 71 q 537 12 598 34 q 412 -11 476 -11 m 197 1050 q 230 1154 197 1117 q 317 1192 263 1192 q 372 1180 349 1192 q 411 1153 394 1168 q 445 1126 428 1137 q 483 1114 462 1114 q 526 1135 511 1114 q 542 1192 542 1155 l 606 1192 q 593 1118 607 1149 q 552 1068 578 1086 q 490 1050 526 1050 q 438 1063 460 1050 q 398 1091 416 1075 q 362 1119 380 1107 q 322 1131 344 1131 q 279 1112 296 1131 q 260 1050 261 1093 l 197 1050 m 237 814 l 192 863 l 389 1015 l 417 1015 l 611 863 l 566 814 l 406 943 l 399 943 l 237 814 z "},"ȅ":{"ha":781,"x_min":83,"x_max":698,"o":"m 412 -11 q 240 36 315 -11 q 125 166 166 83 q 83 359 83 250 q 124 551 83 468 q 236 680 164 633 q 401 726 307 726 q 556 684 489 726 q 661 567 623 642 q 698 393 698 492 q 697 360 698 380 q 692 326 696 340 l 149 326 l 149 397 l 615 397 q 589 528 616 471 q 513 616 562 584 q 401 648 465 648 q 278 611 331 648 q 194 509 224 574 q 164 358 164 444 q 195 207 164 272 q 282 104 227 141 q 411 67 338 67 q 517 89 465 67 q 611 147 569 110 l 643 71 q 537 12 598 34 q 412 -11 476 -11 m 505 805 l 353 1045 l 417 1082 l 554 822 l 505 805 m 312 805 l 158 1045 l 220 1082 l 359 822 l 312 805 z "},"ë":{"ha":781,"x_min":83,"x_max":698,"o":"m 412 -11 q 240 36 315 -11 q 125 166 166 83 q 83 359 83 250 q 124 551 83 468 q 236 680 164 633 q 401 726 307 726 q 556 684 489 726 q 661 567 623 642 q 698 393 698 492 q 697 360 698 380 q 692 326 696 340 l 149 326 l 149 397 l 615 397 q 589 528 616 471 q 513 616 562 584 q 401 648 465 648 q 278 611 331 648 q 194 509 224 574 q 164 358 164 444 q 195 207 164 272 q 282 104 227 141 q 411 67 338 67 q 517 89 465 67 q 611 147 569 110 l 643 71 q 537 12 598 34 q 412 -11 476 -11 m 527 847 q 475 869 496 847 q 454 921 454 890 q 475 974 454 953 q 527 995 496 995 q 580 974 559 995 q 601 921 601 953 q 580 869 601 890 q 527 847 559 847 m 277 847 q 225 869 246 847 q 203 921 203 890 q 225 974 203 953 q 277 995 246 995 q 330 974 309 995 q 351 921 351 953 q 330 869 351 890 q 277 847 309 847 z "},"ė":{"ha":781,"x_min":83,"x_max":698,"o":"m 412 -11 q 240 36 315 -11 q 125 166 166 83 q 83 359 83 250 q 124 551 83 468 q 236 680 164 633 q 401 726 307 726 q 556 684 489 726 q 661 567 623 642 q 698 393 698 492 q 697 360 698 380 q 692 326 696 340 l 149 326 l 149 397 l 615 397 q 589 528 616 471 q 513 616 562 584 q 401 648 465 648 q 278 611 331 648 q 194 509 224 574 q 164 358 164 444 q 195 207 164 272 q 282 104 227 141 q 411 67 338 67 q 517 89 465 67 q 611 147 569 110 l 643 71 q 537 12 598 34 q 412 -11 476 -11 m 401 842 q 348 864 370 842 q 326 918 326 886 q 348 971 326 949 q 401 993 370 993 q 455 971 433 993 q 477 918 477 949 q 455 864 477 886 q 401 842 433 842 z "},"ẹ":{"ha":781,"x_min":83,"x_max":698,"o":"m 412 -11 q 240 36 315 -11 q 125 166 166 83 q 83 359 83 250 q 124 551 83 468 q 236 680 164 633 q 401 726 307 726 q 556 684 489 726 q 661 567 623 642 q 698 393 698 492 q 697 360 698 380 q 692 326 696 340 l 149 326 l 149 397 l 615 397 q 589 528 616 471 q 513 616 562 584 q 401 648 465 648 q 278 611 331 648 q 194 509 224 574 q 164 358 164 444 q 195 207 164 272 q 282 104 227 141 q 411 67 338 67 q 517 89 465 67 q 611 147 569 110 l 643 71 q 537 12 598 34 q 412 -11 476 -11 m 399 -241 q 346 -220 368 -241 q 324 -166 324 -198 q 346 -113 324 -134 q 399 -91 368 -91 q 453 -113 431 -91 q 475 -166 475 -134 q 453 -220 475 -198 q 399 -241 431 -241 z "},"è":{"ha":781,"x_min":83,"x_max":698,"o":"m 412 -11 q 240 36 315 -11 q 125 166 166 83 q 83 359 83 250 q 124 551 83 468 q 236 680 164 633 q 401 726 307 726 q 556 684 489 726 q 661 567 623 642 q 698 393 698 492 q 697 360 698 380 q 692 326 696 340 l 149 326 l 149 397 l 615 397 q 589 528 616 471 q 513 616 562 584 q 401 648 465 648 q 278 611 331 648 q 194 509 224 574 q 164 358 164 444 q 195 207 164 272 q 282 104 227 141 q 411 67 338 67 q 517 89 465 67 q 611 147 569 110 l 643 71 q 537 12 598 34 q 412 -11 476 -11 m 404 802 l 222 1013 l 286 1067 l 450 842 l 404 802 z "},"ẻ":{"ha":781,"x_min":83,"x_max":698,"o":"m 412 -11 q 240 36 315 -11 q 125 166 166 83 q 83 359 83 250 q 124 551 83 468 q 236 680 164 633 q 401 726 307 726 q 556 684 489 726 q 661 567 623 642 q 698 393 698 492 q 697 360 698 380 q 692 326 696 340 l 149 326 l 149 397 l 615 397 q 589 528 616 471 q 513 616 562 584 q 401 648 465 648 q 278 611 331 648 q 194 509 224 574 q 164 358 164 444 q 195 207 164 272 q 282 104 227 141 q 411 67 338 67 q 517 89 465 67 q 611 147 569 110 l 643 71 q 537 12 598 34 q 412 -11 476 -11 m 418 802 l 380 844 q 424 879 406 857 q 441 925 441 901 q 424 965 441 951 q 374 979 406 979 q 337 975 357 979 q 301 965 317 971 l 301 1027 q 340 1037 317 1034 q 378 1040 363 1040 q 468 1011 436 1040 q 500 934 500 983 q 477 856 500 893 q 418 802 453 819 z "},"ȇ":{"ha":781,"x_min":83,"x_max":698,"o":"m 412 -11 q 240 36 315 -11 q 125 166 166 83 q 83 359 83 250 q 124 551 83 468 q 236 680 164 633 q 401 726 307 726 q 556 684 489 726 q 661 567 623 642 q 698 393 698 492 q 697 360 698 380 q 692 326 696 340 l 149 326 l 149 397 l 615 397 q 589 528 616 471 q 513 616 562 584 q 401 648 465 648 q 278 611 331 648 q 194 509 224 574 q 164 358 164 444 q 195 207 164 272 q 282 104 227 141 q 411 67 338 67 q 517 89 465 67 q 611 147 569 110 l 643 71 q 537 12 598 34 q 412 -11 476 -11 m 401 1030 q 505 1004 458 1030 q 578 932 551 977 q 605 829 606 886 l 542 829 q 502 931 542 890 q 401 971 462 971 q 300 931 340 971 q 260 829 259 890 l 197 829 q 224 932 197 886 q 298 1004 252 977 q 401 1030 344 1030 z "},"ē":{"ha":781,"x_min":83,"x_max":698,"o":"m 412 -11 q 240 36 315 -11 q 125 166 166 83 q 83 359 83 250 q 124 551 83 468 q 236 680 164 633 q 401 726 307 726 q 556 684 489 726 q 661 567 623 642 q 698 393 698 492 q 697 360 698 380 q 692 326 696 340 l 149 326 l 149 397 l 615 397 q 589 528 616 471 q 513 616 562 584 q 401 648 465 648 q 278 611 331 648 q 194 509 224 574 q 164 358 164 444 q 195 207 164 272 q 282 104 227 141 q 411 67 338 67 q 517 89 465 67 q 611 147 569 110 l 643 71 q 537 12 598 34 q 412 -11 476 -11 m 178 883 l 178 944 l 622 944 l 622 883 l 178 883 z "},"ḗ":{"ha":781,"x_min":83,"x_max":698,"o":"m 412 -11 q 240 36 315 -11 q 125 166 166 83 q 83 359 83 250 q 124 551 83 468 q 236 680 164 633 q 401 726 307 726 q 556 684 489 726 q 661 567 623 642 q 698 393 698 492 q 697 360 698 380 q 692 326 696 340 l 149 326 l 149 397 l 615 397 q 589 528 616 471 q 513 616 562 584 q 401 648 465 648 q 278 611 331 648 q 194 509 224 574 q 164 358 164 444 q 195 207 164 272 q 282 104 227 141 q 411 67 338 67 q 517 89 465 67 q 611 147 569 110 l 643 71 q 537 12 598 34 q 412 -11 476 -11 m 178 883 l 178 944 l 622 944 l 622 883 l 178 883 m 399 1023 l 353 1062 l 517 1288 l 581 1233 l 399 1023 z "},"ḕ":{"ha":781,"x_min":83,"x_max":698,"o":"m 412 -11 q 240 36 315 -11 q 125 166 166 83 q 83 359 83 250 q 124 551 83 468 q 236 680 164 633 q 401 726 307 726 q 556 684 489 726 q 661 567 623 642 q 698 393 698 492 q 697 360 698 380 q 692 326 696 340 l 149 326 l 149 397 l 615 397 q 589 528 616 471 q 513 616 562 584 q 401 648 465 648 q 278 611 331 648 q 194 509 224 574 q 164 358 164 444 q 195 207 164 272 q 282 104 227 141 q 411 67 338 67 q 517 89 465 67 q 611 147 569 110 l 643 71 q 537 12 598 34 q 412 -11 476 -11 m 178 883 l 178 944 l 622 944 l 622 883 l 178 883 m 404 1023 l 222 1233 l 286 1288 l 450 1062 l 404 1023 z "},"ę":{"ha":781,"x_min":83,"x_max":698,"o":"m 412 -11 q 240 36 315 -11 q 125 166 166 83 q 83 359 83 250 q 124 551 83 468 q 236 680 164 633 q 401 726 307 726 q 556 684 489 726 q 661 567 623 642 q 698 393 698 492 q 697 360 698 380 q 692 326 696 340 l 149 326 l 149 397 l 615 397 q 589 528 616 471 q 513 616 562 584 q 401 648 465 648 q 278 611 331 648 q 194 509 224 574 q 164 358 164 444 q 195 207 164 272 q 282 104 227 141 q 411 67 338 67 q 517 89 465 67 q 611 147 569 110 l 643 71 q 537 12 598 34 q 412 -11 476 -11 m 574 -201 q 498 -170 528 -201 q 469 -92 469 -140 q 505 5 469 -38 q 593 92 542 47 l 643 71 q 591 19 617 43 q 547 -31 565 -6 q 530 -85 530 -56 q 547 -127 530 -112 q 588 -142 564 -142 q 632 -132 610 -142 q 665 -113 653 -123 l 665 -174 q 624 -193 651 -186 q 574 -201 597 -201 z "},"ẽ":{"ha":781,"x_min":83,"x_max":698,"o":"m 412 -11 q 240 36 315 -11 q 125 166 166 83 q 83 359 83 250 q 124 551 83 468 q 236 680 164 633 q 401 726 307 726 q 556 684 489 726 q 661 567 623 642 q 698 393 698 492 q 697 360 698 380 q 692 326 696 340 l 149 326 l 149 397 l 615 397 q 589 528 616 471 q 513 616 562 584 q 401 648 465 648 q 278 611 331 648 q 194 509 224 574 q 164 358 164 444 q 195 207 164 272 q 282 104 227 141 q 411 67 338 67 q 517 89 465 67 q 611 147 569 110 l 643 71 q 537 12 598 34 q 412 -11 476 -11 m 195 833 q 229 948 195 909 q 315 987 263 987 q 372 973 349 987 q 413 942 395 960 q 447 911 430 924 q 486 898 465 898 q 530 923 514 898 q 546 987 547 948 l 610 987 q 576 874 610 915 q 489 833 543 833 q 435 847 458 833 q 394 880 412 861 q 358 912 376 898 q 317 926 340 926 q 274 901 290 926 q 258 833 258 876 l 195 833 z "},"ə":{"ha":781,"x_min":79,"x_max":703,"o":"m 380 -11 q 224 32 292 -11 q 117 149 156 75 q 79 317 79 222 q 80 357 79 339 q 83 389 82 375 l 637 389 l 637 319 l 161 319 q 188 192 161 249 q 264 101 214 135 q 380 67 314 67 q 503 103 448 67 q 589 204 557 138 q 621 358 621 269 q 590 510 621 444 q 502 611 559 575 q 369 648 445 648 q 289 636 326 648 q 222 607 252 625 q 168 568 191 589 l 136 645 q 237 702 176 677 q 369 726 298 726 q 541 680 466 726 q 660 551 616 634 q 703 357 703 468 q 661 165 703 248 q 546 36 618 82 q 380 -11 473 -11 z "},"f":{"ha":781,"x_min":101,"x_max":715,"o":"m 286 0 l 286 797 q 318 941 286 882 q 404 1029 349 999 q 528 1059 458 1059 q 625 1044 575 1059 q 715 1003 675 1029 l 684 932 q 608 969 648 956 q 532 981 568 981 q 416 937 461 981 q 370 802 370 892 l 370 0 l 286 0 m 101 639 l 101 715 l 682 715 l 682 639 l 101 639 z "},"g":{"ha":781,"x_min":79,"x_max":667,"o":"m 372 -296 q 245 -274 309 -296 q 144 -224 182 -253 l 175 -148 q 260 -199 208 -178 q 365 -219 313 -219 q 469 -194 418 -219 q 552 -119 519 -170 q 585 10 585 -68 l 585 129 l 571 129 l 587 182 l 587 545 l 566 602 l 583 602 l 583 715 l 667 715 l 667 15 q 641 -127 667 -68 q 571 -224 614 -186 q 476 -278 528 -261 q 372 -296 424 -296 m 367 -6 q 256 19 308 -6 q 164 93 203 45 q 102 209 124 141 q 79 363 79 277 q 118 557 79 476 q 223 683 157 639 q 371 726 290 726 q 510 684 448 726 q 608 560 572 641 q 644 364 644 479 q 607 166 644 249 q 507 39 570 83 q 367 -6 444 -6 m 378 72 q 485 110 438 72 q 559 215 532 148 q 587 367 587 281 q 559 515 587 452 q 485 613 532 578 q 378 648 438 648 q 266 612 314 648 q 192 512 218 576 q 165 363 165 448 q 193 211 165 277 q 269 109 221 146 q 378 72 317 72 z "},"ǵ":{"ha":781,"x_min":79,"x_max":667,"o":"m 372 -296 q 245 -274 309 -296 q 144 -224 182 -253 l 175 -148 q 260 -199 208 -178 q 365 -219 313 -219 q 469 -194 418 -219 q 552 -119 519 -170 q 585 10 585 -68 l 585 129 l 571 129 l 587 182 l 587 545 l 566 602 l 583 602 l 583 715 l 667 715 l 667 15 q 641 -127 667 -68 q 571 -224 614 -186 q 476 -278 528 -261 q 372 -296 424 -296 m 367 -6 q 256 19 308 -6 q 164 93 203 45 q 102 209 124 141 q 79 363 79 277 q 118 557 79 476 q 223 683 157 639 q 371 726 290 726 q 510 684 448 726 q 608 560 572 641 q 644 364 644 479 q 607 166 644 249 q 507 39 570 83 q 367 -6 444 -6 m 378 72 q 485 110 438 72 q 559 215 532 148 q 587 367 587 281 q 559 515 587 452 q 485 613 532 578 q 378 648 438 648 q 266 612 314 648 q 192 512 218 576 q 165 363 165 448 q 193 211 165 277 q 269 109 221 146 q 378 72 317 72 m 379 802 l 334 842 l 498 1067 l 561 1013 l 379 802 z "},"ğ":{"ha":781,"x_min":79,"x_max":667,"o":"m 372 -296 q 245 -274 309 -296 q 144 -224 182 -253 l 175 -148 q 260 -199 208 -178 q 365 -219 313 -219 q 469 -194 418 -219 q 552 -119 519 -170 q 585 10 585 -68 l 585 129 l 571 129 l 587 182 l 587 545 l 566 602 l 583 602 l 583 715 l 667 715 l 667 15 q 641 -127 667 -68 q 571 -224 614 -186 q 476 -278 528 -261 q 372 -296 424 -296 m 367 -6 q 256 19 308 -6 q 164 93 203 45 q 102 209 124 141 q 79 363 79 277 q 118 557 79 476 q 223 683 157 639 q 371 726 290 726 q 510 684 448 726 q 608 560 572 641 q 644 364 644 479 q 607 166 644 249 q 507 39 570 83 q 367 -6 444 -6 m 378 72 q 485 110 438 72 q 559 215 532 148 q 587 367 587 281 q 559 515 587 452 q 485 613 532 578 q 378 648 438 648 q 266 612 314 648 q 192 512 218 576 q 165 363 165 448 q 193 211 165 277 q 269 109 221 146 q 378 72 317 72 m 382 825 q 280 852 326 825 q 206 924 233 878 q 179 1026 179 969 l 241 1026 q 282 925 241 966 q 382 884 323 884 q 484 925 444 884 q 524 1026 524 966 l 587 1026 q 560 924 587 969 q 487 852 533 878 q 382 825 441 825 z "},"ǧ":{"ha":781,"x_min":79,"x_max":667,"o":"m 372 -296 q 245 -274 309 -296 q 144 -224 182 -253 l 175 -148 q 260 -199 208 -178 q 365 -219 313 -219 q 469 -194 418 -219 q 552 -119 519 -170 q 585 10 585 -68 l 585 129 l 571 129 l 587 182 l 587 545 l 566 602 l 583 602 l 583 715 l 667 715 l 667 15 q 641 -127 667 -68 q 571 -224 614 -186 q 476 -278 528 -261 q 372 -296 424 -296 m 367 -6 q 256 19 308 -6 q 164 93 203 45 q 102 209 124 141 q 79 363 79 277 q 118 557 79 476 q 223 683 157 639 q 371 726 290 726 q 510 684 448 726 q 608 560 572 641 q 644 364 644 479 q 607 166 644 249 q 507 39 570 83 q 367 -6 444 -6 m 378 72 q 485 110 438 72 q 559 215 532 148 q 587 367 587 281 q 559 515 587 452 q 485 613 532 578 q 378 648 438 648 q 266 612 314 648 q 192 512 218 576 q 165 363 165 448 q 193 211 165 277 q 269 109 221 146 q 378 72 317 72 m 222 1044 l 380 884 l 385 884 l 541 1044 l 582 998 l 395 812 l 368 812 l 181 998 l 222 1044 z "},"ĝ":{"ha":781,"x_min":79,"x_max":667,"o":"m 372 -296 q 245 -274 309 -296 q 144 -224 182 -253 l 175 -148 q 260 -199 208 -178 q 365 -219 313 -219 q 469 -194 418 -219 q 552 -119 519 -170 q 585 10 585 -68 l 585 129 l 571 129 l 587 182 l 587 545 l 566 602 l 583 602 l 583 715 l 667 715 l 667 15 q 641 -127 667 -68 q 571 -224 614 -186 q 476 -278 528 -261 q 372 -296 424 -296 m 367 -6 q 256 19 308 -6 q 164 93 203 45 q 102 209 124 141 q 79 363 79 277 q 118 557 79 476 q 223 683 157 639 q 371 726 290 726 q 510 684 448 726 q 608 560 572 641 q 644 364 644 479 q 607 166 644 249 q 507 39 570 83 q 367 -6 444 -6 m 378 72 q 485 110 438 72 q 559 215 532 148 q 587 367 587 281 q 559 515 587 452 q 485 613 532 578 q 378 648 438 648 q 266 612 314 648 q 192 512 218 576 q 165 363 165 448 q 193 211 165 277 q 269 109 221 146 q 378 72 317 72 m 222 811 l 180 857 l 368 1042 l 395 1042 l 582 857 l 540 811 l 385 971 l 379 971 l 222 811 z "},"ģ":{"ha":781,"x_min":79,"x_max":667,"o":"m 372 -296 q 245 -274 309 -296 q 144 -224 182 -253 l 175 -148 q 260 -199 208 -178 q 365 -219 313 -219 q 469 -194 418 -219 q 552 -119 519 -170 q 585 10 585 -68 l 585 129 l 571 129 l 587 182 l 587 545 l 566 602 l 583 602 l 583 715 l 667 715 l 667 15 q 641 -127 667 -68 q 571 -224 614 -186 q 476 -278 528 -261 q 372 -296 424 -296 m 367 -6 q 256 19 308 -6 q 164 93 203 45 q 102 209 124 141 q 79 363 79 277 q 118 557 79 476 q 223 683 157 639 q 371 726 290 726 q 510 684 448 726 q 608 560 572 641 q 644 364 644 479 q 607 166 644 249 q 507 39 570 83 q 367 -6 444 -6 m 378 72 q 485 110 438 72 q 559 215 532 148 q 587 367 587 281 q 559 515 587 452 q 485 613 532 578 q 378 648 438 648 q 266 612 314 648 q 192 512 218 576 q 165 363 165 448 q 193 211 165 277 q 269 109 221 146 q 378 72 317 72 m 422 1069 l 451 1039 l 402 985 q 377 953 387 966 q 362 928 367 940 q 359 905 358 917 l 340 903 q 352 925 344 916 q 375 935 359 935 q 414 917 395 935 q 433 872 433 900 q 415 829 433 846 q 375 812 397 812 q 332 831 349 812 q 315 883 315 851 q 325 934 315 909 q 348 978 335 958 q 371 1007 361 997 l 422 1069 z "},"ġ":{"ha":781,"x_min":79,"x_max":667,"o":"m 372 -296 q 245 -274 309 -296 q 144 -224 182 -253 l 175 -148 q 260 -199 208 -178 q 365 -219 313 -219 q 469 -194 418 -219 q 552 -119 519 -170 q 585 10 585 -68 l 585 129 l 571 129 l 587 182 l 587 545 l 566 602 l 583 602 l 583 715 l 667 715 l 667 15 q 641 -127 667 -68 q 571 -224 614 -186 q 476 -278 528 -261 q 372 -296 424 -296 m 367 -6 q 256 19 308 -6 q 164 93 203 45 q 102 209 124 141 q 79 363 79 277 q 118 557 79 476 q 223 683 157 639 q 371 726 290 726 q 510 684 448 726 q 608 560 572 641 q 644 364 644 479 q 607 166 644 249 q 507 39 570 83 q 367 -6 444 -6 m 378 72 q 485 110 438 72 q 559 215 532 148 q 587 367 587 281 q 559 515 587 452 q 485 613 532 578 q 378 648 438 648 q 266 612 314 648 q 192 512 218 576 q 165 363 165 448 q 193 211 165 277 q 269 109 221 146 q 378 72 317 72 m 382 842 q 328 864 350 842 q 307 918 307 886 q 328 971 307 949 q 382 993 350 993 q 435 971 414 993 q 457 918 457 949 q 435 864 457 886 q 382 842 414 842 z "},"ḡ":{"ha":781,"x_min":79,"x_max":667,"o":"m 372 -296 q 245 -274 309 -296 q 144 -224 182 -253 l 175 -148 q 260 -199 208 -178 q 365 -219 313 -219 q 469 -194 418 -219 q 552 -119 519 -170 q 585 10 585 -68 l 585 129 l 571 129 l 587 182 l 587 545 l 566 602 l 583 602 l 583 715 l 667 715 l 667 15 q 641 -127 667 -68 q 571 -224 614 -186 q 476 -278 528 -261 q 372 -296 424 -296 m 367 -6 q 256 19 308 -6 q 164 93 203 45 q 102 209 124 141 q 79 363 79 277 q 118 557 79 476 q 223 683 157 639 q 371 726 290 726 q 510 684 448 726 q 608 560 572 641 q 644 364 644 479 q 607 166 644 249 q 507 39 570 83 q 367 -6 444 -6 m 378 72 q 485 110 438 72 q 559 215 532 148 q 587 367 587 281 q 559 515 587 452 q 485 613 532 578 q 378 648 438 648 q 266 612 314 648 q 192 512 218 576 q 165 363 165 448 q 193 211 165 277 q 269 109 221 146 q 378 72 317 72 m 159 883 l 159 944 l 602 944 l 602 883 l 159 883 z "},"h":{"ha":781,"x_min":119,"x_max":665,"o":"m 119 0 l 119 1044 l 203 1044 l 203 618 l 227 618 l 185 575 q 233 654 199 621 q 316 707 267 688 q 423 726 365 726 q 556 689 502 726 q 638 591 610 652 q 665 460 665 530 l 665 0 l 581 0 l 581 445 q 532 595 581 543 q 401 648 483 648 q 301 624 346 648 q 229 554 256 600 q 203 444 203 508 l 203 0 l 119 0 z "},"ħ":{"ha":781,"x_min":-1,"x_max":665,"o":"m 119 0 l 119 1044 l 203 1044 l 203 618 l 227 618 l 185 575 q 233 654 199 621 q 316 707 267 688 q 423 726 365 726 q 556 689 502 726 q 638 591 610 652 q 665 460 665 530 l 665 0 l 581 0 l 581 445 q 532 595 581 543 q 401 648 483 648 q 301 624 346 648 q 229 554 256 600 q 203 444 203 508 l 203 0 l 119 0 m -1 825 l -1 896 l 328 896 l 328 825 l -1 825 z "},"ḫ":{"ha":781,"x_min":119,"x_max":665,"o":"m 119 0 l 119 1044 l 203 1044 l 203 618 l 227 618 l 185 575 q 233 654 199 621 q 316 707 267 688 q 423 726 365 726 q 556 689 502 726 q 638 591 610 652 q 665 460 665 530 l 665 0 l 581 0 l 581 445 q 532 595 581 543 q 401 648 483 648 q 301 624 346 648 q 229 554 256 600 q 203 444 203 508 l 203 0 l 119 0 m 391 -281 q 288 -254 334 -281 q 214 -182 241 -228 q 187 -80 187 -137 l 250 -80 q 290 -181 250 -140 q 391 -222 331 -222 q 492 -181 452 -222 q 532 -80 532 -140 l 595 -80 q 568 -182 595 -137 q 495 -254 541 -228 q 391 -281 449 -281 z "},"ĥ":{"ha":781,"x_min":-47,"x_max":665,"o":"m 119 0 l 119 1044 l 203 1044 l 203 618 l 227 618 l 185 575 q 233 654 199 621 q 316 707 267 688 q 423 726 365 726 q 556 689 502 726 q 638 591 610 652 q 665 460 665 530 l 665 0 l 581 0 l 581 445 q 532 595 581 543 q 401 648 483 648 q 301 624 346 648 q 229 554 256 600 q 203 444 203 508 l 203 0 l 119 0 m -1 1070 l -46 1121 l 151 1270 l 179 1270 l 373 1121 l 328 1070 l 168 1202 l 161 1202 l -1 1070 z "},"ḥ":{"ha":781,"x_min":119,"x_max":665,"o":"m 119 0 l 119 1044 l 203 1044 l 203 618 l 227 618 l 185 575 q 233 654 199 621 q 316 707 267 688 q 423 726 365 726 q 556 689 502 726 q 638 591 610 652 q 665 460 665 530 l 665 0 l 581 0 l 581 445 q 532 595 581 543 q 401 648 483 648 q 301 624 346 648 q 229 554 256 600 q 203 444 203 508 l 203 0 l 119 0 m 391 -241 q 338 -220 359 -241 q 316 -166 316 -198 q 338 -113 316 -134 q 391 -91 359 -91 q 445 -113 423 -91 q 467 -166 467 -134 q 445 -220 467 -198 q 391 -241 423 -241 z "},"i":{"ha":781,"x_min":145,"x_max":505,"o":"m 387 0 l 387 715 l 471 715 l 471 0 l 387 0 m 145 639 l 145 715 l 471 715 l 471 639 l 145 639 m 429 842 q 376 864 397 842 q 354 918 354 886 q 376 971 354 949 q 429 993 397 993 q 483 971 461 993 q 505 918 505 949 q 483 864 505 886 q 429 842 461 842 z "},"ı":{"ha":781,"x_min":145,"x_max":471,"o":"m 387 0 l 387 715 l 471 715 l 471 0 l 387 0 m 145 639 l 145 715 l 471 715 l 471 639 l 145 639 z "},"í":{"ha":781,"x_min":145,"x_max":608,"o":"m 387 0 l 387 715 l 471 715 l 471 0 l 387 0 m 145 639 l 145 715 l 471 715 l 471 639 l 145 639 m 427 802 l 381 842 l 545 1067 l 608 1013 l 427 802 z "},"ĭ":{"ha":781,"x_min":145,"x_max":635,"o":"m 387 0 l 387 715 l 471 715 l 471 0 l 387 0 m 145 639 l 145 715 l 471 715 l 471 639 l 145 639 m 430 825 q 327 852 374 825 q 254 924 281 878 q 227 1026 227 969 l 289 1026 q 330 925 289 966 q 430 884 370 884 q 531 925 491 884 q 572 1026 571 966 l 634 1026 q 608 924 635 969 q 534 852 581 878 q 430 825 488 825 z "},"ǐ":{"ha":781,"x_min":145,"x_max":629,"o":"m 387 0 l 387 715 l 471 715 l 471 0 l 387 0 m 145 639 l 145 715 l 471 715 l 471 639 l 145 639 m 270 1044 l 427 884 l 432 884 l 587 1044 l 629 998 l 442 812 l 416 812 l 228 998 l 270 1044 z "},"î":{"ha":781,"x_min":145,"x_max":629,"o":"m 387 0 l 387 715 l 471 715 l 471 0 l 387 0 m 145 639 l 145 715 l 471 715 l 471 639 l 145 639 m 270 811 l 228 857 l 415 1042 l 442 1042 l 629 857 l 587 811 l 432 971 l 427 971 l 270 811 z "},"ȉ":{"ha":781,"x_min":145,"x_max":582,"o":"m 387 0 l 387 715 l 471 715 l 471 0 l 387 0 m 145 639 l 145 715 l 471 715 l 471 639 l 145 639 m 533 805 l 380 1045 l 445 1082 l 582 822 l 533 805 m 340 805 l 186 1045 l 248 1082 l 387 822 l 340 805 z "},"ï":{"ha":781,"x_min":145,"x_max":629,"o":"m 387 0 l 387 715 l 471 715 l 471 0 l 387 0 m 145 639 l 145 715 l 471 715 l 471 639 l 145 639 m 555 847 q 503 869 524 847 q 481 921 481 890 q 503 974 481 953 q 555 995 524 995 q 608 974 587 995 q 629 921 629 953 q 608 869 629 890 q 555 847 587 847 m 305 847 q 253 869 274 847 q 231 921 231 890 q 253 974 231 953 q 305 995 274 995 q 358 974 337 995 q 378 921 378 953 q 358 869 378 890 q 305 847 337 847 z "},"ḯ":{"ha":781,"x_min":145,"x_max":629,"o":"m 387 0 l 387 715 l 471 715 l 471 0 l 387 0 m 145 639 l 145 715 l 471 715 l 471 639 l 145 639 m 555 847 q 503 869 524 847 q 481 921 481 890 q 503 974 481 953 q 555 995 524 995 q 608 974 587 995 q 629 921 629 953 q 608 869 629 890 q 555 847 587 847 m 305 847 q 253 869 274 847 q 231 921 231 890 q 253 974 231 953 q 305 995 274 995 q 358 974 337 995 q 378 921 378 953 q 358 869 378 890 q 305 847 337 847 m 427 1029 l 381 1068 l 545 1294 l 608 1239 l 427 1029 z "},"ị":{"ha":781,"x_min":145,"x_max":514,"o":"m 387 0 l 387 715 l 471 715 l 471 0 l 387 0 m 145 639 l 145 715 l 471 715 l 471 639 l 145 639 m 429 842 q 376 864 397 842 q 354 918 354 886 q 376 971 354 949 q 429 993 397 993 q 483 971 461 993 q 505 918 505 949 q 483 864 505 886 q 429 842 461 842 m 439 -241 q 385 -220 407 -241 q 363 -166 363 -198 q 385 -113 363 -134 q 439 -91 407 -91 q 492 -113 471 -91 q 514 -166 514 -134 q 492 -220 514 -198 q 439 -241 471 -241 z "},"ì":{"ha":781,"x_min":145,"x_max":477,"o":"m 387 0 l 387 715 l 471 715 l 471 0 l 387 0 m 145 639 l 145 715 l 471 715 l 471 639 l 145 639 m 432 802 l 250 1013 l 313 1067 l 477 842 l 432 802 z "},"ỉ":{"ha":781,"x_min":145,"x_max":529,"o":"m 387 0 l 387 715 l 471 715 l 471 0 l 387 0 m 145 639 l 145 715 l 471 715 l 471 639 l 145 639 m 447 802 l 409 844 q 452 879 434 857 q 470 925 470 901 q 452 965 470 951 q 402 979 434 979 q 366 975 386 979 q 330 965 345 971 l 330 1027 q 369 1037 346 1034 q 407 1040 392 1040 q 497 1011 465 1040 q 529 934 529 983 q 505 856 529 893 q 447 802 481 819 z "},"ȋ":{"ha":781,"x_min":145,"x_max":633,"o":"m 387 0 l 387 715 l 471 715 l 471 0 l 387 0 m 145 639 l 145 715 l 471 715 l 471 639 l 145 639 m 429 1030 q 533 1004 487 1030 q 606 932 579 977 q 633 829 633 886 l 570 829 q 530 931 570 890 q 429 971 490 971 q 328 931 369 971 q 288 829 288 890 l 225 829 q 252 932 225 886 q 326 1004 279 977 q 429 1030 372 1030 z "},"ī":{"ha":781,"x_min":145,"x_max":650,"o":"m 387 0 l 387 715 l 471 715 l 471 0 l 387 0 m 145 639 l 145 715 l 471 715 l 471 639 l 145 639 m 206 883 l 206 944 l 650 944 l 650 883 l 206 883 z "},"į":{"ha":781,"x_min":145,"x_max":505,"o":"m 387 0 l 387 715 l 471 715 l 471 0 l 387 0 m 145 639 l 145 715 l 471 715 l 471 639 l 145 639 m 429 842 q 376 864 397 842 q 354 918 354 886 q 376 971 354 949 q 429 993 397 993 q 483 971 461 993 q 505 918 505 949 q 483 864 505 886 q 429 842 461 842 m 401 -272 q 325 -241 355 -272 q 296 -163 296 -211 q 332 -66 296 -109 q 420 21 369 -24 l 470 0 q 418 -53 444 -28 q 374 -102 392 -77 q 357 -157 357 -127 q 374 -198 357 -183 q 415 -213 391 -213 q 459 -203 437 -213 q 492 -184 480 -194 l 492 -245 q 451 -264 478 -257 q 401 -272 424 -272 z "},"ĩ":{"ha":781,"x_min":145,"x_max":637,"o":"m 387 0 l 387 715 l 471 715 l 471 0 l 387 0 m 145 639 l 145 715 l 471 715 l 471 639 l 145 639 m 222 833 q 257 948 222 909 q 343 987 291 987 q 400 973 376 987 q 440 942 423 960 q 475 911 458 924 q 513 898 492 898 q 558 923 542 898 q 574 987 574 948 l 637 987 q 604 874 637 915 q 517 833 570 833 q 463 847 486 833 q 422 880 440 861 q 386 912 404 898 q 345 926 368 926 q 302 901 317 926 q 286 833 286 876 l 222 833 z "},"j":{"ha":781,"x_min":77,"x_max":577,"o":"m 286 -296 q 177 -281 228 -296 q 77 -239 125 -267 l 108 -163 q 195 -203 148 -189 q 286 -218 241 -218 q 379 -198 340 -218 q 439 -142 418 -178 q 460 -58 460 -106 l 460 715 l 544 715 l 544 -62 q 535 -126 544 -93 q 509 -190 527 -159 q 460 -244 490 -220 q 387 -282 431 -268 q 286 -296 344 -296 m 198 639 l 198 715 l 544 715 l 544 639 l 198 639 m 502 842 q 448 864 470 842 q 427 918 427 886 q 448 971 427 949 q 502 993 470 993 q 555 971 534 993 q 577 918 577 949 q 555 864 577 886 q 502 842 534 842 z "},"ȷ":{"ha":781,"x_min":77,"x_max":544,"o":"m 286 -296 q 177 -281 228 -296 q 77 -239 125 -267 l 108 -163 q 195 -203 148 -189 q 286 -218 241 -218 q 379 -198 340 -218 q 439 -142 418 -178 q 460 -58 460 -106 l 460 715 l 544 715 l 544 -62 q 535 -126 544 -93 q 509 -190 527 -159 q 460 -244 490 -220 q 387 -282 431 -268 q 286 -296 344 -296 m 198 639 l 198 715 l 544 715 l 544 639 l 198 639 z "},"ĵ":{"ha":781,"x_min":77,"x_max":702,"o":"m 286 -296 q 177 -281 228 -296 q 77 -239 125 -267 l 108 -163 q 195 -203 148 -189 q 286 -218 241 -218 q 379 -198 340 -218 q 439 -142 418 -178 q 460 -58 460 -106 l 460 715 l 544 715 l 544 -62 q 535 -126 544 -93 q 509 -190 527 -159 q 460 -244 490 -220 q 387 -282 431 -268 q 286 -296 344 -296 m 198 639 l 198 715 l 544 715 l 544 639 l 198 639 m 342 811 l 300 857 l 488 1042 l 515 1042 l 702 857 l 660 811 l 505 971 l 499 971 l 342 811 z "},"k":{"ha":781,"x_min":140,"x_max":727,"o":"m 140 0 l 140 1044 l 224 1044 l 224 407 l 286 407 l 241 382 l 590 715 l 702 715 l 317 347 l 317 394 l 727 0 l 615 0 l 241 358 l 286 332 l 224 332 l 224 0 l 140 0 z "},"ķ":{"ha":781,"x_min":140,"x_max":727,"o":"m 140 0 l 140 1044 l 224 1044 l 224 407 l 286 407 l 241 382 l 590 715 l 702 715 l 317 347 l 317 394 l 727 0 l 615 0 l 241 358 l 286 332 l 224 332 l 224 0 l 140 0 m 374 -355 l 345 -324 l 394 -270 q 420 -239 410 -252 q 434 -214 430 -225 q 437 -191 439 -202 l 457 -188 q 445 -210 453 -201 q 422 -220 437 -220 q 382 -202 401 -220 q 363 -158 363 -185 q 382 -114 363 -130 q 422 -97 400 -97 q 466 -116 449 -97 q 482 -169 482 -136 q 472 -220 482 -195 q 448 -263 462 -244 q 426 -292 435 -282 l 374 -355 z "},"ĸ":{"ha":781,"x_min":136,"x_max":729,"o":"m 136 0 l 136 715 l 220 715 l 220 399 l 281 399 l 235 375 l 591 715 l 702 715 l 311 339 l 311 386 l 729 0 l 616 0 l 235 351 l 281 324 l 220 324 l 220 0 l 136 0 z "},"l":{"ha":781,"x_min":262,"x_max":703,"o":"m 503 -9 q 378 18 432 -9 q 293 98 324 45 q 262 224 262 150 l 262 1044 l 347 1044 l 347 229 q 389 112 347 155 q 501 68 431 68 q 591 85 545 68 q 670 126 636 102 l 703 50 q 607 6 658 22 q 503 -9 555 -9 z "},"ĺ":{"ha":781,"x_min":256,"x_max":703,"o":"m 503 -9 q 378 18 432 -9 q 293 98 324 45 q 262 224 262 150 l 262 1044 l 347 1044 l 347 229 q 389 112 347 155 q 501 68 431 68 q 591 85 545 68 q 670 126 636 102 l 703 50 q 607 6 658 22 q 503 -9 555 -9 m 302 1131 l 256 1171 l 420 1396 l 484 1341 l 302 1131 z "},"ľ":{"ha":781,"x_min":262,"x_max":703,"o":"m 503 -9 q 378 18 432 -9 q 293 98 324 45 q 262 224 262 150 l 262 1044 l 347 1044 l 347 229 q 389 112 347 155 q 501 68 431 68 q 591 85 545 68 q 670 126 636 102 l 703 50 q 607 6 658 22 q 503 -9 555 -9 m 506 752 l 508 1044 l 578 1044 l 568 752 l 506 752 z "},"ļ":{"ha":781,"x_min":262,"x_max":703,"o":"m 503 -9 q 378 18 432 -9 q 293 98 324 45 q 262 224 262 150 l 262 1044 l 347 1044 l 347 229 q 389 112 347 155 q 501 68 431 68 q 591 85 545 68 q 670 126 636 102 l 703 50 q 607 6 658 22 q 503 -9 555 -9 m 434 -355 l 406 -324 l 454 -270 q 480 -239 471 -252 q 495 -214 490 -225 q 498 -191 499 -202 l 517 -188 q 506 -210 513 -201 q 482 -220 498 -220 q 443 -202 462 -220 q 424 -158 424 -185 q 442 -114 424 -130 q 482 -97 460 -97 q 526 -116 509 -97 q 543 -169 543 -136 q 532 -220 543 -195 q 509 -263 522 -244 q 486 -292 495 -282 l 434 -355 z "},"ŀ":{"ha":781,"x_min":262,"x_max":809,"o":"m 503 -9 q 378 18 432 -9 q 293 98 324 45 q 262 224 262 150 l 262 1044 l 347 1044 l 347 229 q 389 112 347 155 q 501 68 431 68 q 591 85 545 68 q 670 126 636 102 l 703 50 q 607 6 658 22 q 503 -9 555 -9 m 723 437 q 662 461 688 437 q 637 524 637 486 q 662 584 637 559 q 723 608 686 608 q 784 584 760 608 q 809 524 809 559 q 784 461 809 486 q 723 437 760 437 z "},"ḷ":{"ha":781,"x_min":262,"x_max":703,"o":"m 503 -9 q 378 18 432 -9 q 293 98 324 45 q 262 224 262 150 l 262 1044 l 347 1044 l 347 229 q 389 112 347 155 q 501 68 431 68 q 591 85 545 68 q 670 126 636 102 l 703 50 q 607 6 658 22 q 503 -9 555 -9 m 473 -241 q 420 -220 441 -241 q 398 -166 398 -198 q 420 -113 398 -134 q 473 -91 441 -91 q 527 -113 505 -91 q 549 -166 549 -134 q 527 -220 549 -198 q 473 -241 505 -241 z "},"ḹ":{"ha":781,"x_min":82,"x_max":703,"o":"m 503 -9 q 378 18 432 -9 q 293 98 324 45 q 262 224 262 150 l 262 1044 l 347 1044 l 347 229 q 389 112 347 155 q 501 68 431 68 q 591 85 545 68 q 670 126 636 102 l 703 50 q 607 6 658 22 q 503 -9 555 -9 m 473 -241 q 420 -220 441 -241 q 398 -166 398 -198 q 420 -113 398 -134 q 473 -91 441 -91 q 527 -113 505 -91 q 549 -166 549 -134 q 527 -220 549 -198 q 473 -241 505 -241 m 81 1212 l 81 1273 l 525 1273 l 525 1212 l 81 1212 z "},"ǉ":{"ha":781,"x_min":143,"x_max":709,"o":"m 499 -296 q 413 -280 458 -296 q 339 -240 368 -264 l 366 -172 q 429 -209 393 -195 q 496 -224 465 -224 q 571 -190 541 -224 q 600 -96 600 -157 l 600 715 l 672 715 l 672 -100 q 623 -244 672 -192 q 499 -296 574 -296 m 311 -11 q 188 46 233 -11 q 143 201 143 103 l 143 1044 l 216 1044 l 216 191 q 242 95 216 131 q 313 60 269 60 q 365 70 338 60 q 414 98 391 80 l 441 33 q 381 1 416 13 q 311 -11 346 -11 m 431 642 l 431 715 l 672 715 l 672 642 l 431 642 m 637 847 q 585 868 606 847 q 565 920 565 889 q 586 972 565 952 q 637 993 606 993 q 688 972 668 993 q 709 920 709 952 q 689 868 709 889 q 637 847 669 847 z "},"ḻ":{"ha":781,"x_min":252,"x_max":703,"o":"m 503 -9 q 378 18 432 -9 q 293 98 324 45 q 262 224 262 150 l 262 1044 l 347 1044 l 347 229 q 389 112 347 155 q 501 68 431 68 q 591 85 545 68 q 670 126 636 102 l 703 50 q 607 6 658 22 q 503 -9 555 -9 m 252 -264 l 252 -203 l 695 -203 l 695 -264 l 252 -264 z "},"ł":{"ha":781,"x_min":139,"x_max":703,"o":"m 165 401 l 139 465 l 277 543 l 334 566 l 448 630 l 475 567 l 334 488 l 277 466 l 165 401 m 503 -9 q 378 18 432 -9 q 293 98 324 45 q 262 224 262 150 l 262 1044 l 347 1044 l 347 229 q 389 112 347 155 q 501 68 431 68 q 591 85 545 68 q 670 126 636 102 l 703 50 q 607 6 658 22 q 503 -9 555 -9 z "},"m":{"ha":781,"x_min":65,"x_max":715,"o":"m 65 0 l 65 715 l 144 715 l 144 631 l 157 631 l 134 600 q 188 692 151 657 q 277 726 225 726 q 366 693 328 726 q 413 606 403 659 l 391 633 l 424 633 l 398 606 q 455 691 410 656 q 557 726 499 726 q 623 713 593 726 q 672 674 652 700 q 704 612 693 649 q 715 528 715 575 l 715 0 l 634 0 l 634 527 q 607 615 634 583 q 535 647 581 647 q 461 615 492 647 q 430 527 430 584 l 430 0 l 351 0 l 351 527 q 323 615 351 584 q 253 647 296 647 q 176 612 207 647 q 146 517 146 578 l 146 0 l 65 0 z "},"ṃ":{"ha":781,"x_min":65,"x_max":715,"o":"m 65 0 l 65 715 l 144 715 l 144 631 l 157 631 l 134 600 q 188 692 151 657 q 277 726 225 726 q 366 693 328 726 q 413 606 403 659 l 391 633 l 424 633 l 398 606 q 455 691 410 656 q 557 726 499 726 q 623 713 593 726 q 672 674 652 700 q 704 612 693 649 q 715 528 715 575 l 715 0 l 634 0 l 634 527 q 607 615 634 583 q 535 647 581 647 q 461 615 492 647 q 430 527 430 584 l 430 0 l 351 0 l 351 527 q 323 615 351 584 q 253 647 296 647 q 176 612 207 647 q 146 517 146 578 l 146 0 l 65 0 m 391 -241 q 338 -220 359 -241 q 316 -166 316 -198 q 338 -113 316 -134 q 391 -91 359 -91 q 445 -113 423 -91 q 467 -166 467 -134 q 445 -220 467 -198 q 391 -241 423 -241 z "},"n":{"ha":781,"x_min":119,"x_max":665,"o":"m 119 0 l 119 715 l 202 715 l 202 615 l 226 615 l 186 574 q 271 683 206 640 q 424 726 336 726 q 600 654 534 726 q 665 460 665 581 l 665 0 l 581 0 l 581 445 q 533 593 581 538 q 399 648 484 648 q 298 622 342 648 q 228 551 254 597 q 203 444 203 505 l 203 0 l 119 0 z "}}}
